<?xml version="1.0" encoding="utf-8"?>
<!-- Generator: Adobe Illustrator 16.0.3, SVG Export Plug-In . SVG Version: 6.00 Build 0)  -->
<!DOCTYPE svg PUBLIC "-//W3C//DTD SVG 1.1//EN" "http://www.w3.org/Graphics/SVG/1.1/DTD/svg11.dtd">
<svg version="1.1" id="人物著色" xmlns="http://www.w3.org/2000/svg" xmlns:xlink="http://www.w3.org/1999/xlink" x="0px"
	 y="0px" width="122.25px" height="48.5px" viewBox="0 0 122.25 48.5" enable-background="new 0 0 122.25 48.5"
	 xml:space="preserve">
<g>
	<g>
		<path fill="#F6A136" d="M-92.18,15.343c0,0-5.43-22.593,0-25.343S-72.634,5.671-72.634,5.671S-90.718,14.186-92.18,15.343z"/>
		<path fill="#FEEFD8" d="M-88.928,8.624c0,0-2.734-11.378,0-12.763s9.844,7.892,9.844,7.892S-88.191,8.041-88.928,8.624z"/>
		<path fill="#F6A136" d="M-23.047,15.343c0,0,5.43-22.593,0-25.343S-42.593,5.671-42.593,5.671S-24.509,14.186-23.047,15.343z"/>
		<path fill="#FEEFD8" d="M-26.299,8.624c0,0,2.734-11.378,0-12.763s-9.844,7.892-9.844,7.892S-27.035,8.041-26.299,8.624z"/>
	</g>
	<path fill="#FAAF3B" d="M-7.5,32c0,0-11.5,29.25-50,29.25c-35,0-50-29.25-50-29.25S-93,2.75-57.5,2.75C-23.5,2.75-7.5,32-7.5,32z"
		/>
	<g>
		<defs>
			<path id="SVGID_1_" d="M-7.5,32c0,0-11.5,29.25-50,29.25c-35,0-50-29.25-50-29.25S-93,2.75-57.5,2.75C-23.5,2.75-7.5,32-7.5,32z"
				/>
		</defs>
		<clipPath id="SVGID_2_">
			<use xlink:href="#SVGID_1_"  overflow="visible"/>
		</clipPath>
		<ellipse clip-path="url(#SVGID_2_)" fill="#FDDFB1" cx="-57.047" cy="58.25" rx="22.973" ry="30.501"/>
		<g clip-path="url(#SVGID_2_)">
			<g>
				<path fill="#F6921E" d="M-65.619-1.115c0,5.5,0,11.001,0,16.501c0,1.075,3.498,0.414,3.498-0.938c0-5.5,0-11.001,0-16.501
					C-62.121-3.128-65.619-2.467-65.619-1.115L-65.619-1.115z"/>
			</g>
		</g>
		<g clip-path="url(#SVGID_2_)">
			<g>
				<path fill="#F6921E" d="M-59.582,0.885c0,5.5,0,11.001,0,16.501c0,1.075,3.498,0.414,3.498-0.938c0-5.5,0-11.001,0-16.501
					C-56.084-1.128-59.582-0.467-59.582,0.885L-59.582,0.885z"/>
			</g>
		</g>
		<g clip-path="url(#SVGID_2_)">
			<g>
				<path fill="#F6921E" d="M-53.545-1.115c0,5.5,0,11.001,0,16.501c0,1.075,3.498,0.414,3.498-0.938c0-5.5,0-11.001,0-16.501
					C-50.047-3.128-53.545-2.467-53.545-1.115L-53.545-1.115z"/>
			</g>
		</g>
	</g>
	<g>
		<g>
			<path d="M-77.84,12.1c-0.543,0.564-0.868,1.186-0.888,1.979c-0.017,0.658,1.442,0.378,1.455-0.158
				c0.015-0.61,0.187-1.079,0.612-1.521c0.217-0.225,0.159-0.495-0.154-0.575C-77.147,11.74-77.598,11.85-77.84,12.1L-77.84,12.1z"
				/>
		</g>
	</g>
	<g>
		<g>
			<path d="M-74.725,12.444c0.248,0.561,0.252,1.189,0.5,1.75c0.244,0.549,1.67,0.109,1.449-0.389
				c-0.248-0.561-0.252-1.189-0.5-1.75C-73.52,11.507-74.945,11.946-74.725,12.444L-74.725,12.444z"/>
		</g>
	</g>
	<g>
		<g>
			<path d="M-40.84,12.1c-0.543,0.564-0.868,1.186-0.888,1.979c-0.017,0.658,1.442,0.378,1.455-0.158
				c0.015-0.61,0.187-1.079,0.612-1.521c0.217-0.225,0.159-0.495-0.154-0.575C-40.147,11.74-40.598,11.85-40.84,12.1L-40.84,12.1z"
				/>
		</g>
	</g>
	<g>
		<g>
			<path d="M-37.725,12.444c0.248,0.561,0.252,1.189,0.5,1.75c0.244,0.549,1.67,0.109,1.449-0.389
				c-0.248-0.561-0.252-1.189-0.5-1.75C-36.52,11.507-37.945,11.946-37.725,12.444L-37.725,12.444z"/>
		</g>
	</g>
	<g>
		<circle fill="#FBED21" cx="-74.854" cy="22.758" r="4.78"/>
		<circle cx="-73.869" cy="22.984" r="3.137"/>
	</g>
	<g>
		<circle fill="#FBED21" cx="-39.854" cy="22.758" r="4.78"/>
		<circle cx="-38.869" cy="22.984" r="3.137"/>
	</g>
	<path fill="none" stroke="#F6A136" stroke-miterlimit="10" d="M-57.75,34.875c0,0,0.625,8.25-6.25,5"/>
	<path fill="none" stroke="#F6A136" stroke-miterlimit="10" d="M-56.984,34.875c0,0-0.625,8.25,6.25,5"/>
	<path fill="#FAAF3B" d="M-59.887,33.49c0,1.48,1.201,2.385,2.682,2.385s2.684-0.904,2.684-2.385c0-1.481-1.203-1.49-2.684-1.49
		S-59.887,32.009-59.887,33.49z"/>
	<g>
		<g>
			<g>
				<path d="M-52.627,26.513c1.942-1.417,3.478,1.859,3.689,3.357c0.161,1.137-0.333,2.325-1.113,3.127
					c-1.152,1.186-2.856,0.784-3.979-0.177c-2.85-2.438,0.573-8.669,3.785-5.631c0.189,0.179,0.866-0.096,0.666-0.285
					c-4.201-3.973-9.442,5.013-3.596,7.092c2.58,0.918,5.127-1.529,4.968-4.088c-0.146-2.349-2.41-5.414-4.87-3.62
					C-53.469,26.574-52.857,26.681-52.627,26.513L-52.627,26.513z"/>
			</g>
		</g>
		<g>
			<g>
				<path d="M-62.889,26.616c1.943-1.416,3.478,1.858,3.689,3.357c0.161,1.137-0.333,2.325-1.113,3.127
					c-1.153,1.187-2.857,0.783-3.98-0.177c-2.849-2.438,0.576-8.668,3.789-5.631c0.189,0.179,0.866-0.096,0.666-0.285
					c-4.204-3.972-9.443,5.011-3.598,7.092c2.58,0.918,5.127-1.529,4.968-4.088c-0.146-2.35-2.41-5.412-4.87-3.62
					C-63.73,26.678-63.119,26.784-62.889,26.616L-62.889,26.616z"/>
			</g>
		</g>
		<g>
			<g>
				<path d="M-57.785,30.91c0.402-0.634,0.952-0.497,1.402,0.012c0.182,0.206,0.868-0.061,0.662-0.293
					c-0.796-0.901-2.098-0.767-2.738,0.242C-58.652,31.175-57.924,31.13-57.785,30.91L-57.785,30.91z"/>
			</g>
		</g>
	</g>
	<g>
		<g>
			<g>
				<path fill="#F6A136" d="M-69.288,25.628c-0.485,0.969-0.978,1.93-1.62,2.805c-0.819,1.115,1.231,1.432,1.816,0.635
					c0.738-1.004,1.324-2.084,1.88-3.195c0.244-0.488-0.215-0.855-0.661-0.908C-68.395,24.902-69.041,25.135-69.288,25.628
					L-69.288,25.628z"/>
			</g>
		</g>
		<g>
			<g>
				<path fill="#F6A136" d="M-74.77,31.948c-0.541,0.854-0.811,1.845-1.25,2.75c-0.485,1,1.699,0.804,2.039,0.104
					c0.439-0.904,0.71-1.897,1.25-2.75c0.282-0.445-0.238-0.698-0.61-0.718C-73.84,31.309-74.487,31.503-74.77,31.948L-74.77,31.948
					z"/>
			</g>
		</g>
		<g>
			<g>
				<path fill="#F6A136" d="M-77.989,30.063c-0.792,0.82-1.327,1.837-2,2.75c-0.28,0.381,0.243,0.426,0.527,0.408
					c0.421-0.026,1.177-0.161,1.451-0.533c0.671-0.91,1.211-1.932,2-2.75c0.349-0.361-0.304-0.422-0.527-0.408
					C-77.012,29.559-77.646,29.706-77.989,30.063L-77.989,30.063z"/>
			</g>
		</g>
		<g>
			<g>
				<path fill="#F6A136" d="M-82.721,28.65c-1.141,0.578-2.146,1.286-2.931,2.31c-0.833,1.085,1.233,1.322,1.803,0.58
					c0.573-0.746,1.232-1.268,2.069-1.69c0.354-0.18,0.866-0.635,0.527-1.066C-81.576,28.369-82.309,28.442-82.721,28.65
					L-82.721,28.65z"/>
			</g>
		</g>
		<g>
			<g>
				<path fill="#F6A136" d="M-87.574,24.405c1.284-0.341,2.456-0.952,3.524-1.736c0.327-0.24,0.615-0.724,0.149-1.001
					c-0.448-0.268-1.147-0.132-1.55,0.163c-0.762,0.56-1.557,1.02-2.476,1.264c-0.374,0.1-1.044,0.449-0.911,0.946
					C-88.703,24.54-87.949,24.505-87.574,24.405L-87.574,24.405z"/>
			</g>
		</g>
		<g>
			<g>
				<path fill="#F6A136" d="M-83.79,15.327c-1.155,0.031-2.238,0.342-3.328,0.704c-0.079,0.026-0.979,0.391-0.657,0.581
					c0.364,0.217,1.039-0.026,1.394-0.144c0.378-0.126,0.769-0.285,1.172-0.296c0.523-0.014,1.083-0.142,1.536-0.412
					C-83.334,15.559-83.369,15.315-83.79,15.327L-83.79,15.327z"/>
			</g>
		</g>
		<g>
			<g>
				<path fill="#F6A136" d="M-89.558,19.456c-1.777,0.027-3.322,0.771-4.022,2.452c-0.182,0.435,0.734,0.388,0.91,0.362
					c0.417-0.062,1.068-0.242,1.25-0.679c0.146-0.352,0.319-0.714,0.612-0.967c0.071-0.063,0.263-0.123,0.055-0.061
					c-0.103,0.015-0.083,0.012,0.06-0.011c-0.107,0.018,0.297-0.011,0.251-0.01c0.479-0.008,1.125-0.174,1.442-0.563
					C-88.676,19.583-89.275,19.452-89.558,19.456L-89.558,19.456z"/>
			</g>
		</g>
		<g>
			<g>
				<path fill="#F6A136" d="M-96.168,20.348c-1.16,0.428-2.08,1.353-2.415,2.551c-0.201,0.718,1.973,0.395,2.166-0.297
					c0.165-0.588,0.524-1.243,1.085-1.449c0.228-0.084,0.937-0.485,0.595-0.815C-95.084,20.002-95.789,20.208-96.168,20.348
					L-96.168,20.348z"/>
			</g>
		</g>
		<g>
			<g>
				<path fill="#F6A136" d="M-94.603,24.643c-0.853,0.608-1.391,1.546-1.727,2.521c-0.205,0.594,1.938,0.313,2.158-0.326
					c0.257-0.741,0.618-1.513,1.273-1.979c0.36-0.257,0.253-0.573-0.168-0.627C-93.587,24.165-94.179,24.34-94.603,24.643
					L-94.603,24.643z"/>
			</g>
		</g>
		<g>
			<g>
				<path fill="#F6A136" d="M-89.864,27.348c-0.781,0.548-1.339,1.326-2,2c-0.301,0.307-0.287,0.632,0.192,0.716
					c0.471,0.083,1.188-0.057,1.536-0.411c0.658-0.672,1.225-1.457,2-2c0.384-0.269,0.219-0.644-0.192-0.716
					C-88.869,26.841-89.427,27.041-89.864,27.348L-89.864,27.348z"/>
			</g>
		</g>
		<g>
			<g>
				<path fill="#F6A136" d="M-103.32,28.445c-0.511,0.78-0.945,1.618-1.25,2.5c-0.125,0.359,0.729,0.216,0.864,0.19
					c0.308-0.056,1.149-0.215,1.276-0.581c0.306-0.883,0.74-1.721,1.25-2.5c0.211-0.322-0.797-0.203-0.864-0.19
					C-102.442,27.937-103.079,28.076-103.32,28.445L-103.32,28.445z"/>
			</g>
		</g>
		<g>
			<g>
				<path fill="#F6A136" d="M-102.994,35.229c0.903,1.149,2.171,1.906,3.406,2.648c0.479,0.287,1.121,0.198,1.559-0.13
					c0.346-0.26,0.59-0.842,0.117-1.126c-1.107-0.665-2.283-1.321-3.094-2.352C-101.618,33.491-103.687,34.35-102.994,35.229
					L-102.994,35.229z"/>
			</g>
		</g>
		<g>
			<g>
				<path fill="#F6A136" d="M-100.337,31.791c0.598,0.873,1.37,1.581,2.311,2.069c0.381,0.198,1.026-0.02,1.393-0.147
					c0.063-0.022,0.987-0.403,0.66-0.573c-0.886-0.461-1.625-1.106-2.189-1.931C-98.51,30.702-100.476,31.588-100.337,31.791
					L-100.337,31.791z"/>
			</g>
		</g>
		<g>
			<g>
				<path fill="#F6A136" d="M-93.52,34.885c0.803,0.774,1.81,1.279,2.884,1.563c0.488,0.129,1.088-0.038,1.524-0.259
					c0.195-0.099,0.741-0.507,0.247-0.638c-0.993-0.262-1.874-0.721-2.616-1.437C-91.924,33.688-93.926,34.493-93.52,34.885
					L-93.52,34.885z"/>
			</g>
		</g>
		<g>
			<g>
				<path fill="#F6A136" d="M-96.587,42.541c0.563,1.099,1.332,2.066,2.312,2.822c0.313,0.241,1.086-0.031,1.395-0.141
					c0.11-0.039,0.953-0.357,0.656-0.586c-0.935-0.722-1.651-1.63-2.188-2.678C-94.676,41.447-96.745,42.232-96.587,42.541
					L-96.587,42.541z"/>
			</g>
		</g>
		<g>
			<g>
				<path fill="#F6A136" d="M-92.242,41.24c0.934,1.187,2.244,1.956,3.623,2.523c0.971,0.398,2.531-0.996,1.238-1.527
					c-1.088-0.446-2.14-1.039-2.877-1.977C-90.903,39.439-92.961,40.325-92.242,41.24L-92.242,41.24z"/>
			</g>
		</g>
		<g>
			<g>
				<path fill="#F6A136" d="M-86.087,36.291c0.038,0.783,0.549,1.352,1.077,1.881c0.529,0.531,2.585-0.277,2.02-0.844
					c-0.475-0.477-0.89-0.914-0.923-1.619C-83.945,35.029-86.126,35.467-86.087,36.291L-86.087,36.291z"/>
			</g>
		</g>
		<g>
			<g>
				<path fill="#F6A136" d="M-80.377,38.604c-1.255,0.663-2.136,1.681-2.445,3.086c-0.108,0.493,2.025,0.158,2.145-0.381
					c0.202-0.92,0.68-1.951,1.555-2.414c0.166-0.087,0.759-0.454,0.266-0.568C-79.326,38.219-79.963,38.385-80.377,38.604
					L-80.377,38.604z"/>
			</g>
		</g>
		<g>
			<g>
				<path fill="#F6A136" d="M-83.329,46.913c-0.243,0.958-0.491,1.884-0.508,2.878c-0.009,0.513,2.161,0.161,2.174-0.582
					c0.015-0.9,0.272-1.756,0.492-2.622C-81.006,45.938-83.168,46.275-83.329,46.913L-83.329,46.913z"/>
			</g>
		</g>
		<g>
			<g>
				<path fill="#F6A136" d="M-91.494,48.729c1.061,1.047,2.219,2.002,3.407,2.899c0.774,0.585,2.675-0.503,1.674-1.258
					c-1.069-0.809-2.137-1.658-3.093-2.601c-0.398-0.394-0.983-0.402-1.477-0.165C-91.311,47.764-91.894,48.336-91.494,48.729
					L-91.494,48.729z"/>
			</g>
		</g>
		<g>
			<g>
				<path fill="#F6A136" d="M-82.591,26.565c0.25,0,0.5,0,0.75,0c0.483,0,1.135-0.368,1.193-0.893
					c0.063-0.574-0.573-0.738-1.012-0.738c-0.25,0-0.5,0-0.75,0c-0.483,0-1.135,0.368-1.193,0.893
					C-83.666,26.401-83.029,26.565-82.591,26.565L-82.591,26.565z"/>
			</g>
		</g>
		<g>
			<g>
				<path fill="#F6A136" d="M-47.495,26.228c0.521,1.04,1.06,2.061,1.75,3c0.582,0.792,2.653-0.053,1.99-0.955
					c-0.69-0.939-1.229-1.96-1.75-3C-45.935,24.414-48.006,25.207-47.495,26.228L-47.495,26.228z"/>
			</g>
		</g>
		<g>
			<g>
				<path fill="#F6A136" d="M-42.005,32.44c0.508,0.802,0.755,1.75,1.168,2.601c0.393,0.809,2.521,0.132,2.174-0.582
					c-0.466-0.959-0.759-1.995-1.332-2.899C-40.421,30.888-42.525,31.619-42.005,32.44L-42.005,32.44z"/>
			</g>
		</g>
		<g>
			<g>
				<path fill="#F6A136" d="M-38.771,30.381c0.789,0.817,1.329,1.839,2,2.75c0.326,0.442,2.409-0.264,2.043-0.762
					c-0.673-0.912-1.209-1.929-2-2.75C-37.141,29.192-39.158,29.979-38.771,30.381L-38.771,30.381z"/>
			</g>
		</g>
		<g>
			<g>
				<path fill="#F6A136" d="M-33.344,29.855c0.935,0.473,1.705,1.026,2.346,1.861c0.57,0.743,2.648-0.084,1.996-0.934
					c-0.717-0.935-1.61-1.61-2.654-2.139c-0.496-0.251-1.104-0.178-1.555,0.146C-33.527,29.019-33.836,29.606-33.344,29.855
					L-33.344,29.855z"/>
			</g>
		</g>
		<g>
			<g>
				<path fill="#F6A136" d="M-26.355,23.081c-1.034-0.274-1.937-0.782-2.795-1.413c-0.683-0.501-2.645,0.471-1.699,1.164
					c0.972,0.714,2.036,1.276,3.205,1.587c0.518,0.138,1.162-0.022,1.537-0.411C-25.776,23.664-25.883,23.206-26.355,23.081
					L-26.355,23.081z"/>
			</g>
		</g>
		<g>
			<g>
				<path fill="#F6A136" d="M-30.96,16.173c0.711,0.02,1.395,0.261,2.063,0.483c0.436,0.145,1.126-0.111,1.516-0.288
					c0.209-0.095,0.72-0.378,0.277-0.524c-0.801-0.267-1.586-0.494-2.437-0.517c-0.511-0.014-1.099,0.151-1.536,0.412
					C-31.433,15.951-31.365,16.162-30.96,16.173L-30.96,16.173z"/>
			</g>
		</g>
		<g>
			<g>
				<path fill="#F6A136" d="M-25.192,20.544c0.952,0.014,1.511,0.669,1.855,1.497c0.278,0.668,2.411-0.013,2.174-0.582
					c-0.24-0.577-0.563-1.125-1.086-1.486c-0.603-0.417-1.345-0.506-2.059-0.517c-0.474-0.007-1.132,0.182-1.442,0.563
					C-26.078,20.422-25.471,20.539-25.192,20.544L-25.192,20.544z"/>
			</g>
		</g>
		<g>
			<g>
				<path fill="#F6A136" d="M-19.871,21.253c0.798,0.293,1.311,0.987,1.534,1.788c0.197,0.704,2.368,0.114,2.174-0.582
					c-0.279-0.998-0.981-1.85-1.966-2.212c-0.486-0.179-1.1-0.031-1.535,0.22C-19.913,20.611-20.363,21.071-19.871,21.253
					L-19.871,21.253z"/>
			</g>
		</g>
		<g>
			<g>
				<path fill="#F6A136" d="M-22.017,25.148c0.728,0.52,1.145,1.314,1.43,2.143c0.223,0.646,2.377,0.007,2.174-0.582
					c-0.308-0.891-0.788-1.8-1.57-2.357c-0.384-0.273-1.024-0.106-1.42,0.049C-21.551,24.458-22.394,24.879-22.017,25.148
					L-22.017,25.148z"/>
			</g>
		</g>
		<g>
			<g>
				<path fill="#F6A136" d="M-26.762,27.915c0.778,0.546,1.34,1.327,2,2c0.507,0.518,2.562-0.282,2.023-0.83
					c-0.66-0.674-1.221-1.454-2-2c-0.409-0.287-0.998-0.173-1.432,0.005C-26.34,27.159-27.167,27.631-26.762,27.915L-26.762,27.915z
					"/>
			</g>
		</g>
		<g>
			<g>
				<path fill="#F6A136" d="M-13.587,28.541c0.511,0.78,0.945,1.618,1.25,2.5c0.171,0.492,2.319-0.162,2.174-0.582
					c-0.306-0.882-0.74-1.72-1.25-2.5C-11.756,27.435-13.747,28.296-13.587,28.541L-13.587,28.541z"/>
			</g>
		</g>
		<g>
			<g>
				<path fill="#F6A136" d="M-13.66,34.428c-0.744,0.947-1.802,1.567-2.821,2.18c-0.364,0.219-0.86,0.658-0.513,1.122
					c0.309,0.413,1.068,0.407,1.476,0.163c1.324-0.795,2.708-1.587,3.679-2.82C-10.984,33.983-13.046,33.647-13.66,34.428
					L-13.66,34.428z"/>
			</g>
		</g>
		<g>
			<g>
				<path fill="#F6A136" d="M-16.569,31.701c-0.522,0.763-1.185,1.365-2.006,1.792c-0.375,0.195-0.276,0.422,0.114,0.425
					c0.531,0.005,1.069-0.169,1.536-0.411c1.006-0.522,1.854-1.272,2.494-2.208c0.208-0.304-0.8-0.177-0.858-0.166
					C-15.683,31.207-16.322,31.341-16.569,31.701L-16.569,31.701z"/>
			</g>
		</g>
		<g>
			<g>
				<path fill="#F6A136" d="M-23.241,34.555c-0.531,0.512-1.15,0.868-1.863,1.056c-0.214,0.057-1.081,0.313-0.982,0.681
					c0.1,0.37,0.977,0.155,1.191,0.099c1.352-0.357,2.624-0.968,3.637-1.944c0.37-0.357-0.321-0.44-0.532-0.429
					C-22.286,34.044-22.875,34.202-23.241,34.555L-23.241,34.555z"/>
			</g>
		</g>
		<g>
			<g>
				<path fill="#F6A136" d="M-20.32,42.448c-0.531,1.037-1.234,1.932-2.16,2.646c-0.4,0.31,0.355,0.336,0.504,0.322
					c0.5-0.048,1.054-0.199,1.457-0.51c0.988-0.764,1.771-1.745,2.34-2.854c0.172-0.336-0.771-0.196-0.861-0.18
					C-19.395,41.938-20.131,42.08-20.32,42.448L-20.32,42.448z"/>
			</g>
		</g>
		<g>
			<g>
				<path fill="#F6A136" d="M-24.418,40.398c-0.728,0.926-1.752,1.479-2.824,1.919c-0.426,0.175-0.813,0.737-0.5,1.173
					c0.341,0.473,1.023,0.382,1.484,0.192c1.395-0.572,2.733-1.383,3.676-2.581c0.32-0.408,0.193-0.926-0.299-1.115
					C-23.391,39.792-24.078,39.966-24.418,40.398L-24.418,40.398z"/>
			</g>
		</g>
		<g>
			<g>
				<path fill="#F6A136" d="M-30.836,36.14c-0.029,0.623-0.359,1.017-0.783,1.441c-0.311,0.312-0.271,0.658,0.201,0.75
					c0.482,0.094,1.181-0.055,1.537-0.412c0.578-0.579,1.176-1.195,1.217-2.059C-28.623,34.981-30.802,35.433-30.836,36.14
					L-30.836,36.14z"/>
			</g>
		</g>
		<g>
			<g>
				<path fill="#F6A136" d="M-36.023,39.121c1.054,0.557,1.684,1.52,1.937,2.67c0.104,0.476,2.288-0.062,2.174-0.582
					c-0.264-1.198-0.966-2.25-2.063-2.83c-0.396-0.209-1.015-0.018-1.4,0.121C-35.449,38.527-36.377,38.934-36.023,39.121
					L-36.023,39.121z"/>
			</g>
		</g>
		<g>
			<g>
				<path fill="#F6A136" d="M-33.587,47.041c0.231,0.912,0.484,1.803,0.5,2.75c0.009,0.531,2.186,0.153,2.174-0.582
					c-0.016-0.948-0.269-1.838-0.5-2.75C-31.572,45.831-33.748,46.403-33.587,47.041L-33.587,47.041z"/>
			</g>
		</g>
		<g>
			<g>
				<path fill="#F6A136" d="M-25.16,47.927c-0.946,0.933-2.002,1.773-3.062,2.573c-0.367,0.277-0.564,0.819-0.115,1.129
					c0.453,0.313,1.143,0.185,1.559-0.129c1.198-0.906,2.368-1.871,3.438-2.927c0.371-0.366,0.164-0.899-0.283-1.059
					C-24.171,47.32-24.765,47.536-25.16,47.927L-25.16,47.927z"/>
			</g>
		</g>
		<g>
			<g>
				<path fill="#F6A136" d="M-32.159,24.935c-0.25,0-0.5,0-0.75,0c-0.483,0-1.135,0.368-1.193,0.893
					c-0.063,0.574,0.573,0.738,1.012,0.738c0.25,0,0.5,0,0.75,0c0.483,0,1.135-0.368,1.193-0.893
					C-31.084,25.099-31.721,24.935-32.159,24.935L-32.159,24.935z"/>
			</g>
		</g>
	</g>
	<g>
		<g>
			<path fill="#FFFFFF" d="M-109.385,39.683c7.354-2.197,15.641-2.37,23.005,0.037c0.564,0.185,2.53-0.688,1.76-0.939
				c-8.003-2.616-17.003-2.351-24.995,0.037C-110.882,39.196-110.663,40.064-109.385,39.683L-109.385,39.683z"/>
		</g>
	</g>
	<g>
		<g>
			<path fill="#FFFFFF" d="M-108.301,50.29c6.498-3.82,14.387-5.986,21.983-5.392c0.557,0.043,2.526-0.933,1.373-1.023
				c-8.494-0.664-17.366,1.679-24.653,5.962C-110.855,50.576-108.894,50.639-108.301,50.29L-108.301,50.29z"/>
		</g>
	</g>
	<g>
		<g>
			<path fill="#FFFFFF" d="M-3.62,38.78c-8.13-2.429-17.165-2.522-25.28,0.13c-1.463,0.479-0.097,0.973,0.801,0.68
				c7.253-2.371,15.5-2.027,22.72,0.13C-4.812,39.89-2.855,39.009-3.62,38.78L-3.62,38.78z"/>
		</g>
	</g>
	<g>
		<g>
			<path fill="#FFFFFF" d="M-4.033,49.668c-7.066-4.154-15.641-6.446-23.888-5.802c-0.664,0.052-2.343,1.153-0.896,1.041
				c7.85-0.614,16.022,1.598,22.749,5.552C-5.476,50.807-3.602,49.922-4.033,49.668L-4.033,49.668z"/>
		</g>
	</g>
	<g>
		<g>
			<g>
				<path fill="#F8DAAC" d="M-68.37,36.076c-1.056,0.791-2.079,1.603-2.891,2.654c-0.323,0.418,0.271,0.624,0.587,0.631
					c0.506,0.01,1.115-0.177,1.435-0.592c0.722-0.935,1.672-1.642,2.609-2.346c0.378-0.283,0.216-0.676-0.204-0.76
					C-67.372,35.556-67.943,35.755-68.37,36.076L-68.37,36.076z"/>
			</g>
		</g>
		<g>
			<g>
				<path fill="#F8DAAC" d="M-67.331,39.157c-0.477,1.177-1.023,2.323-1.5,3.5c-0.238,0.589,1.898,0.336,2.162-0.314
					c0.477-1.177,1.023-2.323,1.5-3.5C-64.931,38.254-67.067,38.507-67.331,39.157L-67.331,39.157z"/>
			</g>
		</g>
		<g>
			<g>
				<path fill="#F8DAAC" d="M-75.354,45.325c-0.016,0.947-0.268,1.838-0.5,2.75c-0.139,0.547,0.631,0.775,1.015,0.749
					c0.552-0.038,1.053-0.352,1.192-0.899c0.23-0.912,0.484-1.802,0.5-2.75C-73.128,44.004-75.336,44.306-75.354,45.325
					L-75.354,45.325z"/>
			</g>
		</g>
		<g>
			<g>
				<path fill="#F8DAAC" d="M-71.592,47.618c0.001,1.477-0.012,2.966,0.255,4.423c0.154,0.838,2.335,0.298,2.174-0.582
					c-0.247-1.347-0.245-2.713-0.245-4.077C-69.408,46.387-71.592,46.817-71.592,47.618L-71.592,47.618z"/>
			</g>
		</g>
		<g>
			<g>
				<path fill="#F8DAAC" d="M-64.594,45.107c-0.24,1.27-0.203,2.468,0.257,3.684c0.335,0.885,2.492,0.259,2.174-0.582
					c-0.423-1.118-0.463-2.148-0.243-3.316C-62.221,43.915-64.432,44.243-64.594,45.107L-64.594,45.107z"/>
			</g>
		</g>
		<g>
			<g>
				<path fill="#F8DAAC" d="M-58.337,44.791c0,1.667,0,3.334,0,5c0,0.327,2.174,0.022,2.174-0.582c0-1.667,0-3.334,0-5
					C-56.163,43.882-58.337,44.187-58.337,44.791L-58.337,44.791z"/>
			</g>
		</g>
		<g>
			<g>
				<path fill="#F8DAAC" d="M-61.837,54.291c0.019,1.301,0.283,2.538,0.75,3.75c0.218,0.564,2.354-0.114,2.174-0.582
					c-0.468-1.212-0.731-2.45-0.75-3.75C-59.67,53.289-61.846,53.633-61.837,54.291L-61.837,54.291z"/>
			</g>
		</g>
		<g>
			<g>
				<path fill="#F8DAAC" d="M-66.848,55.846c0,0.789-0.065,1.708,0.261,2.445c0.216,0.488,0.812,0.528,1.273,0.404
					c0.334-0.089,1.114-0.504,0.9-0.986c-0.28-0.633-0.239-1.378-0.239-2.055C-64.653,54.564-66.848,54.935-66.848,55.846
					L-66.848,55.846z"/>
			</g>
		</g>
		<g>
			<g>
				<path fill="#F8DAAC" d="M-76.587,55.041c0.019,1.006,0.231,1.994,0.25,3c0.012,0.621,2.188,0.215,2.174-0.582
					c-0.019-1.006-0.231-1.994-0.25-3C-74.425,53.838-76.602,54.244-76.587,55.041L-76.587,55.041z"/>
			</g>
		</g>
		<g>
			<g>
				<path fill="#F8DAAC" d="M-56.087,53.541c0,1.211-0.026,2.41-0.247,3.604c-0.146,0.793,2.037,0.416,2.168-0.289
					c0.238-1.289,0.252-2.59,0.253-3.896C-53.913,52.331-56.086,52.729-56.087,53.541L-56.087,53.541z"/>
			</g>
		</g>
		<g>
			<g>
				<path fill="#F8DAAC" d="M-51.337,48.291c0.208,1.102,0.241,2.195,0.241,3.313c0.001,1.059,2.191,0.666,2.191-0.207
					c-0.001-1.239-0.028-2.466-0.259-3.688C-49.335,46.799-51.515,47.349-51.337,48.291L-51.337,48.291z"/>
			</g>
		</g>
		<g>
			<g>
				<path fill="#F8DAAC" d="M-49.518,40.894c0.738,0.766,1.209,1.706,1.681,2.647c0.314,0.629,2.409-0.11,2.174-0.582
					c-0.507-1.012-1.026-2.03-1.819-2.853C-47.926,39.646-49.963,40.432-49.518,40.894L-49.518,40.894z"/>
			</g>
		</g>
		<g>
			<g>
				<path fill="#F8DAAC" d="M-49.277,35.607c1.506,1.037,2.674,2.428,3.69,3.934c0.334,0.494,2.301-0.395,2.174-0.582
					c-1.048-1.551-2.259-2.997-3.81-4.066c-0.322-0.222-1.076,0.05-1.391,0.158C-48.702,35.082-49.57,35.405-49.277,35.607
					L-49.277,35.607z"/>
			</g>
		</g>
		<g>
			<g>
				<path fill="#F8DAAC" d="M-43.337,45.291c0.524,1.05,1.003,2.098,1.25,3.25c0.179,0.831,2.358,0.275,2.174-0.582
					c-0.248-1.153-0.726-2.201-1.25-3.25C-41.566,43.901-43.69,44.582-43.337,45.291L-43.337,45.291z"/>
			</g>
		</g>
		<g>
			<g>
				<path fill="#F8DAAC" d="M-47.337,49.541c0.248,1.322,0.291,2.672,0.5,4c0.095,0.603,2.282,0.107,2.174-0.582
					c-0.21-1.328-0.253-2.678-0.5-4C-45.278,48.346-47.463,48.865-47.337,49.541L-47.337,49.541z"/>
			</g>
		</g>
		<g>
			<g>
				<path fill="#F8DAAC" d="M-40.337,53.041c0.292,0.895,0.485,1.808,0.5,2.75c0.01,0.603,2.187,0.203,2.174-0.582
					c-0.016-0.943-0.209-1.855-0.5-2.75C-38.391,51.76-40.552,52.381-40.337,53.041L-40.337,53.041z"/>
			</g>
		</g>
		<g>
			<g>
				<path fill="#F8DAAC" d="M-50.094,56.608c0,0.75,0,1.5,0,2.25c0,1.038,2.188,0.633,2.188-0.217c0-0.75,0-1.5,0-2.25
					C-47.906,55.354-50.094,55.759-50.094,56.608L-50.094,56.608z"/>
			</g>
		</g>
		<g>
			<g>
				<path fill="#F8DAAC" d="M-45.104,57.073c0,0.166,0,0.333,0,0.5c0,1.18,2.207,0.882,2.207-0.146c0-0.166,0-0.333,0-0.5
					C-42.896,55.747-45.104,56.045-45.104,57.073L-45.104,57.073z"/>
			</g>
		</g>
	</g>
	<g>
		<g>
			<path fill="#8B6239" d="M-76.244-0.672c1.405-9.769,18.96-3.396,29.698-5.073c7.018-1.097,8.308,3.06,7.937,5.837
				c-0.966,8.472-37.837,10.743-37.535-1.504"/>
		</g>
		<g>
			<path fill="#7A5B39" d="M-69.302-2.02c0.421-1.425,2.913-2.479,7.381-2.289c8.778,0.376,15.452-1.246,14.61,1.429
				c-1.031,3.285-6.164,3.156-11.447,3.192c-5.352,0.037-10.844,0.198-10.449-2.68"/>
		</g>
		<g>
			<path fill="#8B6239" d="M-58.515-1.925c-0.484-1.247,1.563-8.771,4.032-8.423c3.461-0.104-2.88,8.389-3.711,9.254"/>
		</g>
	</g>
</g>
<g>
	<g>
		<path fill="#FDF47A" d="M7.324,38.215c-2.052,0.769-3.334,3.59-5.129,4.873c6.154,0.256,10.258-1.026,16.412,0.77
			c7.694,2.051,16.157,2.051,23.851,2.82c13.592,1.282,27.697,1.026,41.289,0c10.515-0.77,31.8-1.795,35.391-14.105
			c3.334-11.026-0.77-27.44-13.335-29.748c-7.694-1.282-16.414-1.025-24.107,0c-7.437,0.77-15.644,2.564-22.824,2.308
			C46.562,4.876,33.738,2.824,21.942,7.44C14.505,10.262,9.89,10.005,7.324,17.699c-0.77,2.82-1.083,10.103-0.314,13.18
			C7.522,32.932,10.146,36.933,7.324,38.215"/>
		<g>
			<path d="M6.855,37.652c-2.318,1.291-3.607,3.455-5.574,5.176c-0.502,0.438-0.025,0.975,0.506,0.985
				c3.256,0.063,6.493-0.181,9.748-0.204c3.892-0.026,7.648,1.317,11.447,1.993c6.88,1.225,13.973,1.347,20.924,1.966
				c14.137,1.26,28.344,0.653,42.472-0.367c8.827-0.638,18.156-1.53,26.081-5.789c7.406-3.979,9.256-11.356,8.818-19.287
				c-0.474-8.604-5.097-17.118-13.659-19.726C95.142-1.4,80.154,2.47,67.634,3.972C53.424,5.676,39.24,1.939,25.161,5.63
				C17.571,7.619,7.984,9.954,6.004,18.684c-0.662,2.919-0.712,6.241-0.509,9.214c0.139,2.035,2.979,8.525,1.112,9.894
				c-1.223,0.896,0.637,1.432,1.434,0.848c2.678-1.963,1.423-4.505,0.359-7.206c-1.613-4.1-1.072-10.829,0.45-14.933
				c1.965-5.294,7.229-6.305,11.987-7.926c7.854-2.677,15.14-3.537,23.418-3.323c5.961,0.153,11.905,0.727,17.871,0.586
				c7.043-0.166,14.127-1.628,21.107-2.499c12.203-1.523,27.683-2.637,33.651,10.321c3.872,8.405,3.534,20.697-4.691,26.216
				c-7.679,5.15-18.524,5.382-27.447,6.019c-14.537,1.037-29.016,1.254-43.54-0.096c-6.794-0.631-13.575-0.807-20.277-2.213
				c-6.356-1.334-11.863-1.095-18.326-1.223c0.169,0.328,0.338,0.657,0.506,0.985c1.636-1.432,2.753-3.496,4.684-4.57
				C9.125,38.035,7.903,37.069,6.855,37.652L6.855,37.652z"/>
		</g>
	</g>
	<g>
		<g>
			<path d="M19.05,18.824c1.169-0.701,2.335-1.399,3.597-1.922c0.288-0.119,0.935-0.55,0.585-0.931
				c-0.347-0.377-1.081-0.208-1.481-0.042c-1.434,0.593-2.769,1.387-4.097,2.182c-0.319,0.191-0.657,0.67-0.185,0.91
				C17.951,19.268,18.615,19.084,19.05,18.824L19.05,18.824z"/>
		</g>
	</g>
	<g>
		<g>
			<path d="M18.248,19.323c0.08,3.016,1.215,5.958,1.026,8.976c-0.072,1.156,2.195,0.831,2.258-0.172
				c0.19-3.039-0.945-5.953-1.026-8.976C20.475,17.982,18.222,18.332,18.248,19.323L18.248,19.323z"/>
		</g>
	</g>
	<g>
		<g>
			<path d="M19.699,23.15c1.402-0.018,2.934-0.408,3.785-1.612c0.3-0.424-0.253-0.573-0.582-0.571
				c-0.475,0.003-1.182,0.169-1.477,0.587c-0.06,0.083-0.118,0.183-0.191,0.255c0.002-0.002-0.287,0.193-0.166,0.14
				c0.171-0.077-0.185,0.041-0.032,0.013c-0.147,0.027-0.291,0.029-0.442,0.031c-0.494,0.006-1.156,0.174-1.477,0.587
				C18.795,22.995,19.39,23.154,19.699,23.15L19.699,23.15z"/>
		</g>
	</g>
	<g>
		<g>
			<path d="M20.138,24.803c0.468,0.38,1.041,0.452,1.628,0.455c0.503,0.002,1.168-0.167,1.471-0.61
				c0.299-0.436-0.25-0.657-0.605-0.659c-0.133,0-0.312,0.031-0.423-0.059c-0.402-0.327-1.038-0.209-1.477-0.024
				C20.515,23.997,19.734,24.476,20.138,24.803L20.138,24.803z"/>
		</g>
	</g>
	<g>
		<g>
			<path d="M24.808,21.795c1.621-0.037,3.347-0.742,4.137-2.224c0.213-0.4-0.794-0.316-0.914-0.297
				c-0.428,0.069-1.071,0.235-1.295,0.654c-0.256,0.479-0.597,0.846-0.992,0.854c-0.484,0.011-1.145,0.188-1.485,0.557
				C23.9,21.725,24.565,21.801,24.808,21.795L24.808,21.795z"/>
		</g>
	</g>
	<g>
		<g>
			<path d="M23.65,18.873c-0.156,1.31-0.346,2.918,0.768,3.872c1.021,0.876,2.752,0.842,4.007,0.941
				c-0.225-0.101-0.449-0.202-0.673-0.304c0.232,1.124,0.294,2.321,0.002,3.439c-0.2,0.768,2.036,0.426,2.225-0.297
				c0.313-1.197,0.251-2.538,0.002-3.74c-0.057-0.274-0.469-0.288-0.673-0.304c-0.966-0.077-2.2-0.063-2.977-0.729
				c-0.823-0.706-0.564-2.267-0.456-3.176C25.976,17.731,23.735,18.158,23.65,18.873L23.65,18.873z"/>
		</g>
	</g>
	<g>
		<g>
			<path d="M25.459,24.816c-0.268,1.292-0.576,2.715-1.283,3.847c-0.221,0.354,0.814,0.242,0.895,0.229
				c0.418-0.074,1.061-0.224,1.305-0.615c0.707-1.133,1.017-2.556,1.283-3.847C27.768,23.903,25.573,24.261,25.459,24.816
				L25.459,24.816z"/>
		</g>
	</g>
	<g>
		<g>
			<path d="M31.088,16.561c0.896,0.647,1.813,1.139,2.863,1.481c1.033,0.337,1.026,1.151,1.143,2.155
				c0.297,2.567,0.078,5.255,0.078,7.838c0,1.199,2.262,0.883,2.262-0.156c0-2.755,0.111-5.531-0.11-8.279
				c-0.251-3.108-2.372-2.798-4.524-4.354C31.969,14.646,30.035,15.799,31.088,16.561L31.088,16.561z"/>
		</g>
	</g>
	<g>
		<g>
			<path d="M31.512,22.131c1.093,0.252,2.209,0.277,3.325,0.278c0.498,0,1.164-0.171,1.475-0.599s-0.262-0.616-0.594-0.616
				c-0.957-0.001-1.893-0.018-2.829-0.233c-0.509-0.117-1.187,0.09-1.577,0.422C30.945,21.695,31.07,22.029,31.512,22.131
				L31.512,22.131z"/>
		</g>
	</g>
	<g>
		<g>
			<path d="M31.284,25.058c1.272,0.294,2.655,0.368,3.919-0.012c0.385-0.116,1.073-0.457,0.934-0.979
				c-0.136-0.505-0.912-0.496-1.297-0.381c-0.717,0.216-1.516,0.155-2.237-0.012c-0.541-0.125-1.183,0.009-1.576,0.422
				C30.697,24.441,30.787,24.943,31.284,25.058L31.284,25.058z"/>
		</g>
	</g>
	<g>
		<g>
			<path d="M15.838,31.814c7.627-0.073,15.201-1.188,22.824-1.281c0.689-0.008,2.418-1.067,0.924-1.049
				c-7.623,0.092-15.196,1.207-22.824,1.281C16.071,30.771,14.344,31.829,15.838,31.814L15.838,31.814z"/>
		</g>
	</g>
	<g>
		<g>
			<path d="M22.665,34.215c-0.236,0.849-0.759,1.421-1.474,1.909c-0.414,0.283-0.539,0.899-0.102,1.22
				c0.484,0.355,1.148,0.194,1.604-0.116c0.956-0.653,1.801-1.572,2.116-2.708C25.166,33.238,22.948,33.196,22.665,34.215
				L22.665,34.215z"/>
		</g>
	</g>
	<g>
		<g>
			<path d="M31.156,34.004c1.372,1.541,3.352,2.096,5.27,2.64c0.508,0.145,1.114-0.008,1.568-0.25
				c0.215-0.114,0.752-0.565,0.238-0.711c-1.83-0.521-3.68-1.019-4.988-2.489C32.81,32.705,30.699,33.489,31.156,34.004
				L31.156,34.004z"/>
		</g>
	</g>
	<g>
		<g>
			<path d="M46.264,16.027c-0.517,1.679-1.571,2.986-3.009,3.976c-0.396,0.271-0.563,0.854-0.116,1.165
				c0.479,0.333,1.153,0.175,1.599-0.132c1.681-1.155,3.055-2.775,3.661-4.743C48.781,15.05,46.559,15.07,46.264,16.027
				L46.264,16.027z"/>
		</g>
	</g>
	<g>
		<g>
			<path d="M42.516,24.147c5.82-0.239,11.928,0.406,17.541-1.465c1.495-0.499,0.104-1.048-0.832-0.736
				c-4.943,1.648-10.664,0.888-15.799,1.1C42.711,23.075,41.021,24.209,42.516,24.147L42.516,24.147z"/>
		</g>
	</g>
	<g>
		<g>
			<path d="M45.447,20.818c1.25,4.82,1.508,9.79,0.77,14.717c0.668-0.226,1.335-0.451,2.002-0.678
				c-0.789-0.258-1.509-0.652-2.16-1.181c-0.621-0.479-2.675,0.404-2.07,0.869c0.785,0.604,1.524,1.01,2.455,1.384
				c0.508,0.204,1.896,0.032,2.002-0.678c0.752-5.02,0.506-10.115-0.77-15.031C47.477,19.45,45.246,20.043,45.447,20.818
				L45.447,20.818z"/>
		</g>
	</g>
	<g>
		<g>
			<path d="M42.566,31.153c3.347-0.382,6.213-2.06,9.312-3.236c1.456-0.553,0.128-1.333-0.889-0.947
				c-2.688,1.021-5.226,2.588-8.126,2.918C41.768,30.013,41.023,31.329,42.566,31.153L42.566,31.153z"/>
		</g>
	</g>
	<g>
		<g>
			<path d="M51.346,17.484c0.652,5.276,2.19,16.924,9.188,17.427c0.518,0.037,1.487-0.219,1.517-0.888
				c0.063-1.391,0.109-2.676-0.014-4.058c-0.089-1.004-2.324-0.466-2.229,0.598c0.071,1.213,0.066,2.425-0.014,3.636
				c0.505-0.296,1.011-0.592,1.517-0.888c-5.819-0.419-7.193-12.032-7.737-16.425C53.449,15.875,51.214,16.425,51.346,17.484
				L51.346,17.484z"/>
		</g>
	</g>
	<g>
		<g>
			<path d="M57.861,25.986c-2.326,2.055-4.746,3.992-7.282,5.782c-0.918,0.647,1.315,0.349,1.709,0.07
				c2.642-1.864,5.17-3.875,7.593-6.017c0.389-0.343-0.342-0.385-0.527-0.37C58.852,25.492,58.248,25.645,57.861,25.986
				L57.861,25.986z"/>
		</g>
	</g>
	<g>
		<g>
			<path d="M56.058,17.17c0.478,0.742,0.804,1.566,1.282,2.309c0.564,0.875,2.684,0.006,2.037-0.996
				c-0.479-0.741-0.805-1.566-1.282-2.309C57.531,15.298,55.412,16.167,56.058,17.17L56.058,17.17z"/>
		</g>
	</g>
	<g>
		<g>
			<path d="M64.359,16.311c3.402,0.279,7.167-0.364,9.876-2.567c0.426-0.347-1.612-0.103-2.006,0.217
				c-1.724,1.402-3.864,1.713-6.024,1.536c-0.526-0.043-1.074,0.09-1.554,0.302C64.532,15.851,63.844,16.269,64.359,16.311
				L64.359,16.311z"/>
		</g>
	</g>
	<g>
		<g>
			<path d="M66.219,17.229c-0.018,2.908-0.238,5.811-0.256,8.719c-0.003,0.416,2.225,0.083,2.229-0.598
				c0.019-2.908,0.239-5.811,0.258-8.719C68.451,16.215,66.224,16.548,66.219,17.229L66.219,17.229z"/>
		</g>
	</g>
	<g>
		<g>
			<path d="M69.809,17.74c0.271,4.358,0.861,8.687,1.201,13.039c0.127,1.619-0.598,4.035,0.035,5.553
				c0.239,0.572,1.135,0.381,1.567,0.205c0.456-0.186,0.664-0.412,0.896-0.839c0.529-0.983-1.717-0.785-2.09-0.096
				c0.097-0.024,0.193-0.049,0.289-0.073c0.522,0.068,1.045,0.137,1.567,0.205c-0.597-1.43,0.063-3.959-0.034-5.553
				c-0.271-4.357-0.931-8.68-1.201-13.039C71.989,16.351,69.753,16.831,69.809,17.74L69.809,17.74z"/>
		</g>
	</g>
	<g>
		<g>
			<path d="M67.439,20.995c0.625,0.001,1.2,0.022,1.799,0.212c0.517,0.164,1.205-0.036,1.576-0.422
				c0.352-0.367,0.216-0.805-0.256-0.953c-0.758-0.24-1.515-0.302-2.305-0.302c-0.527-0.001-1.18,0.146-1.461,0.65
				C66.539,20.636,67.009,20.995,67.439,20.995L67.439,20.995z"/>
		</g>
	</g>
	<g>
		<g>
			<path d="M67.49,22.918c0.725,0.361,1.44,0.63,2.261,0.65c0.525,0.014,1.185-0.152,1.459-0.654
				c0.254-0.464-0.216-0.817-0.65-0.828c-0.493-0.013-0.892-0.156-1.329-0.375c-0.503-0.251-1.136-0.152-1.591,0.164
				C67.319,22.097,66.99,22.668,67.49,22.918L67.49,22.918z"/>
		</g>
	</g>
	<g>
		<g>
			<path d="M64.421,29.563c2.581-0.342,4.941-1.318,7.261-2.466c1.363-0.676,0.145-1.926-1-1.359
				c-1.934,0.957-3.917,1.863-6.075,2.149C63.36,28.053,62.907,29.765,64.421,29.563L64.421,29.563z"/>
		</g>
	</g>
	<g>
		<g>
			<path d="M75.961,14.492c-0.583,1.716-1.281,3.389-1.795,5.129c-0.056,0.189,0.087,0.353,0.237,0.436
				c1.034,0.573,2.017,0.408,3.095,0.041c0.337-0.114,1.087-0.401,0.953-0.902c-0.126-0.47-0.94-0.42-1.277-0.305
				c-0.42,0.143-0.579,0.279-1.009,0.041c0.079,0.145,0.158,0.29,0.237,0.436c0.513-1.74,1.211-3.414,1.795-5.131
				C78.479,13.41,76.23,13.701,75.961,14.492L75.961,14.492z"/>
		</g>
	</g>
	<g>
		<g>
			<path d="M76.75,19.694c-0.904,1.165-1.52,2.452-1.555,3.945c-0.01,0.421,1.61-0.095,1.753-0.165
				c1.141-0.557,2.216-1.12,3.025-2.129c-0.717,0.191-1.434,0.384-2.15,0.576c0.282,0.323,0.487,0.701,0.77,1.025
				c0.356,0.407,2.429-0.379,2.104-0.752c-0.282-0.322-0.487-0.701-0.77-1.025c-0.378-0.434-1.876,0.234-2.15,0.576
				c-0.56,0.699-1.32,1.077-2.105,1.461c0.584-0.055,1.169-0.11,1.753-0.165c0.034-1.422,0.666-2.644,1.523-3.748
				c0.241-0.312-0.836-0.206-0.888-0.197C77.619,19.178,77.039,19.322,76.75,19.694L76.75,19.694z"/>
		</g>
	</g>
	<g>
		<g>
			<path d="M81.106,14.296c-0.761,1.122-1.217,2.347-1.296,3.702c-0.008,0.144,0.331,0.178,0.398,0.18
				c1.861,0.056,3.324,0.289,4.808-1.06c-0.705,0.085-1.41,0.17-2.115,0.255c-0.807,1.913-1.487,3.838-1.795,5.898
				c-0.101,0.669,1.874,0.061,2.115-0.255c0.479-0.623,1.198-1.026,1.795-1.538c-0.688,0.152-1.374,0.304-2.062,0.456
				c0.658,0.365,1.235,0.778,1.796,1.281c0.464,0.416,2.483-0.43,2.096-0.777c-0.561-0.502-1.138-0.916-1.796-1.281
				c-0.578-0.321-1.604,0.063-2.062,0.456c-0.607,0.52-1.304,0.898-1.795,1.538c0.705-0.085,1.41-0.17,2.115-0.255
				c0.308-2.061,0.989-3.985,1.795-5.898c0.252-0.597-1.876,0.036-2.115,0.255c0.443,0.099,0.45,0.12,0.021,0.063
				c-0.54-0.049-1.015,0.147-0.891-0.654c0.153-0.988,0.636-1.923,1.189-2.74C83.505,13.634,81.482,13.74,81.106,14.296
				L81.106,14.296z"/>
		</g>
	</g>
	<g>
		<g>
			<path d="M74.752,26.879c-0.377,0.871-0.315,1.84-0.586,2.741c-0.114,0.38,0.428,0.558,0.697,0.555
				c1.298-0.016,2.756-0.136,3.953-0.681c0.3-0.138,0.929-0.565,0.576-0.963c-0.34-0.383-1.088-0.242-1.486-0.061
				c-0.111,0.047-0.112,0.052-0.004,0.014c-0.085,0.027-0.172,0.052-0.258,0.074c-0.162,0.044-0.326,0.078-0.491,0.106
				c-0.476,0.083-0.966,0.145-1.448,0.15c0.232,0.185,0.465,0.37,0.697,0.555c0.229-0.758,0.128-1.666,0.439-2.388
				C77.297,25.93,75.065,26.152,74.752,26.879L74.752,26.879z"/>
		</g>
	</g>
	<g>
		<g>
			<path d="M77.747,26.51c0,2.649,0,5.299,0,7.949c0,1.146,2.256,0.786,2.256-0.184c0-2.649,0-5.299,0-7.949
				C80.003,25.181,77.747,25.54,77.747,26.51L77.747,26.51z"/>
		</g>
	</g>
	<g>
		<g>
			<path d="M84.684,25.435c0.234,1.274,0.278,2.572,0.514,3.847c0.318-0.296,0.638-0.591,0.957-0.887
				c-0.9,0.221-1.82,0.424-2.75,0.442c-0.512,0.011-1.166,0.155-1.469,0.62c-0.283,0.436,0.238,0.703,0.615,0.696
				c1.331-0.026,2.628-0.268,3.918-0.583c0.367-0.09,1.047-0.402,0.957-0.887c-0.234-1.274-0.278-2.572-0.512-3.847
				C86.766,24.031,84.527,24.58,84.684,25.435L84.684,25.435z"/>
		</g>
	</g>
	<g>
		<g>
			<path d="M81.854,26.007c-0.21,2.659,0.221,5.295,0.256,7.951c0.016,1.102,2.262,0.704,2.25-0.205
				c-0.036-2.655-0.467-5.296-0.258-7.951C84.188,24.72,81.926,25.085,81.854,26.007L81.854,26.007z"/>
		</g>
	</g>
	<g>
		<g>
			<path d="M94.476,14.741c-1.203,2.03-2.106,4.188-3.714,5.95c-0.477,0.522-0.018,1.071,0.554,1.165
				c1.538,0.254,3.056,0.466,4.616,0.514c-0.185-0.388-0.369-0.776-0.555-1.165c-1.565,2.163-2.865,4.444-3.979,6.872
				c-0.456,0.995,1.021,1.018,1.566,0.809c1.746-0.669,3.345-1.626,4.86-2.714c1.23-0.884-0.58-1.697-1.486-1.047
				c-1.366,0.981-2.798,1.813-4.37,2.415c0.522,0.27,1.044,0.539,1.566,0.809c1.045-2.28,2.24-4.426,3.715-6.462
				c0.36-0.498,0.113-1.145-0.555-1.165c-1.561-0.049-3.077-0.261-4.616-0.514c0.185,0.388,0.37,0.776,0.554,1.165
				c1.723-1.887,2.689-4.185,3.979-6.36C97.255,13.928,94.983,13.885,94.476,14.741L94.476,14.741z"/>
		</g>
	</g>
	<g>
		<g>
			<path d="M96.926,26.099c0.931,0,2.337-1.412,0.828-1.412C96.823,24.687,95.417,26.099,96.926,26.099L96.926,26.099z"/>
		</g>
	</g>
	<g>
		<g>
			<path d="M96.225,25.435c0.296,0.532,0.598,1.062,0.912,1.583c0.117,0.195,0.243,0.486,0.43,0.628
				c0.348,0.263,0.791,0.248,1.2,0.138c0.328-0.088,0.904-0.325,0.971-0.73c0.146-0.896-2.104-0.511-2.232,0.27
				c-0.001,0.005-0.001,0.01-0.002,0.015c0.073-0.11,0.146-0.221,0.218-0.331c-0.002,0.002-0.004,0.003-0.006,0.005
				c0.525-0.141,1.051-0.281,1.576-0.422c-0.004-0.001-0.008-0.003-0.008-0.003c0.115,0.059,0.232,0.117,0.352,0.177
				c-0.293-0.222-0.487-0.72-0.668-1.028c-0.185-0.314-0.34-0.587-0.512-0.897C98.024,24.063,95.871,24.797,96.225,25.435
				L96.225,25.435z"/>
		</g>
	</g>
	<g>
		<g>
			<path d="M91.609,32.103c0.215,0.698,0.249,1.399,0.249,2.125c0.001,1.042,2.243,0.612,2.242-0.232
				c-0.001-0.843-0.013-1.679-0.263-2.49C93.564,30.615,91.341,31.23,91.609,32.103L91.609,32.103z"/>
		</g>
	</g>
	<g>
		<g>
			<path d="M94.686,31.076c0.277,0.849,0.492,1.716,0.77,2.564c0.329,1.004,2.553,0.389,2.23-0.598
				c-0.278-0.849-0.493-1.716-0.77-2.564C96.588,29.475,94.364,30.09,94.686,31.076L94.686,31.076z"/>
		</g>
	</g>
	<g>
		<g>
			<path d="M97.764,30.819c0.027,0.528,0.223,0.962,0.573,1.353c0.348,0.388,2.395-0.416,2.107-0.736
				c-0.298-0.331-0.429-0.779-0.452-1.214C99.975,29.895,97.732,30.255,97.764,30.819L97.764,30.819z"/>
		</g>
	</g>
	<g>
		<g>
			<path d="M100.829,14.461c-0.057,1.981-0.737,4.522-2.106,6.019c-0.939,1.028,1.212,1.29,1.85,0.594
				c1.559-1.705,2.444-4.532,2.509-6.806C103.113,13.148,100.855,13.516,100.829,14.461L100.829,14.461z"/>
		</g>
	</g>
	<g>
		<g>
			<path d="M101.806,18.434c1.838,0.215,3.622-0.475,5.413-0.772c-0.311-0.271-0.621-0.543-0.932-0.814
				c-1.409,3.179-3.848,5.836-6.273,8.279c-0.964,0.97,1.211,1.159,1.832,0.533c2.521-2.538,5.086-5.343,6.549-8.646
				c0.268-0.603-0.42-0.899-0.932-0.814c-1.563,0.26-3.26,0.951-4.845,0.767C101.623,16.849,100.3,18.258,101.806,18.434
				L101.806,18.434z"/>
		</g>
	</g>
	<g>
		<g>
			<path d="M99.547,20.866c3.492,2.403,7.9,2.405,11.752,3.938c0.847,0.338,2.605-0.878,1.316-1.391
				c-3.697-1.473-7.982-1.452-11.328-3.755C100.559,19.157,98.553,20.182,99.547,20.866L99.547,20.866z"/>
		</g>
	</g>
	<g>
		<g>
			<path d="M101.609,27.999c0.188,0.738,0.395,1.472,0.593,2.207c0.112,0.414,0.222,0.829,0.328,1.245
				c0.036,0.146,0.071,0.293,0.104,0.439c0.021,0.095,0.01,0.332,0.032,0.071c0.219-0.224,0.437-0.446,0.655-0.67
				c-0.002,0.001-0.005,0.003-0.008,0.004c0.499,0.031,0.997,0.062,1.495,0.093c-0.014-0.014-0.024-0.029-0.032-0.049
				c-0.417-0.751-2.57,0-2.055,0.928c0.007,0.019,0.018,0.034,0.031,0.049c0.348,0.399,1.076,0.287,1.495,0.094
				c0.002-0.002,0.005-0.003,0.007-0.004c0.252-0.116,0.627-0.353,0.655-0.67c0.05-0.573-0.244-1.247-0.389-1.789
				c-0.226-0.849-0.467-1.694-0.683-2.546C103.609,26.494,101.378,27.085,101.609,27.999L101.609,27.999z"/>
		</g>
	</g>
	<g>
		<g>
			<path d="M102.264,27.973c1.894-0.049,3.76-0.694,5.654-0.521c-0.137-0.073-0.273-0.147-0.41-0.222
				c-0.029,1.595-0.338,3.391-1.445,4.611c-0.354,0.39,0.303,0.501,0.561,0.492c0.498-0.018,1.135-0.183,1.482-0.566
				c1.259-1.386,1.598-3.32,1.633-5.135c0.002-0.157-0.319-0.214-0.41-0.222c-2.095-0.192-4.066,0.451-6.143,0.504
				c-0.488,0.013-1.146,0.182-1.482,0.566C101.357,27.875,101.998,27.979,102.264,27.973L102.264,27.973z"/>
		</g>
	</g>
	<g>
		<g>
			<path d="M102.299,32.98c2.105-0.029,4.348-0.534,6.418-0.033c0.752,0.183,2.637-0.951,1.352-1.262
				c-2.27-0.55-4.62-0.064-6.918-0.033c-0.514,0.008-1.169,0.155-1.469,0.622C101.4,32.714,101.918,32.985,102.299,32.98
				L102.299,32.98z"/>
		</g>
	</g>
</g>
</svg>
