<?xml version="1.0" encoding="utf-8"?>
<!-- Generator: Adobe Illustrator 16.0.3, SVG Export Plug-In . SVG Version: 6.00 Build 0)  -->
<!DOCTYPE svg PUBLIC "-//W3C//DTD SVG 1.1//EN" "http://www.w3.org/Graphics/SVG/1.1/DTD/svg11.dtd">
<svg version="1.1" id="人物著色" xmlns="http://www.w3.org/2000/svg" xmlns:xlink="http://www.w3.org/1999/xlink" x="0px"
	 y="0px" width="120px" height="59.666px" viewBox="0 0 120 59.666" enable-background="new 0 0 120 59.666" xml:space="preserve">
<g>
	<g>
		<path fill="#F6A136" d="M24.82,94.426c0,0-5.43-22.593,0-25.343s19.546,15.671,19.546,15.671S26.282,93.269,24.82,94.426z"/>
		<path fill="#FEEFD8" d="M28.072,87.707c0,0-2.734-11.378,0-12.763s9.844,7.892,9.844,7.892S28.809,87.124,28.072,87.707z"/>
		<path fill="#F6A136" d="M93.953,94.426c0,0,5.43-22.593,0-25.343S74.407,84.754,74.407,84.754S92.491,93.269,93.953,94.426z"/>
		<path fill="#FEEFD8" d="M90.701,87.707c0,0,2.734-11.378,0-12.763s-9.844,7.892-9.844,7.892S89.965,87.124,90.701,87.707z"/>
	</g>
	<path fill="#FAAF3B" d="M109.5,111.083c0,0-11.5,29.25-50,29.25c-35,0-50-29.25-50-29.25s14.5-29.25,50-29.25
		C93.5,81.833,109.5,111.083,109.5,111.083z"/>
	<g>
		<defs>
			<path id="SVGID_1_" d="M109.5,111.083c0,0-11.5,29.25-50,29.25c-35,0-50-29.25-50-29.25s14.5-29.25,50-29.25
				C93.5,81.833,109.5,111.083,109.5,111.083z"/>
		</defs>
		<clipPath id="SVGID_2_">
			<use xlink:href="#SVGID_1_"  overflow="visible"/>
		</clipPath>
		<ellipse clip-path="url(#SVGID_2_)" fill="#FDDFB1" cx="59.953" cy="137.333" rx="22.973" ry="30.501"/>
		<g clip-path="url(#SVGID_2_)">
			<g>
				<path fill="#F6921E" d="M51.381,77.968c0,5.5,0,11.001,0,16.501c0,1.075,3.498,0.414,3.498-0.938c0-5.5,0-11.001,0-16.501
					C54.879,75.955,51.381,76.616,51.381,77.968L51.381,77.968z"/>
			</g>
		</g>
		<g clip-path="url(#SVGID_2_)">
			<g>
				<path fill="#F6921E" d="M57.418,79.968c0,5.5,0,11.001,0,16.501c0,1.075,3.498,0.414,3.498-0.938c0-5.5,0-11.001,0-16.501
					C60.916,77.955,57.418,78.616,57.418,79.968L57.418,79.968z"/>
			</g>
		</g>
		<g clip-path="url(#SVGID_2_)">
			<g>
				<path fill="#F6921E" d="M63.455,77.968c0,5.5,0,11.001,0,16.501c0,1.075,3.498,0.414,3.498-0.938c0-5.5,0-11.001,0-16.501
					C66.953,75.955,63.455,76.616,63.455,77.968L63.455,77.968z"/>
			</g>
		</g>
	</g>
	<g>
		<g>
			<path d="M39.16,91.183c-0.543,0.564-0.868,1.186-0.888,1.979c-0.017,0.658,1.442,0.378,1.455-0.158
				c0.015-0.61,0.187-1.079,0.612-1.521c0.217-0.225,0.159-0.495-0.154-0.575C39.853,90.823,39.402,90.933,39.16,91.183
				L39.16,91.183z"/>
		</g>
	</g>
	<g>
		<g>
			<path d="M42.275,91.527c0.248,0.561,0.252,1.189,0.5,1.75c0.244,0.549,1.67,0.109,1.449-0.389c-0.248-0.561-0.252-1.189-0.5-1.75
				C43.48,90.59,42.055,91.029,42.275,91.527L42.275,91.527z"/>
		</g>
	</g>
	<g>
		<g>
			<path d="M76.16,91.183c-0.543,0.564-0.868,1.186-0.888,1.979c-0.017,0.658,1.442,0.378,1.455-0.158
				c0.015-0.61,0.187-1.079,0.612-1.521c0.217-0.225,0.159-0.495-0.154-0.575C76.853,90.823,76.402,90.933,76.16,91.183
				L76.16,91.183z"/>
		</g>
	</g>
	<g>
		<g>
			<path d="M79.275,91.527c0.248,0.561,0.252,1.189,0.5,1.75c0.244,0.549,1.67,0.109,1.449-0.389c-0.248-0.561-0.252-1.189-0.5-1.75
				C80.48,90.59,79.055,91.029,79.275,91.527L79.275,91.527z"/>
		</g>
	</g>
	<g>
		<circle fill="#FBED21" cx="42.146" cy="101.841" r="4.78"/>
		<circle cx="43.131" cy="102.067" r="3.137"/>
	</g>
	<g>
		<circle fill="#FBED21" cx="77.146" cy="101.841" r="4.78"/>
		<circle cx="78.131" cy="102.067" r="3.137"/>
	</g>
	<path fill="none" stroke="#F6A136" stroke-miterlimit="10" d="M59.25,113.958c0,0,0.625,8.25-6.25,5"/>
	<path fill="none" stroke="#F6A136" stroke-miterlimit="10" d="M60.016,113.958c0,0-0.625,8.25,6.25,5"/>
	<path fill="#FAAF3B" d="M57.113,112.573c0,1.48,1.201,2.385,2.682,2.385s2.684-0.904,2.684-2.385c0-1.481-1.203-1.49-2.684-1.49
		S57.113,111.092,57.113,112.573z"/>
	<g>
		<g>
			<g>
				<path d="M64.373,105.596c1.942-1.417,3.478,1.859,3.689,3.357c0.161,1.137-0.333,2.325-1.113,3.127
					c-1.152,1.186-2.856,0.784-3.979-0.177c-2.85-2.438,0.573-8.669,3.785-5.631c0.189,0.179,0.866-0.096,0.666-0.285
					c-4.201-3.973-9.442,5.013-3.596,7.092c2.58,0.918,5.127-1.529,4.968-4.088c-0.146-2.349-2.41-5.414-4.87-3.62
					C63.531,105.657,64.143,105.764,64.373,105.596L64.373,105.596z"/>
			</g>
		</g>
		<g>
			<g>
				<path d="M54.111,105.699c1.943-1.416,3.478,1.858,3.689,3.357c0.161,1.137-0.333,2.325-1.113,3.127
					c-1.153,1.187-2.857,0.783-3.98-0.177c-2.849-2.438,0.576-8.668,3.789-5.631c0.189,0.179,0.866-0.096,0.666-0.285
					c-4.204-3.972-9.443,5.011-3.598,7.092c2.58,0.918,5.127-1.529,4.968-4.088c-0.146-2.35-2.41-5.412-4.87-3.62
					C53.27,105.761,53.881,105.867,54.111,105.699L54.111,105.699z"/>
			</g>
		</g>
		<g>
			<g>
				<path d="M59.215,109.993c0.402-0.634,0.952-0.497,1.402,0.012c0.182,0.206,0.868-0.061,0.662-0.293
					c-0.796-0.901-2.098-0.767-2.738,0.242C58.348,110.258,59.076,110.213,59.215,109.993L59.215,109.993z"/>
			</g>
		</g>
	</g>
	<g>
		<g>
			<g>
				<path fill="#F6A136" d="M47.712,104.711c-0.485,0.969-0.978,1.93-1.62,2.805c-0.819,1.115,1.231,1.431,1.816,0.635
					c0.738-1.004,1.324-2.084,1.88-3.195c0.244-0.488-0.215-0.855-0.661-0.908C48.605,103.985,47.959,104.218,47.712,104.711
					L47.712,104.711z"/>
			</g>
		</g>
		<g>
			<g>
				<path fill="#F6A136" d="M42.23,111.031c-0.541,0.854-0.811,1.845-1.25,2.75c-0.485,1,1.699,0.804,2.039,0.104
					c0.439-0.904,0.71-1.897,1.25-2.75c0.282-0.445-0.238-0.698-0.61-0.718C43.16,110.392,42.513,110.586,42.23,111.031
					L42.23,111.031z"/>
			</g>
		</g>
		<g>
			<g>
				<path fill="#F6A136" d="M39.011,109.146c-0.792,0.82-1.327,1.837-2,2.75c-0.28,0.381,0.243,0.426,0.527,0.408
					c0.421-0.026,1.177-0.161,1.451-0.533c0.671-0.91,1.211-1.932,2-2.75c0.349-0.361-0.304-0.422-0.527-0.408
					C39.988,108.642,39.354,108.789,39.011,109.146L39.011,109.146z"/>
			</g>
		</g>
		<g>
			<g>
				<path fill="#F6A136" d="M34.279,107.733c-1.141,0.578-2.146,1.286-2.931,2.31c-0.833,1.085,1.233,1.322,1.803,0.58
					c0.573-0.746,1.232-1.268,2.069-1.69c0.354-0.18,0.866-0.635,0.527-1.066C35.424,107.452,34.691,107.525,34.279,107.733
					L34.279,107.733z"/>
			</g>
		</g>
		<g>
			<g>
				<path fill="#F6A136" d="M29.426,103.488c1.284-0.341,2.456-0.952,3.524-1.736c0.327-0.24,0.615-0.724,0.149-1.001
					c-0.448-0.268-1.147-0.132-1.55,0.163c-0.762,0.56-1.557,1.02-2.476,1.264c-0.374,0.1-1.044,0.449-0.911,0.946
					C28.297,103.623,29.051,103.588,29.426,103.488L29.426,103.488z"/>
			</g>
		</g>
		<g>
			<g>
				<path fill="#F6A136" d="M33.21,94.41c-1.155,0.031-2.238,0.342-3.328,0.704c-0.079,0.026-0.979,0.391-0.657,0.581
					c0.364,0.217,1.039-0.026,1.394-0.144c0.378-0.126,0.769-0.285,1.172-0.296c0.523-0.014,1.083-0.142,1.536-0.412
					C33.666,94.642,33.631,94.398,33.21,94.41L33.21,94.41z"/>
			</g>
		</g>
		<g>
			<g>
				<path fill="#F6A136" d="M27.442,98.539c-1.777,0.027-3.322,0.771-4.022,2.452c-0.182,0.435,0.734,0.388,0.91,0.362
					c0.417-0.062,1.068-0.242,1.25-0.679c0.146-0.352,0.319-0.714,0.612-0.967c0.071-0.063,0.263-0.123,0.055-0.061
					c-0.103,0.015-0.083,0.012,0.06-0.011c-0.107,0.018,0.297-0.011,0.251-0.01c0.479-0.008,1.125-0.174,1.442-0.563
					C28.324,98.666,27.725,98.535,27.442,98.539L27.442,98.539z"/>
			</g>
		</g>
		<g>
			<g>
				<path fill="#F6A136" d="M20.832,99.431c-1.16,0.428-2.08,1.353-2.415,2.551c-0.201,0.718,1.973,0.395,2.166-0.297
					c0.165-0.588,0.524-1.243,1.085-1.449c0.228-0.084,0.937-0.485,0.595-0.815C21.916,99.085,21.211,99.291,20.832,99.431
					L20.832,99.431z"/>
			</g>
		</g>
		<g>
			<g>
				<path fill="#F6A136" d="M22.397,103.726c-0.853,0.608-1.391,1.546-1.727,2.521c-0.205,0.594,1.938,0.313,2.158-0.326
					c0.257-0.741,0.618-1.513,1.273-1.979c0.36-0.257,0.253-0.573-0.168-0.627C23.413,103.248,22.821,103.423,22.397,103.726
					L22.397,103.726z"/>
			</g>
		</g>
		<g>
			<g>
				<path fill="#F6A136" d="M27.136,106.431c-0.781,0.548-1.339,1.326-2,2c-0.301,0.307-0.287,0.632,0.192,0.716
					c0.471,0.083,1.188-0.057,1.536-0.411c0.658-0.672,1.225-1.457,2-2c0.384-0.269,0.219-0.644-0.192-0.716
					C28.131,105.924,27.573,106.124,27.136,106.431L27.136,106.431z"/>
			</g>
		</g>
		<g>
			<g>
				<path fill="#F6A136" d="M13.68,107.528c-0.511,0.78-0.945,1.618-1.25,2.5c-0.125,0.359,0.729,0.216,0.864,0.19
					c0.308-0.056,1.149-0.215,1.276-0.581c0.306-0.883,0.74-1.721,1.25-2.5c0.211-0.322-0.797-0.203-0.864-0.19
					C14.558,107.02,13.921,107.159,13.68,107.528L13.68,107.528z"/>
			</g>
		</g>
		<g>
			<g>
				<path fill="#F6A136" d="M14.006,114.313c0.903,1.149,2.171,1.906,3.406,2.648c0.479,0.287,1.121,0.198,1.559-0.13
					c0.346-0.26,0.59-0.842,0.117-1.126c-1.107-0.665-2.283-1.321-3.094-2.352C15.382,112.574,13.313,113.433,14.006,114.313
					L14.006,114.313z"/>
			</g>
		</g>
		<g>
			<g>
				<path fill="#F6A136" d="M16.663,110.874c0.598,0.873,1.37,1.581,2.311,2.069c0.381,0.198,1.026-0.02,1.393-0.147
					c0.063-0.022,0.987-0.403,0.66-0.573c-0.886-0.461-1.625-1.106-2.189-1.931C18.49,109.785,16.524,110.671,16.663,110.874
					L16.663,110.874z"/>
			</g>
		</g>
		<g>
			<g>
				<path fill="#F6A136" d="M23.48,113.968c0.803,0.774,1.81,1.279,2.884,1.563c0.488,0.129,1.088-0.038,1.524-0.259
					c0.195-0.099,0.741-0.507,0.247-0.638c-0.993-0.262-1.874-0.721-2.616-1.437C25.076,112.771,23.074,113.576,23.48,113.968
					L23.48,113.968z"/>
			</g>
		</g>
		<g>
			<g>
				<path fill="#F6A136" d="M20.413,121.624c0.563,1.099,1.332,2.066,2.312,2.822c0.313,0.241,1.086-0.031,1.395-0.141
					c0.11-0.039,0.953-0.357,0.656-0.586c-0.935-0.722-1.651-1.63-2.188-2.678C22.324,120.53,20.255,121.315,20.413,121.624
					L20.413,121.624z"/>
			</g>
		</g>
		<g>
			<g>
				<path fill="#F6A136" d="M24.758,120.323c0.934,1.187,2.244,1.956,3.623,2.523c0.971,0.398,2.531-0.996,1.238-1.527
					c-1.088-0.446-2.14-1.039-2.877-1.977C26.097,118.522,24.039,119.408,24.758,120.323L24.758,120.323z"/>
			</g>
		</g>
		<g>
			<g>
				<path fill="#F6A136" d="M30.913,115.374c0.038,0.783,0.549,1.352,1.077,1.881c0.529,0.531,2.585-0.277,2.02-0.844
					c-0.475-0.477-0.89-0.914-0.923-1.619C33.055,114.112,30.874,114.55,30.913,115.374L30.913,115.374z"/>
			</g>
		</g>
		<g>
			<g>
				<path fill="#F6A136" d="M36.623,117.688c-1.255,0.663-2.136,1.681-2.445,3.086c-0.108,0.493,2.025,0.158,2.145-0.381
					c0.202-0.92,0.68-1.951,1.555-2.414c0.166-0.087,0.759-0.454,0.266-0.568C37.674,117.302,37.037,117.468,36.623,117.688
					L36.623,117.688z"/>
			</g>
		</g>
		<g>
			<g>
				<path fill="#F6A136" d="M33.671,125.996c-0.243,0.958-0.491,1.884-0.508,2.878c-0.009,0.513,2.161,0.161,2.174-0.582
					c0.015-0.9,0.272-1.756,0.492-2.622C35.994,125.021,33.832,125.358,33.671,125.996L33.671,125.996z"/>
			</g>
		</g>
		<g>
			<g>
				<path fill="#F6A136" d="M25.506,127.813c1.061,1.047,2.219,2.002,3.407,2.899c0.774,0.585,2.675-0.503,1.674-1.258
					c-1.069-0.809-2.137-1.658-3.093-2.601c-0.398-0.394-0.983-0.402-1.477-0.165C25.689,126.847,25.106,127.419,25.506,127.813
					L25.506,127.813z"/>
			</g>
		</g>
		<g>
			<g>
				<path fill="#F6A136" d="M34.409,105.648c0.25,0,0.5,0,0.75,0c0.483,0,1.135-0.368,1.193-0.893
					c0.063-0.574-0.573-0.738-1.012-0.738c-0.25,0-0.5,0-0.75,0c-0.483,0-1.135,0.368-1.193,0.893
					C33.334,105.484,33.971,105.648,34.409,105.648L34.409,105.648z"/>
			</g>
		</g>
		<g>
			<g>
				<path fill="#F6A136" d="M69.505,105.311c0.521,1.04,1.06,2.061,1.75,3c0.582,0.792,2.653-0.053,1.99-0.955
					c-0.69-0.939-1.229-1.96-1.75-3C71.065,103.497,68.994,104.29,69.505,105.311L69.505,105.311z"/>
			</g>
		</g>
		<g>
			<g>
				<path fill="#F6A136" d="M74.995,111.523c0.508,0.802,0.755,1.75,1.168,2.601c0.393,0.809,2.521,0.132,2.174-0.582
					c-0.466-0.959-0.759-1.995-1.332-2.899C76.579,109.971,74.475,110.702,74.995,111.523L74.995,111.523z"/>
			</g>
		</g>
		<g>
			<g>
				<path fill="#F6A136" d="M78.229,109.464c0.789,0.817,1.329,1.839,2,2.75c0.326,0.442,2.409-0.264,2.043-0.762
					c-0.673-0.912-1.209-1.929-2-2.75C79.859,108.275,77.842,109.063,78.229,109.464L78.229,109.464z"/>
			</g>
		</g>
		<g>
			<g>
				<path fill="#F6A136" d="M83.656,108.938c0.935,0.473,1.705,1.026,2.346,1.861c0.57,0.743,2.648-0.084,1.996-0.934
					c-0.717-0.935-1.61-1.61-2.654-2.139c-0.496-0.251-1.104-0.178-1.555,0.146C83.473,108.102,83.164,108.689,83.656,108.938
					L83.656,108.938z"/>
			</g>
		</g>
		<g>
			<g>
				<path fill="#F6A136" d="M90.645,102.164c-1.034-0.274-1.937-0.782-2.795-1.413c-0.683-0.501-2.645,0.471-1.699,1.164
					c0.972,0.714,2.036,1.276,3.205,1.587c0.518,0.138,1.162-0.022,1.537-0.411C91.224,102.747,91.117,102.289,90.645,102.164
					L90.645,102.164z"/>
			</g>
		</g>
		<g>
			<g>
				<path fill="#F6A136" d="M86.04,95.256c0.711,0.02,1.395,0.261,2.063,0.483c0.436,0.145,1.126-0.111,1.516-0.288
					c0.209-0.095,0.72-0.378,0.277-0.524c-0.801-0.267-1.586-0.494-2.437-0.517c-0.511-0.014-1.099,0.151-1.536,0.412
					C85.567,95.034,85.635,95.245,86.04,95.256L86.04,95.256z"/>
			</g>
		</g>
		<g>
			<g>
				<path fill="#F6A136" d="M91.808,99.627c0.952,0.014,1.511,0.669,1.855,1.497c0.278,0.668,2.411-0.013,2.174-0.582
					c-0.24-0.577-0.563-1.125-1.086-1.486c-0.603-0.417-1.345-0.506-2.059-0.517c-0.474-0.007-1.132,0.182-1.442,0.563
					C90.922,99.505,91.529,99.622,91.808,99.627L91.808,99.627z"/>
			</g>
		</g>
		<g>
			<g>
				<path fill="#F6A136" d="M97.129,100.336c0.798,0.293,1.311,0.987,1.534,1.788c0.197,0.704,2.368,0.114,2.174-0.582
					c-0.279-0.998-0.981-1.85-1.966-2.212c-0.486-0.179-1.1-0.031-1.535,0.221C97.087,99.694,96.637,100.154,97.129,100.336
					L97.129,100.336z"/>
			</g>
		</g>
		<g>
			<g>
				<path fill="#F6A136" d="M94.983,104.231c0.728,0.52,1.145,1.314,1.43,2.143c0.223,0.646,2.377,0.007,2.174-0.582
					c-0.308-0.891-0.788-1.8-1.57-2.357c-0.384-0.273-1.024-0.106-1.42,0.049C95.449,103.541,94.606,103.962,94.983,104.231
					L94.983,104.231z"/>
			</g>
		</g>
		<g>
			<g>
				<path fill="#F6A136" d="M90.238,106.998c0.778,0.546,1.34,1.327,2,2c0.507,0.518,2.562-0.282,2.023-0.83
					c-0.66-0.674-1.221-1.454-2-2c-0.409-0.287-0.998-0.173-1.432,0.004C90.66,106.242,89.833,106.714,90.238,106.998
					L90.238,106.998z"/>
			</g>
		</g>
		<g>
			<g>
				<path fill="#F6A136" d="M103.413,107.624c0.511,0.78,0.945,1.618,1.25,2.5c0.171,0.492,2.319-0.162,2.174-0.582
					c-0.306-0.882-0.74-1.72-1.25-2.5C105.244,106.518,103.253,107.379,103.413,107.624L103.413,107.624z"/>
			</g>
		</g>
		<g>
			<g>
				<path fill="#F6A136" d="M103.34,113.511c-0.744,0.947-1.802,1.567-2.821,2.18c-0.364,0.219-0.86,0.658-0.513,1.122
					c0.309,0.413,1.068,0.407,1.476,0.163c1.324-0.795,2.708-1.587,3.679-2.82C106.016,113.066,103.954,112.73,103.34,113.511
					L103.34,113.511z"/>
			</g>
		</g>
		<g>
			<g>
				<path fill="#F6A136" d="M100.431,110.784c-0.522,0.763-1.185,1.365-2.006,1.792c-0.375,0.195-0.276,0.422,0.114,0.425
					c0.531,0.005,1.069-0.169,1.536-0.411c1.006-0.522,1.854-1.272,2.494-2.208c0.208-0.304-0.8-0.177-0.858-0.166
					C101.317,110.29,100.678,110.424,100.431,110.784L100.431,110.784z"/>
			</g>
		</g>
		<g>
			<g>
				<path fill="#F6A136" d="M93.759,113.638c-0.531,0.512-1.15,0.868-1.863,1.056c-0.214,0.057-1.081,0.313-0.982,0.681
					c0.1,0.37,0.977,0.155,1.191,0.099c1.352-0.357,2.624-0.968,3.637-1.944c0.37-0.357-0.321-0.44-0.532-0.429
					C94.714,113.127,94.125,113.285,93.759,113.638L93.759,113.638z"/>
			</g>
		</g>
		<g>
			<g>
				<path fill="#F6A136" d="M96.68,121.531c-0.531,1.037-1.234,1.932-2.16,2.646c-0.4,0.31,0.355,0.336,0.504,0.322
					c0.5-0.048,1.054-0.199,1.457-0.51c0.988-0.764,1.771-1.745,2.34-2.854c0.172-0.336-0.771-0.196-0.861-0.18
					C97.605,121.021,96.869,121.163,96.68,121.531L96.68,121.531z"/>
			</g>
		</g>
		<g>
			<g>
				<path fill="#F6A136" d="M92.582,119.481c-0.728,0.926-1.752,1.479-2.824,1.919c-0.426,0.175-0.813,0.737-0.5,1.173
					c0.341,0.473,1.023,0.382,1.484,0.192c1.395-0.572,2.733-1.383,3.676-2.581c0.32-0.408,0.193-0.926-0.299-1.115
					C93.609,118.875,92.922,119.049,92.582,119.481L92.582,119.481z"/>
			</g>
		</g>
		<g>
			<g>
				<path fill="#F6A136" d="M86.164,115.223c-0.029,0.623-0.359,1.017-0.783,1.441c-0.311,0.312-0.271,0.658,0.201,0.75
					c0.482,0.094,1.181-0.055,1.537-0.412c0.578-0.579,1.176-1.195,1.217-2.059C88.377,114.064,86.198,114.516,86.164,115.223
					L86.164,115.223z"/>
			</g>
		</g>
		<g>
			<g>
				<path fill="#F6A136" d="M80.977,118.204c1.054,0.557,1.684,1.52,1.937,2.67c0.104,0.476,2.288-0.062,2.174-0.582
					c-0.264-1.198-0.966-2.25-2.063-2.83c-0.396-0.209-1.015-0.018-1.4,0.121C81.551,117.61,80.623,118.017,80.977,118.204
					L80.977,118.204z"/>
			</g>
		</g>
		<g>
			<g>
				<path fill="#F6A136" d="M83.413,126.124c0.231,0.912,0.484,1.803,0.5,2.75c0.009,0.531,2.186,0.153,2.174-0.582
					c-0.016-0.948-0.269-1.838-0.5-2.75C85.428,124.914,83.252,125.486,83.413,126.124L83.413,126.124z"/>
			</g>
		</g>
		<g>
			<g>
				<path fill="#F6A136" d="M91.84,127.01c-0.946,0.933-2.002,1.773-3.062,2.573c-0.367,0.277-0.564,0.819-0.115,1.129
					c0.453,0.313,1.143,0.185,1.559-0.129c1.198-0.906,2.368-1.871,3.438-2.927c0.371-0.366,0.164-0.899-0.283-1.059
					C92.829,126.403,92.235,126.619,91.84,127.01L91.84,127.01z"/>
			</g>
		</g>
		<g>
			<g>
				<path fill="#F6A136" d="M84.841,104.018c-0.25,0-0.5,0-0.75,0c-0.483,0-1.135,0.368-1.193,0.893
					c-0.063,0.574,0.573,0.738,1.012,0.738c0.25,0,0.5,0,0.75,0c0.483,0,1.135-0.368,1.193-0.893
					C85.916,104.182,85.279,104.018,84.841,104.018L84.841,104.018z"/>
			</g>
		</g>
	</g>
	<g>
		<g>
			<path fill="#FFFFFF" d="M7.615,118.766c7.354-2.197,15.641-2.37,23.005,0.037c0.564,0.185,2.53-0.688,1.76-0.939
				c-8.003-2.616-17.003-2.351-24.995,0.037C6.118,118.279,6.337,119.147,7.615,118.766L7.615,118.766z"/>
		</g>
	</g>
	<g>
		<g>
			<path fill="#FFFFFF" d="M8.699,129.373c6.498-3.82,14.387-5.986,21.983-5.392c0.557,0.043,2.526-0.933,1.373-1.023
				c-8.494-0.664-17.366,1.679-24.653,5.962C6.145,129.659,8.106,129.722,8.699,129.373L8.699,129.373z"/>
		</g>
	</g>
	<g>
		<g>
			<path fill="#FFFFFF" d="M113.38,117.863c-8.13-2.429-17.165-2.522-25.28,0.13c-1.463,0.479-0.097,0.973,0.801,0.68
				c7.253-2.371,15.5-2.027,22.72,0.13C112.188,118.973,114.145,118.092,113.38,117.863L113.38,117.863z"/>
		</g>
	</g>
	<g>
		<g>
			<path fill="#FFFFFF" d="M112.967,128.751c-7.066-4.154-15.641-6.446-23.888-5.802c-0.664,0.053-2.343,1.153-0.896,1.041
				c7.85-0.614,16.022,1.598,22.749,5.552C111.524,129.89,113.398,129.005,112.967,128.751L112.967,128.751z"/>
		</g>
	</g>
	<g>
		<g>
			<g>
				<path fill="#F8DAAC" d="M48.63,115.159c-1.056,0.791-2.079,1.603-2.891,2.654c-0.323,0.418,0.271,0.624,0.587,0.631
					c0.506,0.01,1.115-0.177,1.435-0.592c0.722-0.935,1.672-1.642,2.609-2.346c0.378-0.283,0.216-0.676-0.204-0.76
					C49.628,114.639,49.057,114.838,48.63,115.159L48.63,115.159z"/>
			</g>
		</g>
		<g>
			<g>
				<path fill="#F8DAAC" d="M49.669,118.24c-0.477,1.177-1.023,2.323-1.5,3.5c-0.238,0.589,1.898,0.336,2.162-0.314
					c0.477-1.177,1.023-2.323,1.5-3.5C52.069,117.337,49.933,117.59,49.669,118.24L49.669,118.24z"/>
			</g>
		</g>
		<g>
			<g>
				<path fill="#F8DAAC" d="M41.646,124.408c-0.016,0.947-0.268,1.838-0.5,2.75c-0.139,0.547,0.631,0.775,1.015,0.749
					c0.552-0.038,1.053-0.352,1.192-0.899c0.23-0.912,0.484-1.802,0.5-2.75C43.872,123.087,41.664,123.389,41.646,124.408
					L41.646,124.408z"/>
			</g>
		</g>
		<g>
			<g>
				<path fill="#F8DAAC" d="M45.408,126.701c0.001,1.477-0.012,2.966,0.255,4.423c0.154,0.838,2.335,0.298,2.174-0.582
					c-0.247-1.347-0.245-2.713-0.245-4.077C47.592,125.47,45.408,125.9,45.408,126.701L45.408,126.701z"/>
			</g>
		</g>
		<g>
			<g>
				<path fill="#F8DAAC" d="M52.406,124.19c-0.24,1.27-0.203,2.468,0.257,3.684c0.335,0.885,2.492,0.259,2.174-0.582
					c-0.423-1.118-0.463-2.148-0.243-3.316C54.779,122.998,52.568,123.326,52.406,124.19L52.406,124.19z"/>
			</g>
		</g>
		<g>
			<g>
				<path fill="#F8DAAC" d="M58.663,123.874c0,1.667,0,3.334,0,5c0,0.327,2.174,0.022,2.174-0.582c0-1.667,0-3.334,0-5
					C60.837,122.965,58.663,123.27,58.663,123.874L58.663,123.874z"/>
			</g>
		</g>
		<g>
			<g>
				<path fill="#F8DAAC" d="M55.163,133.374c0.019,1.301,0.283,2.538,0.75,3.75c0.218,0.564,2.354-0.114,2.174-0.582
					c-0.468-1.212-0.731-2.45-0.75-3.75C57.33,132.372,55.154,132.716,55.163,133.374L55.163,133.374z"/>
			</g>
		</g>
		<g>
			<g>
				<path fill="#F8DAAC" d="M50.152,134.929c0,0.789-0.065,1.708,0.261,2.445c0.216,0.488,0.812,0.528,1.273,0.404
					c0.334-0.089,1.114-0.504,0.9-0.986c-0.28-0.633-0.239-1.378-0.239-2.055C52.347,133.647,50.152,134.018,50.152,134.929
					L50.152,134.929z"/>
			</g>
		</g>
		<g>
			<g>
				<path fill="#F8DAAC" d="M40.413,134.124c0.019,1.006,0.231,1.994,0.25,3c0.012,0.621,2.188,0.215,2.174-0.582
					c-0.019-1.006-0.231-1.994-0.25-3C42.575,132.921,40.398,133.327,40.413,134.124L40.413,134.124z"/>
			</g>
		</g>
		<g>
			<g>
				<path fill="#F8DAAC" d="M60.913,132.624c0,1.211-0.026,2.41-0.247,3.604c-0.146,0.793,2.037,0.416,2.168-0.289
					c0.238-1.289,0.252-2.59,0.253-3.896C63.087,131.414,60.914,131.812,60.913,132.624L60.913,132.624z"/>
			</g>
		</g>
		<g>
			<g>
				<path fill="#F8DAAC" d="M65.663,127.374c0.208,1.102,0.241,2.195,0.241,3.313c0.001,1.059,2.191,0.665,2.191-0.207
					c-0.001-1.239-0.028-2.466-0.259-3.688C67.665,125.882,65.485,126.432,65.663,127.374L65.663,127.374z"/>
			</g>
		</g>
		<g>
			<g>
				<path fill="#F8DAAC" d="M67.482,119.977c0.738,0.766,1.209,1.706,1.681,2.647c0.314,0.629,2.409-0.11,2.174-0.582
					c-0.507-1.012-1.026-2.03-1.819-2.853C69.074,118.729,67.037,119.515,67.482,119.977L67.482,119.977z"/>
			</g>
		</g>
		<g>
			<g>
				<path fill="#F8DAAC" d="M67.723,114.69c1.506,1.037,2.674,2.428,3.69,3.934c0.334,0.494,2.301-0.395,2.174-0.582
					c-1.048-1.551-2.259-2.997-3.81-4.066c-0.322-0.222-1.076,0.05-1.391,0.158C68.298,114.165,67.43,114.488,67.723,114.69
					L67.723,114.69z"/>
			</g>
		</g>
		<g>
			<g>
				<path fill="#F8DAAC" d="M73.663,124.374c0.524,1.05,1.003,2.098,1.25,3.25c0.179,0.831,2.358,0.275,2.174-0.582
					c-0.248-1.153-0.726-2.201-1.25-3.25C75.434,122.984,73.31,123.665,73.663,124.374L73.663,124.374z"/>
			</g>
		</g>
		<g>
			<g>
				<path fill="#F8DAAC" d="M69.663,128.624c0.248,1.322,0.291,2.672,0.5,4c0.095,0.603,2.282,0.107,2.174-0.582
					c-0.21-1.328-0.253-2.678-0.5-4C71.722,127.429,69.537,127.948,69.663,128.624L69.663,128.624z"/>
			</g>
		</g>
		<g>
			<g>
				<path fill="#F8DAAC" d="M76.663,132.124c0.292,0.895,0.485,1.808,0.5,2.75c0.01,0.603,2.187,0.203,2.174-0.582
					c-0.016-0.943-0.209-1.855-0.5-2.75C78.609,130.843,76.448,131.464,76.663,132.124L76.663,132.124z"/>
			</g>
		</g>
		<g>
			<g>
				<path fill="#F8DAAC" d="M66.906,135.691c0,0.75,0,1.5,0,2.25c0,1.038,2.188,0.633,2.188-0.217c0-0.75,0-1.5,0-2.25
					C69.094,134.437,66.906,134.842,66.906,135.691L66.906,135.691z"/>
			</g>
		</g>
		<g>
			<g>
				<path fill="#F8DAAC" d="M71.896,136.156c0,0.166,0,0.333,0,0.5c0,1.18,2.207,0.881,2.207-0.146c0-0.166,0-0.333,0-0.5
					C74.104,134.83,71.896,135.129,71.896,136.156L71.896,136.156z"/>
			</g>
		</g>
	</g>
	<g>
		<g>
			<path fill="#8B6239" d="M40.756,78.411c1.405-9.769,18.96-3.396,29.698-5.073c7.018-1.097,8.308,3.06,7.937,5.837
				c-0.966,8.472-37.837,10.743-37.535-1.504"/>
		</g>
		<g>
			<path fill="#7A5B39" d="M47.698,77.063c0.421-1.425,2.913-2.479,7.381-2.289c8.778,0.376,15.452-1.246,14.61,1.429
				c-1.031,3.285-6.164,3.156-11.447,3.192c-5.352,0.037-10.844,0.198-10.449-2.68"/>
		</g>
		<g>
			<path fill="#8B6239" d="M58.485,77.158c-0.484-1.247,1.563-8.771,4.032-8.423c3.461-0.104-2.88,8.389-3.711,9.254"/>
		</g>
	</g>
</g>
<g>
	<g>
		<path fill="#FDF47A" d="M59.55,58.497c-3.108-4.44-3.996-9.77-7.993-11.545c-3.552-1.332-10.656,0-14.208,0
			c-8.881,0.443-18.649,3.552-27.086-2.221c-6.217-4.884-9.77-21.313-7.104-28.861C6.266,8.321,22.695,3.437,30.688,2.549
			c16.873-1.776,34.19,1.332,51.063,0.444c9.325-0.444,18.649-4.885,25.754,2.664c7.549,7.549,15.097,22.646,6.217,31.526
			c-7.104,7.104-19.094,7.992-28.418,8.437c-4.44,0.443-10.213,0-14.209,0.888c-7.104,1.776-7.993,5.772-10.657,11.989"/>
		<g>
			<path d="M60.664,58.198c-2.088-3.246-3.922-10.471-8.195-11.69c-4.4-1.257-9.114-0.348-13.592-0.056
				c-6.765,0.441-13.647,1.903-20.41,0.837c-7.008-1.105-10.425-5.832-12.72-11.996C4.01,30.628,3.275,25.51,3.409,20.549
				c0.179-6.576,4.484-9.903,10.021-12.644C26.775,1.302,42.02,2.211,56.451,2.96c7.021,0.364,14.032,0.731,21.066,0.638
				c6.742-0.089,13.385-2.04,20.104-1.775c12.156,0.479,21.148,19.487,18.347,30.065c-3.938,14.876-28.107,13.166-39.923,13.624
				c-3.69,0.144-7.147,0.92-10.317,2.841c-3.55,2.15-4.885,6.76-6.392,10.334c-0.177,0.421,1.956,0.207,2.203-0.379
				c0.908-2.155,1.757-4.328,2.855-6.395c2.423-4.557,7.559-5.34,12.331-5.525c6.123-0.237,12.221-0.382,18.311-1.138
				c8.904-1.106,19.757-4.5,23.134-13.742c3.522-9.638-4.202-21.067-10.82-27.387c-3.423-3.268-8.466-3.479-12.883-3.155
				c-7.875,0.58-15.327,1.826-23.303,1.652C57.185,2.313,42.986,0.294,29.055,2.364c-7.8,1.158-17.2,3.866-23.29,9.104
				C-1.248,17.501,0.9,28.073,3.518,35.89C7.08,46.531,15.706,49.218,26.238,48.47c5.672-0.404,11.339-1.048,17.012-1.498
				c4.595-0.365,8.136-0.219,10.837,3.831c1.678,2.516,2.704,5.438,4.349,7.993C58.805,59.37,60.866,58.512,60.664,58.198
				L60.664,58.198z"/>
		</g>
	</g>
	<g>
		<g>
			<path d="M15.05,17.907c1.169-0.701,2.335-1.399,3.597-1.922c0.288-0.119,0.935-0.55,0.585-0.931
				c-0.347-0.377-1.081-0.208-1.481-0.042c-1.434,0.593-2.769,1.387-4.097,2.182c-0.319,0.191-0.657,0.67-0.185,0.91
				C13.951,18.351,14.615,18.167,15.05,17.907L15.05,17.907z"/>
		</g>
	</g>
	<g>
		<g>
			<path d="M14.248,18.406c0.08,3.016,1.215,5.958,1.026,8.976c-0.072,1.156,2.195,0.831,2.258-0.172
				c0.19-3.039-0.945-5.953-1.026-8.976C16.475,17.065,14.222,17.415,14.248,18.406L14.248,18.406z"/>
		</g>
	</g>
	<g>
		<g>
			<path d="M15.699,22.233c1.402-0.018,2.934-0.408,3.785-1.612c0.3-0.424-0.253-0.573-0.582-0.571
				c-0.475,0.003-1.182,0.169-1.477,0.587c-0.06,0.083-0.118,0.183-0.191,0.255c0.002-0.002-0.287,0.193-0.166,0.14
				c0.171-0.077-0.185,0.041-0.032,0.013c-0.147,0.027-0.291,0.029-0.442,0.031c-0.494,0.006-1.156,0.174-1.477,0.587
				C14.795,22.078,15.39,22.237,15.699,22.233L15.699,22.233z"/>
		</g>
	</g>
	<g>
		<g>
			<path d="M16.138,23.886c0.468,0.38,1.041,0.452,1.628,0.455c0.503,0.002,1.168-0.167,1.471-0.61
				c0.299-0.436-0.25-0.657-0.605-0.659c-0.133,0-0.312,0.031-0.423-0.059c-0.402-0.327-1.038-0.209-1.477-0.024
				C16.515,23.08,15.734,23.559,16.138,23.886L16.138,23.886z"/>
		</g>
	</g>
	<g>
		<g>
			<path d="M20.808,20.878c1.621-0.037,3.347-0.742,4.137-2.224c0.213-0.4-0.794-0.316-0.914-0.297
				c-0.428,0.069-1.071,0.235-1.295,0.654c-0.256,0.479-0.597,0.846-0.992,0.854c-0.484,0.011-1.145,0.188-1.485,0.557
				C19.9,20.808,20.565,20.884,20.808,20.878L20.808,20.878z"/>
		</g>
	</g>
	<g>
		<g>
			<path d="M19.65,17.956c-0.156,1.31-0.346,2.918,0.768,3.872c1.021,0.876,2.752,0.842,4.007,0.941
				c-0.225-0.101-0.449-0.202-0.673-0.304c0.232,1.124,0.294,2.321,0.002,3.439c-0.2,0.768,2.036,0.426,2.225-0.297
				c0.313-1.197,0.251-2.538,0.002-3.74c-0.057-0.274-0.469-0.288-0.673-0.304c-0.966-0.077-2.2-0.063-2.977-0.729
				c-0.823-0.706-0.564-2.267-0.456-3.176C21.976,16.814,19.735,17.241,19.65,17.956L19.65,17.956z"/>
		</g>
	</g>
	<g>
		<g>
			<path d="M21.459,23.899c-0.268,1.292-0.576,2.715-1.283,3.847c-0.221,0.354,0.814,0.242,0.895,0.229
				c0.418-0.074,1.061-0.224,1.305-0.615c0.707-1.133,1.017-2.556,1.283-3.847C23.768,22.986,21.573,23.344,21.459,23.899
				L21.459,23.899z"/>
		</g>
	</g>
	<g>
		<g>
			<path d="M27.088,15.644c0.896,0.647,1.813,1.139,2.863,1.481c1.033,0.337,1.026,1.151,1.143,2.155
				c0.297,2.567,0.078,5.255,0.078,7.838c0,1.199,2.262,0.883,2.262-0.156c0-2.755,0.111-5.531-0.11-8.279
				c-0.251-3.108-2.372-2.798-4.524-4.354C27.969,13.729,26.035,14.882,27.088,15.644L27.088,15.644z"/>
		</g>
	</g>
	<g>
		<g>
			<path d="M27.512,21.214c1.093,0.252,2.209,0.277,3.325,0.278c0.498,0,1.164-0.171,1.475-0.599s-0.262-0.616-0.594-0.616
				c-0.957-0.001-1.893-0.018-2.829-0.233c-0.509-0.117-1.187,0.09-1.577,0.422C26.945,20.778,27.07,21.112,27.512,21.214
				L27.512,21.214z"/>
		</g>
	</g>
	<g>
		<g>
			<path d="M27.284,24.141c1.272,0.294,2.655,0.368,3.919-0.012c0.385-0.116,1.073-0.457,0.934-0.979
				c-0.136-0.505-0.912-0.496-1.297-0.381c-0.717,0.216-1.516,0.154-2.237-0.012c-0.541-0.125-1.183,0.009-1.576,0.422
				C26.697,23.524,26.787,24.026,27.284,24.141L27.284,24.141z"/>
		</g>
	</g>
	<g>
		<g>
			<path d="M11.838,30.898c7.627-0.074,15.201-1.189,22.824-1.281c0.689-0.009,2.418-1.068,0.924-1.051
				c-7.623,0.093-15.196,1.208-22.824,1.281C12.071,29.854,10.344,30.912,11.838,30.898L11.838,30.898z"/>
		</g>
	</g>
	<g>
		<g>
			<path d="M18.665,33.298c-0.236,0.849-0.759,1.421-1.474,1.909c-0.414,0.283-0.539,0.899-0.102,1.22
				c0.484,0.355,1.148,0.194,1.604-0.116c0.956-0.653,1.801-1.572,2.116-2.708C21.166,32.321,18.948,32.279,18.665,33.298
				L18.665,33.298z"/>
		</g>
	</g>
	<g>
		<g>
			<path d="M27.156,33.087c1.372,1.541,3.352,2.096,5.27,2.64c0.508,0.145,1.114-0.008,1.568-0.25
				c0.215-0.114,0.752-0.565,0.238-0.711c-1.83-0.521-3.68-1.019-4.988-2.489C28.81,31.788,26.699,32.572,27.156,33.087
				L27.156,33.087z"/>
		</g>
	</g>
	<g>
		<g>
			<path d="M42.264,15.11c-0.517,1.679-1.571,2.986-3.009,3.976c-0.396,0.271-0.563,0.854-0.116,1.165
				c0.479,0.333,1.153,0.175,1.599-0.132c1.681-1.155,3.055-2.775,3.661-4.743C44.781,14.133,42.559,14.153,42.264,15.11
				L42.264,15.11z"/>
		</g>
	</g>
	<g>
		<g>
			<path d="M38.516,23.231c5.82-0.24,11.928,0.405,17.541-1.466c1.495-0.499,0.104-1.048-0.832-0.736
				c-4.943,1.648-10.664,0.888-15.799,1.099C38.711,22.158,37.021,23.292,38.516,23.231L38.516,23.231z"/>
		</g>
	</g>
	<g>
		<g>
			<path d="M41.447,19.901c1.25,4.82,1.508,9.79,0.77,14.717c0.668-0.226,1.335-0.451,2.002-0.678
				c-0.789-0.258-1.509-0.652-2.16-1.181c-0.621-0.479-2.675,0.404-2.07,0.869c0.785,0.604,1.524,1.01,2.455,1.384
				c0.508,0.204,1.896,0.032,2.002-0.678c0.752-5.02,0.506-10.115-0.77-15.031C43.477,18.533,41.246,19.126,41.447,19.901
				L41.447,19.901z"/>
		</g>
	</g>
	<g>
		<g>
			<path d="M38.566,30.236c3.347-0.382,6.213-2.06,9.312-3.236c1.456-0.553,0.128-1.333-0.889-0.947
				c-2.688,1.021-5.226,2.588-8.126,2.918C37.768,29.096,37.023,30.412,38.566,30.236L38.566,30.236z"/>
		</g>
	</g>
	<g>
		<g>
			<path d="M47.346,16.567c0.652,5.276,2.19,16.924,9.188,17.427c0.518,0.037,1.487-0.219,1.517-0.888
				c0.063-1.391,0.109-2.676-0.014-4.058c-0.089-1.004-2.324-0.466-2.229,0.598c0.071,1.213,0.066,2.425-0.014,3.636
				c0.505-0.296,1.011-0.592,1.517-0.888c-5.819-0.419-7.193-12.032-7.737-16.425C49.449,14.958,47.214,15.508,47.346,16.567
				L47.346,16.567z"/>
		</g>
	</g>
	<g>
		<g>
			<path d="M53.861,25.069c-2.326,2.055-4.746,3.992-7.282,5.782c-0.918,0.647,1.315,0.349,1.709,0.07
				c2.642-1.864,5.17-3.875,7.593-6.017c0.389-0.343-0.342-0.385-0.527-0.37C54.852,24.575,54.248,24.728,53.861,25.069
				L53.861,25.069z"/>
		</g>
	</g>
	<g>
		<g>
			<path d="M52.058,16.253c0.478,0.742,0.804,1.566,1.282,2.309c0.564,0.875,2.684,0.006,2.037-0.996
				c-0.479-0.741-0.805-1.566-1.282-2.309C53.531,14.381,51.412,15.25,52.058,16.253L52.058,16.253z"/>
		</g>
	</g>
	<g>
		<g>
			<path d="M60.359,15.394c3.402,0.279,7.167-0.364,9.876-2.567c0.426-0.347-1.612-0.103-2.006,0.217
				c-1.724,1.402-3.864,1.713-6.024,1.536c-0.526-0.043-1.074,0.09-1.554,0.302C60.532,14.934,59.844,15.352,60.359,15.394
				L60.359,15.394z"/>
		</g>
	</g>
	<g>
		<g>
			<path d="M62.219,16.312c-0.018,2.908-0.238,5.811-0.256,8.719c-0.003,0.416,2.225,0.083,2.229-0.598
				c0.019-2.908,0.239-5.811,0.258-8.719C64.451,15.298,62.224,15.631,62.219,16.312L62.219,16.312z"/>
		</g>
	</g>
	<g>
		<g>
			<path d="M65.809,16.823c0.271,4.358,0.861,8.687,1.201,13.039c0.127,1.619-0.598,4.035,0.035,5.553
				c0.239,0.572,1.135,0.381,1.567,0.205c0.456-0.186,0.664-0.412,0.896-0.839c0.529-0.983-1.717-0.785-2.09-0.096
				c0.097-0.024,0.193-0.049,0.289-0.073c0.522,0.068,1.045,0.137,1.567,0.205c-0.597-1.43,0.063-3.959-0.034-5.553
				c-0.271-4.357-0.931-8.68-1.201-13.039C67.989,15.434,65.753,15.914,65.809,16.823L65.809,16.823z"/>
		</g>
	</g>
	<g>
		<g>
			<path d="M63.439,20.078c0.625,0.001,1.2,0.022,1.799,0.212c0.517,0.164,1.205-0.036,1.576-0.422
				c0.352-0.367,0.216-0.805-0.256-0.953c-0.758-0.24-1.515-0.302-2.305-0.302c-0.527-0.001-1.18,0.146-1.461,0.65
				C62.539,19.719,63.009,20.078,63.439,20.078L63.439,20.078z"/>
		</g>
	</g>
	<g>
		<g>
			<path d="M63.49,22.001c0.725,0.361,1.44,0.63,2.261,0.65c0.525,0.014,1.185-0.152,1.459-0.654
				c0.254-0.464-0.216-0.817-0.65-0.828c-0.493-0.013-0.892-0.156-1.329-0.375c-0.503-0.251-1.136-0.152-1.591,0.164
				C63.319,21.18,62.99,21.751,63.49,22.001L63.49,22.001z"/>
		</g>
	</g>
	<g>
		<g>
			<path d="M60.421,28.646c2.581-0.342,4.941-1.318,7.261-2.466c1.363-0.676,0.145-1.926-1-1.359
				c-1.934,0.957-3.917,1.863-6.075,2.149C59.36,27.136,58.907,28.848,60.421,28.646L60.421,28.646z"/>
		</g>
	</g>
	<g>
		<g>
			<path d="M71.961,13.575c-0.583,1.716-1.281,3.389-1.795,5.129c-0.056,0.189,0.087,0.353,0.237,0.436
				c1.034,0.573,2.017,0.408,3.095,0.042c0.337-0.115,1.087-0.402,0.953-0.903c-0.126-0.47-0.94-0.42-1.277-0.306
				c-0.42,0.144-0.579,0.28-1.009,0.042c0.079,0.145,0.158,0.29,0.237,0.436c0.513-1.74,1.211-3.414,1.795-5.131
				C74.479,12.493,72.23,12.784,71.961,13.575L71.961,13.575z"/>
		</g>
	</g>
	<g>
		<g>
			<path d="M72.75,18.777c-0.904,1.165-1.52,2.452-1.555,3.945c-0.01,0.421,1.61-0.096,1.753-0.165
				c1.141-0.557,2.216-1.12,3.025-2.129c-0.717,0.191-1.434,0.384-2.15,0.576c0.282,0.323,0.487,0.701,0.77,1.025
				c0.356,0.407,2.429-0.379,2.104-0.752c-0.282-0.322-0.487-0.701-0.77-1.025c-0.378-0.434-1.876,0.234-2.15,0.576
				c-0.56,0.699-1.32,1.077-2.105,1.461c0.584-0.055,1.169-0.11,1.753-0.165c0.034-1.422,0.666-2.644,1.523-3.748
				c0.241-0.312-0.836-0.206-0.888-0.197C73.619,18.261,73.039,18.405,72.75,18.777L72.75,18.777z"/>
		</g>
	</g>
	<g>
		<g>
			<path d="M77.106,13.379c-0.761,1.122-1.217,2.347-1.296,3.702c-0.008,0.144,0.331,0.178,0.398,0.18
				c1.861,0.056,3.324,0.289,4.808-1.06c-0.705,0.085-1.41,0.17-2.115,0.255c-0.807,1.913-1.487,3.838-1.795,5.898
				c-0.101,0.669,1.874,0.061,2.115-0.255c0.479-0.623,1.198-1.026,1.795-1.538c-0.688,0.152-1.374,0.304-2.062,0.456
				c0.658,0.365,1.235,0.778,1.796,1.281c0.464,0.416,2.483-0.43,2.096-0.777c-0.561-0.502-1.138-0.916-1.796-1.281
				c-0.578-0.321-1.604,0.063-2.062,0.456c-0.607,0.52-1.304,0.898-1.795,1.538c0.705-0.085,1.41-0.17,2.115-0.255
				c0.308-2.061,0.989-3.985,1.795-5.898c0.252-0.597-1.876,0.036-2.115,0.255c0.443,0.099,0.45,0.12,0.021,0.063
				c-0.54-0.049-1.015,0.147-0.891-0.654c0.153-0.988,0.636-1.923,1.189-2.74C79.505,12.717,77.482,12.823,77.106,13.379
				L77.106,13.379z"/>
		</g>
	</g>
	<g>
		<g>
			<path d="M70.752,25.962c-0.377,0.871-0.315,1.84-0.586,2.741c-0.114,0.38,0.428,0.558,0.697,0.555
				c1.298-0.016,2.756-0.136,3.953-0.681c0.3-0.138,0.929-0.565,0.576-0.963c-0.34-0.383-1.088-0.242-1.486-0.061
				c-0.111,0.047-0.112,0.052-0.004,0.014c-0.085,0.027-0.172,0.052-0.258,0.074c-0.162,0.044-0.326,0.078-0.491,0.106
				c-0.476,0.083-0.966,0.145-1.448,0.15c0.232,0.185,0.465,0.37,0.697,0.555c0.229-0.758,0.128-1.666,0.439-2.388
				C73.297,25.013,71.065,25.235,70.752,25.962L70.752,25.962z"/>
		</g>
	</g>
	<g>
		<g>
			<path d="M73.747,25.593c0,2.649,0,5.299,0,7.949c0,1.146,2.256,0.786,2.256-0.184c0-2.649,0-5.299,0-7.949
				C76.003,24.264,73.747,24.623,73.747,25.593L73.747,25.593z"/>
		</g>
	</g>
	<g>
		<g>
			<path d="M80.684,24.518c0.234,1.274,0.278,2.572,0.514,3.847c0.318-0.296,0.638-0.591,0.957-0.887
				c-0.9,0.221-1.82,0.424-2.75,0.442c-0.512,0.011-1.166,0.155-1.469,0.62c-0.283,0.436,0.238,0.703,0.615,0.696
				c1.331-0.026,2.628-0.268,3.918-0.583c0.367-0.09,1.047-0.402,0.957-0.887c-0.234-1.274-0.278-2.572-0.512-3.847
				C82.766,23.114,80.527,23.663,80.684,24.518L80.684,24.518z"/>
		</g>
	</g>
	<g>
		<g>
			<path d="M77.854,25.09c-0.21,2.659,0.221,5.295,0.256,7.951c0.016,1.102,2.262,0.704,2.25-0.205
				c-0.036-2.655-0.467-5.296-0.258-7.951C80.188,23.803,77.926,24.168,77.854,25.09L77.854,25.09z"/>
		</g>
	</g>
	<g>
		<g>
			<path d="M90.476,13.824c-1.203,2.03-2.106,4.188-3.714,5.95c-0.477,0.522-0.018,1.071,0.554,1.165
				c1.538,0.254,3.056,0.466,4.616,0.514c-0.185-0.388-0.369-0.776-0.555-1.165c-1.565,2.163-2.865,4.444-3.979,6.872
				c-0.456,0.995,1.021,1.018,1.566,0.809c1.746-0.669,3.345-1.626,4.86-2.714c1.23-0.884-0.58-1.697-1.486-1.047
				c-1.366,0.981-2.798,1.813-4.37,2.415c0.522,0.27,1.044,0.539,1.566,0.809c1.045-2.28,2.24-4.426,3.715-6.462
				c0.36-0.498,0.113-1.145-0.555-1.165c-1.561-0.049-3.077-0.261-4.616-0.514c0.185,0.388,0.37,0.776,0.554,1.165
				c1.723-1.887,2.689-4.185,3.979-6.36C93.255,13.011,90.983,12.968,90.476,13.824L90.476,13.824z"/>
		</g>
	</g>
	<g>
		<g>
			<path d="M92.926,25.182c0.931,0,2.337-1.412,0.828-1.412C92.823,23.77,91.417,25.182,92.926,25.182L92.926,25.182z"/>
		</g>
	</g>
	<g>
		<g>
			<path d="M92.225,24.518c0.296,0.532,0.598,1.062,0.912,1.583c0.117,0.194,0.243,0.486,0.43,0.628
				c0.348,0.263,0.791,0.248,1.2,0.138c0.328-0.088,0.904-0.325,0.971-0.73c0.146-0.896-2.104-0.511-2.232,0.27
				c-0.001,0.005-0.001,0.01-0.002,0.015c0.073-0.11,0.146-0.221,0.218-0.331c-0.002,0.002-0.004,0.003-0.006,0.005
				c0.525-0.141,1.051-0.281,1.576-0.422c-0.004-0.001-0.008-0.003-0.008-0.003c0.115,0.059,0.232,0.117,0.352,0.177
				c-0.293-0.222-0.487-0.72-0.668-1.028c-0.185-0.314-0.34-0.587-0.512-0.897C94.024,23.146,91.871,23.88,92.225,24.518
				L92.225,24.518z"/>
		</g>
	</g>
	<g>
		<g>
			<path d="M87.609,31.186c0.215,0.698,0.249,1.399,0.249,2.125c0.001,1.042,2.243,0.612,2.242-0.232
				c-0.001-0.843-0.013-1.679-0.263-2.49C89.564,29.698,87.341,30.313,87.609,31.186L87.609,31.186z"/>
		</g>
	</g>
	<g>
		<g>
			<path d="M90.686,30.159c0.277,0.849,0.492,1.716,0.77,2.564c0.329,1.004,2.553,0.389,2.23-0.598
				c-0.278-0.849-0.493-1.716-0.77-2.564C92.588,28.558,90.364,29.173,90.686,30.159L90.686,30.159z"/>
		</g>
	</g>
	<g>
		<g>
			<path d="M93.764,29.902c0.027,0.528,0.223,0.962,0.573,1.353c0.348,0.388,2.395-0.416,2.107-0.736
				c-0.298-0.331-0.429-0.779-0.452-1.214C95.975,28.978,93.732,29.338,93.764,29.902L93.764,29.902z"/>
		</g>
	</g>
	<g>
		<g>
			<path d="M96.829,13.544c-0.057,1.981-0.737,4.522-2.106,6.019c-0.939,1.028,1.212,1.29,1.85,0.594
				c1.559-1.705,2.444-4.532,2.509-6.806C99.113,12.231,96.855,12.599,96.829,13.544L96.829,13.544z"/>
		</g>
	</g>
	<g>
		<g>
			<path d="M97.806,17.517c1.838,0.215,3.622-0.475,5.413-0.772c-0.311-0.271-0.621-0.543-0.932-0.814
				c-1.409,3.179-3.848,5.836-6.273,8.279c-0.964,0.97,1.211,1.159,1.832,0.533c2.521-2.538,5.086-5.343,6.549-8.646
				c0.268-0.603-0.42-0.899-0.932-0.814c-1.563,0.26-3.26,0.951-4.845,0.767C97.623,15.932,96.3,17.341,97.806,17.517L97.806,17.517
				z"/>
		</g>
	</g>
	<g>
		<g>
			<path d="M95.547,19.949c3.492,2.403,7.9,2.405,11.752,3.938c0.847,0.338,2.605-0.878,1.316-1.391
				c-3.697-1.473-7.982-1.452-11.328-3.755C96.559,18.24,94.553,19.265,95.547,19.949L95.547,19.949z"/>
		</g>
	</g>
	<g>
		<g>
			<path d="M97.609,27.082c0.188,0.738,0.395,1.472,0.593,2.207c0.112,0.414,0.222,0.829,0.328,1.245
				c0.036,0.146,0.071,0.293,0.104,0.439c0.021,0.095,0.01,0.332,0.032,0.071c0.219-0.224,0.437-0.446,0.655-0.67
				c-0.002,0.001-0.005,0.003-0.008,0.004c0.499,0.031,0.997,0.062,1.495,0.093c-0.014-0.014-0.024-0.029-0.032-0.049
				c-0.417-0.751-2.57,0-2.055,0.928c0.007,0.019,0.018,0.034,0.031,0.049c0.348,0.399,1.076,0.287,1.495,0.094
				c0.002-0.002,0.005-0.003,0.007-0.004c0.252-0.116,0.627-0.353,0.655-0.67c0.05-0.573-0.244-1.247-0.389-1.789
				c-0.226-0.849-0.467-1.694-0.683-2.546C99.609,25.577,97.378,26.168,97.609,27.082L97.609,27.082z"/>
		</g>
	</g>
	<g>
		<g>
			<path d="M98.264,27.056c1.894-0.049,3.76-0.694,5.654-0.521c-0.137-0.074-0.273-0.148-0.41-0.223
				c-0.029,1.595-0.338,3.391-1.445,4.611c-0.354,0.39,0.303,0.501,0.561,0.492c0.498-0.018,1.135-0.183,1.482-0.566
				c1.259-1.386,1.598-3.32,1.633-5.135c0.002-0.157-0.319-0.214-0.41-0.223c-2.095-0.191-4.066,0.452-6.143,0.505
				c-0.488,0.013-1.146,0.182-1.482,0.566C97.357,26.958,97.998,27.063,98.264,27.056L98.264,27.056z"/>
		</g>
	</g>
	<g>
		<g>
			<path d="M98.299,32.063c2.105-0.029,4.348-0.534,6.418-0.033c0.752,0.183,2.637-0.951,1.352-1.262
				c-2.27-0.55-4.62-0.064-6.918-0.033c-0.514,0.008-1.169,0.155-1.469,0.622C97.4,31.797,97.918,32.068,98.299,32.063
				L98.299,32.063z"/>
		</g>
	</g>
</g>
</svg>
