<?xml version="1.0" encoding="utf-8"?>
<!-- Generator: Adobe Illustrator 16.0.3, SVG Export Plug-In . SVG Version: 6.00 Build 0)  -->
<!DOCTYPE svg PUBLIC "-//W3C//DTD SVG 1.1//EN" "http://www.w3.org/Graphics/SVG/1.1/DTD/svg11.dtd">
<svg version="1.1" id="圖層_1" xmlns="http://www.w3.org/2000/svg" xmlns:xlink="http://www.w3.org/1999/xlink" x="0px" y="0px"
	 width="62.971px" height="59.999px" viewBox="0 0 62.971 59.999" enable-background="new 0 0 62.971 59.999" xml:space="preserve">
<path fill="#009690" d="M62.971,25.55C62.971,11.461,48.849,0,31.485,0C14.125,0,0,11.461,0,25.55
	c0,12.632,11.202,23.208,26.331,25.208c1.027,0.221,2.421,0.678,2.775,1.551c0.317,0.799,0.207,2.045,0.102,2.852
	c0,0-0.37,2.219-0.449,2.693c-0.137,0.797-0.634,3.115,2.727,1.695c3.36-1.414,18.133-10.676,24.738-18.277l0,0
	C60.786,36.266,62.971,31.188,62.971,25.55z M20.376,33.07c0,0.338-0.273,0.615-0.611,0.615h-8.822H10.94
	c-0.163,0-0.312-0.064-0.422-0.172c-0.003-0.004-0.005-0.004-0.009-0.01c-0.004-0.002-0.006-0.006-0.008-0.008
	c-0.105-0.109-0.172-0.26-0.172-0.426l0,0V19.355c0-0.338,0.275-0.614,0.615-0.614h2.209c0.337,0,0.611,0.275,0.611,0.614V30.25
	h6.001c0.338,0,0.611,0.275,0.611,0.614V33.07z M25.702,33.074c0,0.336-0.275,0.611-0.613,0.611h-2.21
	c-0.339,0-0.613-0.275-0.613-0.611V19.354c0-0.337,0.274-0.611,0.613-0.611h2.21c0.338,0,0.613,0.274,0.613,0.611V33.074z
	 M40.903,33.074c0,0.336-0.277,0.611-0.615,0.611h-2.209c-0.053,0-0.105-0.01-0.154-0.023c-0.004,0-0.009,0-0.009,0
	c-0.013-0.004-0.03-0.008-0.044-0.012c-0.004-0.006-0.014-0.006-0.018-0.01c-0.014-0.004-0.018-0.008-0.031-0.014
	c-0.008-0.002-0.018-0.008-0.025-0.012c-0.01-0.006-0.014-0.008-0.018-0.01c-0.014-0.008-0.027-0.016-0.04-0.021
	c-0.005-0.004-0.005-0.004-0.005-0.004c-0.061-0.043-0.113-0.094-0.158-0.154l-6.294-8.5v8.148c0,0.336-0.274,0.611-0.613,0.611
	h-2.208c-0.338,0-0.613-0.275-0.613-0.611V19.354c0-0.337,0.275-0.611,0.613-0.611h2.208c0.007,0,0.013,0.001,0.022,0.001
	s0.021,0,0.031,0c0.011,0.001,0.021,0.003,0.031,0.006c0.009,0,0.018,0.001,0.026,0.003c0.013,0.001,0.023,0.004,0.035,0.007
	c0.007,0.003,0.015,0.003,0.021,0.006c0.014,0.004,0.026,0.007,0.037,0.012c0.008,0.003,0.013,0.004,0.021,0.007
	c0.013,0.004,0.022,0.009,0.035,0.015c0.005,0.003,0.013,0.006,0.019,0.009c0.012,0.006,0.021,0.013,0.033,0.021
	c0.006,0.003,0.012,0.006,0.018,0.009c0.012,0.006,0.021,0.015,0.032,0.022c0.005,0.004,0.012,0.007,0.017,0.012
	c0.012,0.009,0.022,0.019,0.031,0.028c0.005,0.004,0.009,0.007,0.014,0.01c0.012,0.012,0.023,0.025,0.035,0.038l0.004,0.004
	c0.018,0.019,0.034,0.04,0.049,0.063l6.287,8.489v-8.151c0-0.337,0.272-0.611,0.611-0.611h2.209c0.338,0,0.615,0.274,0.615,0.611
	V33.074z M53.097,21.564c0,0.339-0.272,0.613-0.611,0.613h-6v2.318h6c0.339,0,0.611,0.275,0.611,0.615v2.208
	c0,0.338-0.272,0.612-0.611,0.612h-6v2.319h6c0.339,0,0.611,0.275,0.611,0.614v2.207c0,0.338-0.272,0.615-0.611,0.615h-8.824l0,0
	c-0.162,0-0.312-0.066-0.422-0.172c-0.004-0.004-0.008-0.004-0.008-0.01c-0.005-0.002-0.01-0.006-0.01-0.008
	c-0.105-0.109-0.171-0.26-0.171-0.426l0,0V19.355l0,0c0-0.164,0.065-0.313,0.167-0.423c0.004-0.004,0.009-0.007,0.014-0.01
	c0-0.003,0.004-0.004,0.004-0.007c0.109-0.105,0.26-0.173,0.426-0.173l0,0h8.824c0.339,0,0.611,0.275,0.611,0.614V21.564z"/>
</svg>
