<?xml version="1.0" encoding="utf-8"?>
<!-- Generator: Adobe Illustrator 16.0.3, SVG Export Plug-In . SVG Version: 6.00 Build 0)  -->
<!DOCTYPE svg PUBLIC "-//W3C//DTD SVG 1.1//EN" "http://www.w3.org/Graphics/SVG/1.1/DTD/svg11.dtd">
<svg version="1.1" id="人物著色" xmlns="http://www.w3.org/2000/svg" xmlns:xlink="http://www.w3.org/1999/xlink" x="0px"
	 y="0px" width="14.142px" height="11.209px" viewBox="0 0 14.142 11.209" enable-background="new 0 0 14.142 11.209"
	 xml:space="preserve">
<g>
	<g>
		<path fill="#F8AD3B" d="M7.815,7.115c0.148-0.49,0.214-1.27,0.688-1.014c0.514,0.277,0.737,0.884,0.84,1.416
			c0.189,0.973-0.824,1.98-1.74,1.998c-1.047,0.019-2.1-0.592-2.89-1.219c-1.409-1.117-3.04-5.211-0.691-6.34
			c1.493-0.719,3.715,0.308,4.972,1.086c1.725,1.07,2.813,3.044,1.911,5.008c-0.621,1.353,2.286,1.08,2.719,0.139
			C17.292,0.202,0.325-3.687,0.005,4.684c-0.234,6.1,7.99,8.824,11.691,4.199c1.297-1.62,0.234-4.162-1.719-4.61
			c-2.441-0.56-4.379,0.873-5.07,3.165C4.566,8.566,7.497,8.17,7.815,7.115L7.815,7.115z"/>
	</g>
</g>
</svg>
