<?xml version="1.0" encoding="utf-8"?>
<!-- Generator: Adobe Illustrator 16.0.3, SVG Export Plug-In . SVG Version: 6.00 Build 0)  -->
<!DOCTYPE svg PUBLIC "-//W3C//DTD SVG 1.1//EN" "http://www.w3.org/Graphics/SVG/1.1/DTD/svg11.dtd">
<svg version="1.1" id="圖層_1" xmlns="http://www.w3.org/2000/svg" xmlns:xlink="http://www.w3.org/1999/xlink" x="0px" y="0px"
	 width="478.969px" height="87.542px" viewBox="0 0 478.969 87.542" enable-background="new 0 0 478.969 87.542"
	 xml:space="preserve">
<g>
	
		<polyline fill="none" stroke="#E71E19" stroke-width="3.19" stroke-linecap="round" stroke-linejoin="round" stroke-miterlimit="10" points="
		24.696,12.271 24.346,9.47 23.296,6.845 21.721,4.746 19.446,2.996 16.996,1.945 14.196,1.595 11.396,1.945 8.946,2.996 
		6.671,4.746 5.096,6.845 4.046,9.47 3.696,12.271 	"/>
	
		<polyline fill="none" stroke="#E71E19" stroke-width="3.19" stroke-linecap="round" stroke-linejoin="round" stroke-miterlimit="10" points="
		82.622,6.845 33.096,6.845 30.646,7.37 28.196,8.42 26.271,10.17 24.696,12.27 	"/>
	
		<line fill="none" stroke="#E71E19" stroke-width="3.19" stroke-linecap="round" stroke-linejoin="round" stroke-miterlimit="10" x1="14.196" y1="24.871" x2="14.196" y2="85.948"/>
	
		<polyline fill="none" stroke="#E71E19" stroke-width="3.19" stroke-linecap="round" stroke-linejoin="round" stroke-miterlimit="10" points="
		3.695,70.021 4.045,72.822 5.095,75.447 6.67,77.546 8.945,79.296 11.395,80.346 14.195,80.698 16.995,80.346 19.445,79.296 
		21.72,77.546 23.296,75.447 24.346,72.822 24.695,70.021 	"/>
	
		<path fill="none" stroke="#E71E19" stroke-width="3.19" stroke-linecap="round" stroke-linejoin="round" stroke-miterlimit="10" d="
		M24.695,12.271v73.677 M3.695,30.121v39.9 M3.695,12.271v12.6"/>
	
		<polyline fill="none" stroke="#E71E19" stroke-width="3.19" stroke-linecap="round" stroke-linejoin="round" stroke-miterlimit="10" points="
		14.196,24.871 1.596,24.871 1.596,30.121 14.196,30.121 	"/>
	
		<path fill="none" stroke="#E71E19" stroke-width="3.19" stroke-linecap="round" stroke-linejoin="round" stroke-miterlimit="10" d="
		M82.622,75.447H33.096 M24.696,12.271v57.75 M14.196,62.146h-10.5"/>
	
		<polyline fill="none" stroke="#E71E19" stroke-width="3.19" stroke-linecap="round" stroke-linejoin="round" stroke-miterlimit="10" points="
		24.696,70.021 26.271,72.123 28.196,73.873 30.646,74.921 33.096,75.447 	"/>
	
		<path fill="none" stroke="#E71E19" stroke-width="3.19" stroke-linecap="round" stroke-linejoin="round" stroke-miterlimit="10" d="
		M1.595,85.948h81.027 M82.622,56.897H24.696 M82.622,38.346H24.696"/>
	
		<polyline fill="none" stroke="#E71E19" stroke-width="3.19" stroke-linecap="round" stroke-linejoin="round" stroke-miterlimit="10" points="
		161.549,12.271 161.199,9.47 160.148,6.845 158.574,4.746 156.299,2.996 153.849,1.945 151.049,1.595 148.424,1.945 145.799,2.996 
		143.699,4.746 141.949,6.845 140.898,9.47 140.549,12.271 	"/>
	
		<line fill="none" stroke="#E71E19" stroke-width="3.19" stroke-linecap="round" stroke-linejoin="round" stroke-miterlimit="10" x1="82.622" y1="6.845" x2="132.148" y2="6.845"/>
	
		<polyline fill="none" stroke="#E71E19" stroke-width="3.19" stroke-linecap="round" stroke-linejoin="round" stroke-miterlimit="10" points="
		140.549,12.271 138.974,10.17 137.049,8.42 134.773,7.371 132.148,6.845 	"/>
	
		<line fill="none" stroke="#E71E19" stroke-width="3.19" stroke-linecap="round" stroke-linejoin="round" stroke-miterlimit="10" x1="151.049" y1="24.871" x2="151.049" y2="85.948"/>
	
		<polyline fill="none" stroke="#E71E19" stroke-width="3.19" stroke-linecap="round" stroke-linejoin="round" stroke-miterlimit="10" points="
		140.549,70.021 140.898,72.822 141.949,75.447 143.699,77.546 145.799,79.296 148.424,80.346 151.049,80.698 153.849,80.346 
		156.299,79.296 158.574,77.546 160.148,75.447 161.199,72.822 161.549,70.021 	"/>
	
		<path fill="none" stroke="#E71E19" stroke-width="3.19" stroke-linecap="round" stroke-linejoin="round" stroke-miterlimit="10" d="
		M140.549,12.271v73.677 M161.549,30.121v39.9 M161.549,12.271v12.6"/>
	
		<polyline fill="none" stroke="#E71E19" stroke-width="3.19" stroke-linecap="round" stroke-linejoin="round" stroke-miterlimit="10" points="
		151.049,24.871 163.824,24.871 163.824,30.121 151.049,30.121 	"/>
	
		<path fill="none" stroke="#E71E19" stroke-width="3.19" stroke-linecap="round" stroke-linejoin="round" stroke-miterlimit="10" d="
		M140.549,12.271v57.75 M151.049,62.146h10.5"/>
	
		<polyline fill="none" stroke="#E71E19" stroke-width="3.19" stroke-linecap="round" stroke-linejoin="round" stroke-miterlimit="10" points="
		82.622,75.446 132.148,75.446 134.773,74.922 137.048,73.873 138.974,72.123 140.549,70.021 	"/>
	
		<path fill="none" stroke="#E71E19" stroke-width="3.19" stroke-linecap="round" stroke-linejoin="round" stroke-miterlimit="10" d="
		M163.649,85.947H82.622 M82.622,56.896h57.927 M82.622,38.345h57.927 M82.622,6.845v68.601"/>
	<path fill="#E71E19" d="M203.431,37.419c1.353,0,2.453-1.101,2.453-2.454v-6.139c0-1.015,0.826-1.841,1.84-1.841h66.479
		c1.209,0,2.191,0.983,2.191,2.191v5.789c0,1.353,1.101,2.454,2.453,2.454c1.354,0,2.454-1.101,2.454-2.454v-8.228
		c0-2.306-1.877-4.182-4.183-4.182H205.09c-2.267,0-4.113,1.845-4.113,4.113v8.297C200.977,36.318,202.078,37.419,203.431,37.419"/>
	<path fill="#E71E19" d="M244.363,39.339c0.361,0.472,0.887,0.773,1.478,0.85c0.098,0.012,0.196,0.019,0.294,0.019
		c0.499,0,0.98-0.165,1.383-0.478l0.142-0.11c0.484-0.377,0.799-0.944,0.86-1.556c0.063-0.615-0.121-1.21-0.519-1.677
		c-2.33-2.735-4.676-5.113-6.973-7.069c-0.785-0.667-1.96-0.695-2.799-0.066c-0.545,0.408-0.873,1.034-0.9,1.715
		c-0.027,0.677,0.247,1.319,0.752,1.764C240.58,34.934,242.692,37.157,244.363,39.339"/>
	<path fill="#E71E19" d="M227.169,30.178c-1.333,0-2.418,1.085-2.418,2.418v9.897c0,1.738,0.475,3.156,1.411,4.215
		c0.939,1.059,2.167,1.683,3.652,1.854c1.395,0.163,4.515,0.242,9.539,0.242c7.396,0,11.983-0.133,14.024-0.409
		c2.124-0.286,3.718-1.086,4.734-2.378c0.869-1.104,1.55-3.146,2.082-6.237c0.188-1.097-0.384-2.179-1.393-2.632H258.8
		c-0.686-0.308-1.462-0.281-2.128,0.078c-0.672,0.363-1.127,1.005-1.249,1.762c-0.478,2.972-1.305,4.648-2.392,4.847
		c-1.612,0.295-5.845,0.444-12.583,0.444c-7.251,0-9.386-0.229-9.902-0.421c-0.381-0.142-0.889-0.478-0.889-1.747v-9.516
		C229.657,31.263,228.572,30.178,227.169,30.178"/>
	<path fill="#E71E19" d="M280.833,82.116c-12.239-1.756-23.197-4.414-32.569-7.897c-0.018-0.007-0.066-0.023-0.069-0.095
		c-0.002-0.033,0.006-0.094,0.077-0.13c7.493-3.665,14.046-8.166,19.478-13.377c0.559-0.536,0.88-1.294,0.88-2.082
		c0-1.581-1.286-2.868-2.868-2.868l-33.647-0.042c0.539-0.452,1.142-0.98,1.809-1.59c0.556-0.505,0.831-1.224,0.755-1.972
		c-0.075-0.742-0.485-1.388-1.125-1.768c-0.894-0.532-2.013-0.405-2.783,0.313c-2.913,2.711-6.066,5.108-9.371,7.127
		c-0.326,0.196-0.766,0.15-1.049-0.114c-1.388-1.298-2.677-2.592-3.831-3.848c-0.826-0.9-2.236-1.013-3.245-0.227
		c-0.524,0.407-0.851,1.021-0.898,1.681c-0.046,0.652,0.188,1.298,0.643,1.768c1.046,1.086,2.255,2.245,3.599,3.452
		c-3.871,2.042-8.382,3.946-13.421,5.664c-0.699,0.237-1.222,0.78-1.437,1.49c-0.214,0.705-0.075,1.477,0.374,2.062
		c0.609,0.796,1.692,1.108,2.628,0.753c5.738-2.149,10.736-4.354,14.856-6.552c0.325-0.172,0.704-0.132,0.993,0.103
		c4.766,3.892,9.873,7.223,15.179,9.9c0.067,0.034,0.074,0.09,0.071,0.121c-0.005,0.066-0.053,0.084-0.072,0.089
		c-10.196,3.368-21.901,6.044-34.789,7.956c-0.761,0.113-1.399,0.569-1.751,1.25c-0.349,0.675-0.353,1.452-0.01,2.129
		c0.458,0.903,1.432,1.412,2.445,1.266c14.81-2.156,28.127-5.394,39.579-9.62c0.517-0.188,1.058-0.177,1.569,0.037
		c9.607,4.042,22.159,7.297,37.305,9.674c0.121,0.018,0.241,0.027,0.361,0.027c0.824,0,1.615-0.438,2.041-1.161
		c0.396-0.674,0.432-1.497,0.093-2.2C282.29,82.721,281.616,82.229,280.833,82.116 M261.363,60.26
		c-5.177,4.406-11.386,8.146-18.456,11.113c-0.469,0.198-1.003,0.191-1.467-0.016c-5.812-2.6-11.123-5.701-15.786-9.22
		c-0.296-0.223-0.459-0.565-0.449-0.94c0.01-0.387,0.2-0.733,0.52-0.949c0.194-0.131,0.42-0.199,0.655-0.199h34.895
		c0.071,0,0.104,0.047,0.118,0.086C261.422,60.211,261.379,60.249,261.363,60.26"/>
	<path fill="#E71E19" d="M217.802,32.991c-1.131-0.614-2.551-0.204-3.167,0.909c-2.465,4.451-6.117,9.009-10.854,13.549
		c-0.499,0.477-0.762,1.147-0.724,1.839c0.039,0.701,0.38,1.346,0.936,1.771c0.432,0.329,0.949,0.492,1.464,0.492
		c0.597,0,1.19-0.219,1.64-0.648c4.491-4.289,8.419-9.185,11.676-14.554c0.337-0.554,0.428-1.207,0.257-1.839
		C218.858,33.874,218.426,33.329,217.802,32.991"/>
	<path fill="#E71E19" d="M264.896,31.952c-0.574,0.347-0.966,0.925-1.073,1.587c-0.11,0.675,0.083,1.363,0.529,1.888
		c3.362,3.952,6.543,8.592,9.455,13.792c0.309,0.549,0.811,0.942,1.415,1.106c0.199,0.055,0.402,0.081,0.604,0.081
		c0.398,0,0.793-0.105,1.147-0.313l0.184-0.109c0.533-0.312,0.912-0.815,1.066-1.418c0.153-0.6,0.064-1.221-0.253-1.75
		c-3.129-5.212-6.506-10.056-10.038-14.399C267.219,31.54,265.943,31.323,264.896,31.952"/>
	<path fill="#E71E19" d="M207.33,10.5h0.007c24.27-0.063,46.872-1.824,67.178-5.234c0.722-0.121,1.316-0.599,1.594-1.278
		c0.28-0.689,0.187-1.459-0.252-2.062l-0.404,0.294l0.374-0.336c-0.635-0.87-1.728-1.295-2.789-1.084
		c-15.618,3.125-37.932,4.859-66.324,5.153c-0.739,0.008-1.406,0.391-1.785,1.026c-0.375,0.63-0.396,1.393-0.055,2.041
		C205.354,9.934,206.295,10.5,207.33,10.5"/>
	<path fill="#E71E19" d="M240.266,11.953c-0.553,0.32-0.927,0.864-1.024,1.494c-0.098,0.622,0.09,1.246,0.513,1.711
		c1.297,1.426,2.49,3.05,3.549,4.829c0.421,0.709,1.153,1.108,1.912,1.108c0.321,0,0.647-0.072,0.956-0.222l0.495-0.242
		c0.571-0.279,0.992-0.79,1.156-1.404c0.166-0.623,0.054-1.287-0.31-1.823c-1.19-1.758-2.457-3.398-3.769-4.875
		C242.866,11.538,241.401,11.296,240.266,11.953"/>
	<path fill="#E71E19" d="M218.478,12.543c-1.021-0.841-2.505-0.853-3.527-0.025c-0.496,0.401-0.78,0.997-0.779,1.634
		c0.001,0.63,0.284,1.217,0.774,1.611c1.506,1.207,2.939,2.625,4.259,4.215c0.448,0.54,1.085,0.823,1.725,0.823
		c0.433,0,0.867-0.13,1.248-0.396l0.452-0.316c0.519-0.364,0.855-0.935,0.922-1.566c0.067-0.641-0.148-1.28-0.591-1.753
		C221.509,15.217,220,13.795,218.478,12.543"/>
	<path fill="#E71E19" d="M309.282,52.522c-1.899,0-3.444,1.545-3.444,3.445v16.169c0,1.898,1.545,3.444,3.444,3.444h57.761
		c1.9,0,3.445-1.546,3.445-3.444V55.967c0-1.9-1.545-3.445-3.445-3.445H309.282z M340.616,61.64v-4.611
		c0-0.2,0.162-0.361,0.361-0.361h24.241c0.2,0,0.362,0.161,0.362,0.361v4.611c0,0.201-0.162,0.363-0.362,0.363h-24.241
		C340.778,62.003,340.616,61.841,340.616,61.64 M340.616,66.367c0-0.199,0.162-0.361,0.361-0.361h24.241
		c0.2,0,0.362,0.162,0.362,0.361v4.611c0,0.201-0.162,0.363-0.362,0.363h-24.241c-0.199,0-0.361-0.162-0.361-0.363V66.367z
		 M310.744,61.64v-4.611c0-0.2,0.163-0.361,0.362-0.361h24.24c0.2,0,0.362,0.161,0.362,0.361v4.611c0,0.201-0.162,0.363-0.362,0.363
		h-24.24C310.907,62.003,310.744,61.841,310.744,61.64 M310.744,66.367c0-0.199,0.163-0.361,0.362-0.361h24.24
		c0.2,0,0.362,0.162,0.362,0.361v4.611c0,0.201-0.162,0.363-0.362,0.363h-24.24c-0.199,0-0.362-0.162-0.362-0.363V66.367z"/>
	<path fill="#E71E19" d="M297.882,19.554h37.125c0.492,0,0.893,0.4,0.893,0.893v3.264c0,0.493-0.4,0.893-0.893,0.893H306.48
		c-1.143,0-2.072,0.93-2.072,2.072c0,1.143,0.93,2.072,2.072,2.072h28.526c0.492,0,0.893,0.401,0.893,0.894v3.454
		c0,0.493-0.4,0.894-0.893,0.894h-30.599c-1.13,0-2.049,0.919-2.049,2.048s0.919,2.048,2.049,2.048h30.599
		c0.492,0,0.893,0.401,0.893,0.893v3.598c0,0.493-0.4,0.893-0.893,0.893h-36.936c-1.129,0-2.048,0.919-2.048,2.048
		s0.919,2.048,2.048,2.048h80.992c1.13,0,2.049-0.919,2.049-2.048s-0.919-2.048-2.049-2.048h-37.398
		c-0.474,0-0.858-0.385-0.858-0.858v-3.667c0-0.473,0.385-0.859,0.858-0.859h30.586c1.129,0,2.048-0.919,2.048-2.048
		s-0.919-2.048-2.048-2.048h-30.586c-0.474,0-0.858-0.386-0.858-0.859v-3.524c0-0.473,0.385-0.859,0.858-0.859h25.388
		c2.052,0,3.721-1.669,3.721-3.72v-5.474h8.052c1.104,0,2.001-0.898,2.001-2.001c0-1.103-0.897-2.001-2.001-2.001h-8.052v-5.474
		c0-2.052-1.669-3.721-3.721-3.721h-26.246V3.475c0-1.353-1.101-2.454-2.454-2.454c-1.352,0-2.453,1.101-2.453,2.454v2.882h-29.514
		c-1.144,0-2.073,0.93-2.073,2.073c0,1.142,0.93,2.071,2.073,2.071h28.621c0.492,0,0.893,0.401,0.893,0.894v3.264
		c0,0.492-0.4,0.893-0.893,0.893h-37.125c-1.104,0-2.001,0.898-2.001,2.001C295.881,18.656,296.777,19.554,297.882,19.554
		 M340.807,11.481c0-0.54,0.438-0.98,0.979-0.98h23.103c0.54,0,0.979,0.44,0.979,0.98v3.092c0,0.54-0.439,0.979-0.979,0.979h-23.103
		c-0.54,0-0.979-0.439-0.979-0.979V11.481z M340.807,20.412c0-0.473,0.385-0.858,0.858-0.858h23.343
		c0.474,0,0.859,0.385,0.859,0.858v3.333c0,0.474-0.386,0.859-0.859,0.859h-23.343c-0.474,0-0.858-0.385-0.858-0.859V20.412z"/>
	<path fill="#E71E19" d="M379.326,81.679h-81.469c-1.143,0-2.072,0.931-2.072,2.072c0,1.144,0.93,2.072,2.072,2.072h81.469
		c1.143,0,2.071-0.929,2.071-2.072C381.397,82.61,380.469,81.679,379.326,81.679"/>
	<path fill="#E71E19" d="M395.452,19.554h37.126c0.492,0,0.893,0.4,0.893,0.893v3.264c0,0.493-0.4,0.893-0.893,0.893h-28.526
		c-1.143,0-2.072,0.93-2.072,2.072c0,1.143,0.93,2.072,2.072,2.072h28.526c0.492,0,0.893,0.401,0.893,0.894v3.454
		c0,0.493-0.4,0.894-0.893,0.894h-30.599c-1.13,0-2.049,0.919-2.049,2.048s0.919,2.048,2.049,2.048h30.599
		c0.492,0,0.893,0.401,0.893,0.893v3.598c0,0.493-0.4,0.893-0.893,0.893h-36.935c-1.13,0-2.049,0.919-2.049,2.048
		s0.919,2.048,2.049,2.048h80.991c1.129,0,2.048-0.919,2.048-2.048s-0.919-2.048-2.048-2.048h-37.398
		c-0.474,0-0.858-0.385-0.858-0.858v-3.667c0-0.473,0.385-0.859,0.858-0.859h30.585c1.13,0,2.049-0.919,2.049-2.048
		s-0.919-2.048-2.049-2.048h-30.585c-0.474,0-0.858-0.386-0.858-0.859v-3.524c0-0.473,0.385-0.859,0.858-0.859h25.388
		c2.052,0,3.721-1.669,3.721-3.72v-5.474h8.052c1.104,0,2.001-0.898,2.001-2.001c0-1.103-0.897-2.001-2.001-2.001h-8.052v-5.474
		c0-2.052-1.669-3.721-3.721-3.721h-26.246V3.475c0-1.353-1.101-2.454-2.453-2.454c-1.354,0-2.454,1.101-2.454,2.454v2.882h-29.514
		c-1.143,0-2.072,0.93-2.072,2.073c0,1.142,0.93,2.071,2.072,2.071h28.621c0.492,0,0.893,0.401,0.893,0.894v3.264
		c0,0.492-0.4,0.893-0.893,0.893h-37.126c-1.103,0-2,0.898-2,2.001C393.452,18.656,394.35,19.554,395.452,19.554 M438.378,11.481
		c0-0.54,0.439-0.98,0.979-0.98h23.102c0.54,0,0.979,0.44,0.979,0.98v3.092c0,0.54-0.439,0.979-0.979,0.979h-23.102
		c-0.539,0-0.979-0.439-0.979-0.979V11.481z M438.378,20.412c0-0.473,0.385-0.858,0.858-0.858h23.343
		c0.474,0,0.858,0.385,0.858,0.858v3.333c0,0.474-0.385,0.859-0.858,0.859h-23.343c-0.474,0-0.858-0.385-0.858-0.859V20.412z"/>
	<path fill="#E71E19" d="M476.896,81.679h-81.468c-1.143,0-2.072,0.931-2.072,2.072c0,1.144,0.93,2.072,2.072,2.072h81.468
		c1.143,0,2.072-0.929,2.072-2.072C478.969,82.61,478.039,81.679,476.896,81.679"/>
	<path fill="#E71E19" d="M406.854,52.522c-1.899,0-3.444,1.545-3.444,3.445v16.169c0,1.898,1.545,3.444,3.444,3.444h57.761
		c1.899,0,3.444-1.546,3.444-3.444V55.967c0-1.9-1.545-3.445-3.444-3.445H406.854z M438.188,61.64v-4.611
		c0-0.2,0.162-0.361,0.362-0.361h24.24c0.2,0,0.362,0.161,0.362,0.361v4.611c0,0.201-0.162,0.363-0.362,0.363h-24.24
		C438.35,62.003,438.188,61.841,438.188,61.64 M438.188,66.367c0-0.199,0.162-0.361,0.362-0.361h24.24
		c0.2,0,0.362,0.162,0.362,0.361v4.611c0,0.201-0.162,0.363-0.362,0.363h-24.24c-0.2,0-0.362-0.162-0.362-0.363V66.367z
		 M408.315,61.64v-4.611c0-0.2,0.162-0.361,0.362-0.361h24.24c0.2,0,0.362,0.161,0.362,0.361v4.611c0,0.201-0.162,0.363-0.362,0.363
		h-24.24C408.478,62.003,408.315,61.841,408.315,61.64 M408.315,66.367c0-0.199,0.162-0.361,0.362-0.361h24.24
		c0.2,0,0.362,0.162,0.362,0.361v4.611c0,0.201-0.162,0.363-0.362,0.363h-24.24c-0.2,0-0.362-0.162-0.362-0.363V66.367z"/>
	<path fill="#E71E19" d="M274.284,14.342c0,3.29-2.666,5.956-5.956,5.956c-3.289,0-5.955-2.666-5.955-5.956
		c0-3.289,2.666-5.956,5.955-5.956C271.618,8.386,274.284,11.053,274.284,14.342"/>
</g>
</svg>
