<?xml version="1.0" encoding="utf-8"?>
<!-- Generator: Adobe Illustrator 25.2.3, SVG Export Plug-In . SVG Version: 6.00 Build 0)  -->
<svg version="1.1" id="圖層_1" xmlns="http://www.w3.org/2000/svg" xmlns:xlink="http://www.w3.org/1999/xlink" x="0px" y="0px"
	 viewBox="0 0 857.3 87.5" style="enable-background:new 0 0 857.3 87.5;" xml:space="preserve">
<style type="text/css">
	.st0{fill:none;stroke:#E71E19;stroke-width:3.19;stroke-linecap:round;stroke-linejoin:round;stroke-miterlimit:10;}
	.st1{fill:none;stroke:#E71E19;stroke-width:3.1583;stroke-linecap:round;stroke-linejoin:round;stroke-miterlimit:10;}
	.st2{fill:#E71E19;}
</style>
<g>
	<line class="st0" x1="14.2" y1="24.9" x2="14.2" y2="85.9"/>
	<polyline class="st0" points="14.2,24.9 1.6,24.9 1.6,30.1 14.2,30.1 	"/>
	<path class="st0" d="M1.6,85.9h81 M82.6,56.9H24.7 M82.6,38.3H24.7"/>
	<line class="st0" x1="151" y1="24.9" x2="151" y2="85.9"/>
	<polyline class="st0" points="151,24.9 163.8,24.9 163.8,30.1 151,30.1 	"/>
	<path class="st0" d="M140.5,12.3V70 M151,62.1h10.5"/>
	<path class="st1" d="M161.5,31.2v39c0,5.8-4.7,10.5-10.5,10.5h0c-5.8,0-10.5-4.7-10.5-10.5V12.1c0-5.8,4.7-10.5,10.5-10.5h0
		c5.8,0,10.5,4.7,10.5,10.5v12.8"/>
	<path class="st0" d="M163.6,85.9h-81 M82.6,56.9h57.9 M82.6,38.3h57.9 M82.6,6.8v68.6"/>
	<path class="st2" d="M203.4,37.4c1.4,0,2.5-1.1,2.5-2.5v-6.1c0-1,0.8-1.8,1.8-1.8h66.5c1.2,0,2.2,1,2.2,2.2V35
		c0,1.4,1.1,2.5,2.5,2.5c1.4,0,2.5-1.1,2.5-2.5v-8.2c0-2.3-1.9-4.2-4.2-4.2h-72c-2.3,0-4.1,1.8-4.1,4.1V35
		C201,36.3,202.1,37.4,203.4,37.4"/>
	<path class="st2" d="M244.4,39.3c0.4,0.5,0.9,0.8,1.5,0.8c0.1,0,0.2,0,0.3,0c0.5,0,1-0.2,1.4-0.5l0.1-0.1c0.5-0.4,0.8-0.9,0.9-1.6
		c0.1-0.6-0.1-1.2-0.5-1.7c-2.3-2.7-4.7-5.1-7-7.1c-0.8-0.7-2-0.7-2.8-0.1c-0.5,0.4-0.9,1-0.9,1.7c0,0.7,0.2,1.3,0.8,1.8
		C240.6,34.9,242.7,37.2,244.4,39.3"/>
	<path class="st2" d="M227.2,30.2c-1.3,0-2.4,1.1-2.4,2.4v9.9c0,1.7,0.5,3.2,1.4,4.2c0.9,1.1,2.2,1.7,3.7,1.9
		c1.4,0.2,4.5,0.2,9.5,0.2c7.4,0,12-0.1,14-0.4c2.1-0.3,3.7-1.1,4.7-2.4c0.9-1.1,1.5-3.1,2.1-6.2c0.2-1.1-0.4-2.2-1.4-2.6l0,0
		c-0.7-0.3-1.5-0.3-2.1,0.1c-0.7,0.4-1.1,1-1.2,1.8c-0.5,3-1.3,4.6-2.4,4.8c-1.6,0.3-5.8,0.4-12.6,0.4c-7.3,0-9.4-0.2-9.9-0.4
		c-0.4-0.1-0.9-0.5-0.9-1.7v-9.5C229.7,31.3,228.6,30.2,227.2,30.2"/>
	<path class="st2" d="M280.8,82.1c-12.2-1.8-23.2-4.4-32.6-7.9c0,0-0.1,0-0.1-0.1c0,0,0-0.1,0.1-0.1c7.5-3.7,14-8.2,19.5-13.4
		c0.6-0.5,0.9-1.3,0.9-2.1c0-1.6-1.3-2.9-2.9-2.9l-33.6,0c0.5-0.5,1.1-1,1.8-1.6c0.6-0.5,0.8-1.2,0.8-2c-0.1-0.7-0.5-1.4-1.1-1.8
		c-0.9-0.5-2-0.4-2.8,0.3c-2.9,2.7-6.1,5.1-9.4,7.1c-0.3,0.2-0.8,0.2-1-0.1c-1.4-1.3-2.7-2.6-3.8-3.8c-0.8-0.9-2.2-1-3.2-0.2
		c-0.5,0.4-0.9,1-0.9,1.7c0,0.7,0.2,1.3,0.6,1.8c1,1.1,2.3,2.2,3.6,3.5c-3.9,2-8.4,3.9-13.4,5.7c-0.7,0.2-1.2,0.8-1.4,1.5
		c-0.2,0.7-0.1,1.5,0.4,2.1c0.6,0.8,1.7,1.1,2.6,0.8c5.7-2.1,10.7-4.4,14.9-6.6c0.3-0.2,0.7-0.1,1,0.1c4.8,3.9,9.9,7.2,15.2,9.9
		c0.1,0,0.1,0.1,0.1,0.1c0,0.1-0.1,0.1-0.1,0.1c-10.2,3.4-21.9,6-34.8,8c-0.8,0.1-1.4,0.6-1.8,1.2c-0.3,0.7-0.4,1.5,0,2.1
		c0.5,0.9,1.4,1.4,2.4,1.3c14.8-2.2,28.1-5.4,39.6-9.6c0.5-0.2,1.1-0.2,1.6,0c9.6,4,22.2,7.3,37.3,9.7c0.1,0,0.2,0,0.4,0
		c0.8,0,1.6-0.4,2-1.2c0.4-0.7,0.4-1.5,0.1-2.2C282.3,82.7,281.6,82.2,280.8,82.1 M261.4,60.3c-5.2,4.4-11.4,8.1-18.5,11.1
		c-0.5,0.2-1,0.2-1.5,0c-5.8-2.6-11.1-5.7-15.8-9.2c-0.3-0.2-0.5-0.6-0.4-0.9c0-0.4,0.2-0.7,0.5-0.9c0.2-0.1,0.4-0.2,0.7-0.2h34.9
		c0.1,0,0.1,0,0.1,0.1C261.4,60.2,261.4,60.2,261.4,60.3"/>
	<path class="st2" d="M217.8,33c-1.1-0.6-2.6-0.2-3.2,0.9c-2.5,4.5-6.1,9-10.9,13.5c-0.5,0.5-0.8,1.1-0.7,1.8c0,0.7,0.4,1.3,0.9,1.8
		c0.4,0.3,0.9,0.5,1.5,0.5c0.6,0,1.2-0.2,1.6-0.6c4.5-4.3,8.4-9.2,11.7-14.6c0.3-0.6,0.4-1.2,0.3-1.8
		C218.9,33.9,218.4,33.3,217.8,33"/>
	<path class="st2" d="M264.9,32c-0.6,0.3-1,0.9-1.1,1.6c-0.1,0.7,0.1,1.4,0.5,1.9c3.4,4,6.5,8.6,9.5,13.8c0.3,0.5,0.8,0.9,1.4,1.1
		c0.2,0.1,0.4,0.1,0.6,0.1c0.4,0,0.8-0.1,1.1-0.3l0.2-0.1c0.5-0.3,0.9-0.8,1.1-1.4c0.2-0.6,0.1-1.2-0.3-1.8
		c-3.1-5.2-6.5-10.1-10-14.4C267.2,31.5,265.9,31.3,264.9,32"/>
	<path class="st2" d="M207.3,10.5L207.3,10.5c24.3-0.1,46.9-1.8,67.2-5.2c0.7-0.1,1.3-0.6,1.6-1.3c0.3-0.7,0.2-1.5-0.3-2.1l-0.4,0.3
		l0.4-0.3c-0.6-0.9-1.7-1.3-2.8-1.1c-15.6,3.1-37.9,4.9-66.3,5.2c-0.7,0-1.4,0.4-1.8,1c-0.4,0.6-0.4,1.4-0.1,2
		C205.4,9.9,206.3,10.5,207.3,10.5"/>
	<path class="st2" d="M240.3,12c-0.6,0.3-0.9,0.9-1,1.5c-0.1,0.6,0.1,1.2,0.5,1.7c1.3,1.4,2.5,3,3.5,4.8c0.4,0.7,1.2,1.1,1.9,1.1
		c0.3,0,0.6-0.1,1-0.2l0.5-0.2c0.6-0.3,1-0.8,1.2-1.4c0.2-0.6,0.1-1.3-0.3-1.8c-1.2-1.8-2.5-3.4-3.8-4.9
		C242.9,11.5,241.4,11.3,240.3,12"/>
	<path class="st2" d="M218.5,12.5c-1-0.8-2.5-0.9-3.5,0c-0.5,0.4-0.8,1-0.8,1.6c0,0.6,0.3,1.2,0.8,1.6c1.5,1.2,2.9,2.6,4.3,4.2
		c0.4,0.5,1.1,0.8,1.7,0.8c0.4,0,0.9-0.1,1.2-0.4l0.5-0.3c0.5-0.4,0.9-0.9,0.9-1.6c0.1-0.6-0.1-1.3-0.6-1.8
		C221.5,15.2,220,13.8,218.5,12.5"/>
	<path class="st2" d="M309.3,52.5c-1.9,0-3.4,1.5-3.4,3.4v16.2c0,1.9,1.5,3.4,3.4,3.4H367c1.9,0,3.4-1.5,3.4-3.4V56
		c0-1.9-1.5-3.4-3.4-3.4H309.3z M340.6,61.6V57c0-0.2,0.2-0.4,0.4-0.4h24.2c0.2,0,0.4,0.2,0.4,0.4v4.6c0,0.2-0.2,0.4-0.4,0.4H341
		C340.8,62,340.6,61.8,340.6,61.6 M340.6,66.4c0-0.2,0.2-0.4,0.4-0.4h24.2c0.2,0,0.4,0.2,0.4,0.4V71c0,0.2-0.2,0.4-0.4,0.4H341
		c-0.2,0-0.4-0.2-0.4-0.4V66.4z M310.7,61.6V57c0-0.2,0.2-0.4,0.4-0.4h24.2c0.2,0,0.4,0.2,0.4,0.4v4.6c0,0.2-0.2,0.4-0.4,0.4h-24.2
		C310.9,62,310.7,61.8,310.7,61.6 M310.7,66.4c0-0.2,0.2-0.4,0.4-0.4h24.2c0.2,0,0.4,0.2,0.4,0.4V71c0,0.2-0.2,0.4-0.4,0.4h-24.2
		c-0.2,0-0.4-0.2-0.4-0.4V66.4z"/>
	<path class="st2" d="M297.9,19.6H335c0.5,0,0.9,0.4,0.9,0.9v3.3c0,0.5-0.4,0.9-0.9,0.9h-28.5c-1.1,0-2.1,0.9-2.1,2.1
		c0,1.1,0.9,2.1,2.1,2.1H335c0.5,0,0.9,0.4,0.9,0.9v3.5c0,0.5-0.4,0.9-0.9,0.9h-30.6c-1.1,0-2,0.9-2,2s0.9,2,2,2H335
		c0.5,0,0.9,0.4,0.9,0.9v3.6c0,0.5-0.4,0.9-0.9,0.9h-36.9c-1.1,0-2,0.9-2,2s0.9,2,2,2h81c1.1,0,2-0.9,2-2s-0.9-2-2-2h-37.4
		c-0.5,0-0.9-0.4-0.9-0.9v-3.7c0-0.5,0.4-0.9,0.9-0.9h30.6c1.1,0,2-0.9,2-2s-0.9-2-2-2h-30.6c-0.5,0-0.9-0.4-0.9-0.9v-3.5
		c0-0.5,0.4-0.9,0.9-0.9h25.4c2.1,0,3.7-1.7,3.7-3.7v-5.5h8.1c1.1,0,2-0.9,2-2c0-1.1-0.9-2-2-2h-8.1v-5.5c0-2.1-1.7-3.7-3.7-3.7
		h-26.2V3.5c0-1.4-1.1-2.5-2.5-2.5c-1.4,0-2.5,1.1-2.5,2.5v2.9h-29.5c-1.1,0-2.1,0.9-2.1,2.1c0,1.1,0.9,2.1,2.1,2.1H335
		c0.5,0,0.9,0.4,0.9,0.9v3.3c0,0.5-0.4,0.9-0.9,0.9h-37.1c-1.1,0-2,0.9-2,2C295.9,18.7,296.8,19.6,297.9,19.6 M340.8,11.5
		c0-0.5,0.4-1,1-1h23.1c0.5,0,1,0.4,1,1v3.1c0,0.5-0.4,1-1,1h-23.1c-0.5,0-1-0.4-1-1V11.5z M340.8,20.4c0-0.5,0.4-0.9,0.9-0.9H365
		c0.5,0,0.9,0.4,0.9,0.9v3.3c0,0.5-0.4,0.9-0.9,0.9h-23.3c-0.5,0-0.9-0.4-0.9-0.9V20.4z"/>
	<path class="st2" d="M379.3,81.7h-81.5c-1.1,0-2.1,0.9-2.1,2.1c0,1.1,0.9,2.1,2.1,2.1h81.5c1.1,0,2.1-0.9,2.1-2.1
		C381.4,82.6,380.5,81.7,379.3,81.7"/>
	<path class="st2" d="M395.5,19.6h37.1c0.5,0,0.9,0.4,0.9,0.9v3.3c0,0.5-0.4,0.9-0.9,0.9h-28.5c-1.1,0-2.1,0.9-2.1,2.1
		c0,1.1,0.9,2.1,2.1,2.1h28.5c0.5,0,0.9,0.4,0.9,0.9v3.5c0,0.5-0.4,0.9-0.9,0.9H402c-1.1,0-2,0.9-2,2s0.9,2,2,2h30.6
		c0.5,0,0.9,0.4,0.9,0.9v3.6c0,0.5-0.4,0.9-0.9,0.9h-36.9c-1.1,0-2,0.9-2,2s0.9,2,2,2h81c1.1,0,2-0.9,2-2s-0.9-2-2-2h-37.4
		c-0.5,0-0.9-0.4-0.9-0.9v-3.7c0-0.5,0.4-0.9,0.9-0.9h30.6c1.1,0,2-0.9,2-2s-0.9-2-2-2h-30.6c-0.5,0-0.9-0.4-0.9-0.9v-3.5
		c0-0.5,0.4-0.9,0.9-0.9h25.4c2.1,0,3.7-1.7,3.7-3.7v-5.5h8.1c1.1,0,2-0.9,2-2c0-1.1-0.9-2-2-2h-8.1v-5.5c0-2.1-1.7-3.7-3.7-3.7
		h-26.2V3.5c0-1.4-1.1-2.5-2.5-2.5c-1.4,0-2.5,1.1-2.5,2.5v2.9H404c-1.1,0-2.1,0.9-2.1,2.1c0,1.1,0.9,2.1,2.1,2.1h28.6
		c0.5,0,0.9,0.4,0.9,0.9v3.3c0,0.5-0.4,0.9-0.9,0.9h-37.1c-1.1,0-2,0.9-2,2C393.5,18.7,394.4,19.6,395.5,19.6 M438.4,11.5
		c0-0.5,0.4-1,1-1h23.1c0.5,0,1,0.4,1,1v3.1c0,0.5-0.4,1-1,1h-23.1c-0.5,0-1-0.4-1-1V11.5z M438.4,20.4c0-0.5,0.4-0.9,0.9-0.9h23.3
		c0.5,0,0.9,0.4,0.9,0.9v3.3c0,0.5-0.4,0.9-0.9,0.9h-23.3c-0.5,0-0.9-0.4-0.9-0.9V20.4z"/>
	<path class="st2" d="M476.9,81.7h-81.5c-1.1,0-2.1,0.9-2.1,2.1c0,1.1,0.9,2.1,2.1,2.1h81.5c1.1,0,2.1-0.9,2.1-2.1
		C479,82.6,478,81.7,476.9,81.7"/>
	<path class="st2" d="M406.9,52.5c-1.9,0-3.4,1.5-3.4,3.4v16.2c0,1.9,1.5,3.4,3.4,3.4h57.8c1.9,0,3.4-1.5,3.4-3.4V56
		c0-1.9-1.5-3.4-3.4-3.4H406.9z M438.2,61.6V57c0-0.2,0.2-0.4,0.4-0.4h24.2c0.2,0,0.4,0.2,0.4,0.4v4.6c0,0.2-0.2,0.4-0.4,0.4h-24.2
		C438.4,62,438.2,61.8,438.2,61.6 M438.2,66.4c0-0.2,0.2-0.4,0.4-0.4h24.2c0.2,0,0.4,0.2,0.4,0.4V71c0,0.2-0.2,0.4-0.4,0.4h-24.2
		c-0.2,0-0.4-0.2-0.4-0.4V66.4z M408.3,61.6V57c0-0.2,0.2-0.4,0.4-0.4h24.2c0.2,0,0.4,0.2,0.4,0.4v4.6c0,0.2-0.2,0.4-0.4,0.4h-24.2
		C408.5,62,408.3,61.8,408.3,61.6 M408.3,66.4c0-0.2,0.2-0.4,0.4-0.4h24.2c0.2,0,0.4,0.2,0.4,0.4V71c0,0.2-0.2,0.4-0.4,0.4h-24.2
		c-0.2,0-0.4-0.2-0.4-0.4V66.4z"/>
	<path class="st2" d="M274.3,14.3c0,3.3-2.7,6-6,6c-3.3,0-6-2.7-6-6c0-3.3,2.7-6,6-6C271.6,8.4,274.3,11.1,274.3,14.3"/>
	<path class="st1" d="M3.7,24.9V12.1c0-5.8,4.7-10.5,10.5-10.5h0c5.8,0,10.5,4.7,10.5,10.5v58.1c0,5.8-4.7,10.5-10.5,10.5h0
		C8.4,80.7,3.7,76,3.7,70.2V30.1"/>
	<path class="st0" d="M132.3,75.4H33c-4.6,0-8.3-3.7-8.3-8.3V15.1c0-4.6,3.7-8.3,8.3-8.3h99.3c4.6,0,8.3,3.7,8.3,8.3v52.1
		C140.5,71.7,136.9,75.4,132.3,75.4z"/>
	<line class="st0" x1="14.2" y1="62.1" x2="3.7" y2="62.1"/>
</g>
<g>
	<path class="st2" d="M572.4,85.9h-80.2c-1.4,0-2.1-0.7-2.1-2.1c0-1.5,0.7-2.3,2.1-2.3h37.4V66.7h-28.5c-1.4,0-2.1-0.7-2.1-2.1
		c0-1.4,0.7-2.2,2.1-2.2h28.5V49.8c-9.1,0.4-19.1,0.7-30.1,0.9c-0.7,0.1-1.2-0.1-1.5-0.4c-0.3-0.3-0.5-0.9-0.5-1.7
		c-0.1-1.6,0.5-2.4,1.9-2.4c3.4,0,7.1-0.1,11-0.3c3.4-4.6,6.9-10.2,10.6-16.9h-18c-1.4,0-2.2-0.7-2.2-2.2c0-1.4,0.7-2.1,2.2-2.1
		h59.1c1.4,0,2.2,0.7,2.2,2.1c0,1.4-0.7,2.2-2.2,2.2h-35.8c-4.3,7.1-8,12.7-11,16.8c8.3-0.2,21.9-0.6,40.9-1.2
		c-2.6-2.2-6-4.7-10.3-7.5c-1.2-0.8-1.3-1.6-0.3-2.5c1-0.9,2-1.1,3-0.5c3.8,2.4,7.7,5.1,11.5,8.2c3.8,3.1,6.9,5.9,9.2,8.4
		c0.7,0.9,0.5,1.8-0.6,2.6c-1.1,0.9-2.1,0.9-3,0c-1.3-1.5-3-3.1-4.9-4.9c-3.5,0.2-8.6,0.4-15.2,0.7c-6.6,0.3-10.4,0.4-11.4,0.5v12.7
		h29.2c1.4,0,2.1,0.7,2.1,2.2c0,1.4-0.7,2.1-2.1,2.1h-29.2v14.9h38.1c1.4,0,2.2,0.8,2.2,2.3C574.6,85.2,573.8,85.9,572.4,85.9z
		 M566.9,13.5h-69.4c-0.9,0-1.3,0.4-1.3,1.3v8.6c0,1.4-0.7,2.2-2.2,2.2c-1.6,0-2.4-0.7-2.4-2.2V13.1c0-1.2,0.4-2.2,1.1-2.9
		c0.7-0.7,1.7-1.1,2.9-1.1h34V3.6c0-1.6,0.8-2.4,2.4-2.4c1.6,0,2.4,0.8,2.4,2.4v5.6h34.6c1.3,0,2.2,0.4,2.9,1.1c0.7,0.7,1,1.7,1,2.9
		v10.1c0,1.6-0.8,2.4-2.3,2.4c-1.6,0-2.4-0.8-2.4-2.4v-8.4C568.2,13.9,567.8,13.5,566.9,13.5z"/>
	<path class="st2" d="M589.9,19.9h31.7c-0.7-4-1.2-8.2-1.4-12.7h-15.7c-1.4,0-2.2-0.7-2.2-2.1c0-1.4,0.7-2.2,2.2-2.2h15.8
		c2.5,0,3.8,1.3,4,4c0.3,4.2,0.8,8.6,1.6,13h29.6c1.2,0,2.2,0.4,2.9,1.1c0.7,0.7,1.1,1.7,1.1,2.9v55c0,1.8-0.3,3.2-0.8,4.2
		c-0.5,0.9-1.5,1.6-2.8,2.1c-1.8,0.5-6,0.8-12.5,0.8c-2.3,0-3.6-0.7-4.1-2.1c-0.3-1-0.1-1.7,0.6-2.1c0.7-0.4,1.7-0.6,3-0.6
		c5.2,0.1,8.5,0.1,10,0c1.4-0.1,2.1-0.8,2.1-2.2v-53c0-0.9-0.4-1.4-1.3-1.4h-26.9c3.4,16.5,10.9,27.6,22.5,33.3
		c2,0.9,2.4,2.1,1.1,3.7c-0.9,1.1-2.1,1.3-3.6,0.6c-12-6.3-19.9-17.7-23.8-34.3c-3.8,16-11.9,27.5-24.3,34.6
		c-1.4,0.8-2.6,0.7-3.6-0.3c-1.4-1.4-1-2.6,1-3.7c6.3-3.6,11.3-8.1,15.1-13.7c3.8-5.5,6.4-12.3,7.9-20.2h-27.4
		c-0.9,0-1.3,0.5-1.3,1.4v57.8c0,1.5-0.7,2.3-2.2,2.3c-1.6,0-2.4-0.8-2.4-2.3V23.9c0-1.2,0.4-2.2,1.1-2.9
		C587.8,20.3,588.7,19.9,589.9,19.9z"/>
	<path class="st2" d="M672.2,17.2h31.4c1.3,0,2,0.7,2,2c0,1.4-0.7,2.2-2,2.2h-31.4c-1.4,0-2.1-0.7-2.1-2.2
		C670.1,17.9,670.8,17.2,672.2,17.2z M700.3,34.1h-23.8c-1.4,0-2.1-0.7-2.1-2c0-1.4,0.7-2.1,2.1-2.1h23.8c1.3,0,2,0.7,2,2.1
		C702.3,33.5,701.7,34.1,700.3,34.1z M700.4,46.8h-24c-1.3,0-2-0.7-2-2c0-1.3,0.7-2,2-2h24c1.3,0,1.9,0.7,1.9,2
		C702.3,46.1,701.7,46.8,700.4,46.8z M678.4,55.6h19.9c1.3,0,2.2,0.3,2.9,1c0.7,0.7,1,1.7,1,2.9V79c0,1.3-0.3,2.2-1,2.9
		c-0.7,0.7-1.7,1-2.9,1h-19.9c-1.2,0-2.2-0.3-2.9-1c-0.7-0.7-1.1-1.7-1.1-2.9V59.6c0-1.3,0.4-2.2,1.1-2.9
		C676.3,56,677.3,55.6,678.4,55.6z M677,4.9h23.1c1.3,0,1.9,0.6,1.9,1.9c0,1.4-0.6,2.1-1.9,2.1H677c-1.3,0-2-0.7-2-2.1
		C675.1,5.5,675.7,4.9,677,4.9z M680.1,78.8h16.8c0.9,0,1.3-0.4,1.3-1.3V61c0-0.9-0.4-1.3-1.3-1.3h-16.8c-0.9,0-1.4,0.4-1.4,1.3
		v16.5C678.6,78.4,679.1,78.8,680.1,78.8z M718,4.4h20.8c1.3,0,2.2,0.4,2.9,1.1c0.7,0.7,1,1.7,1,2.9v20.9c0,0.9,0.1,1.5,0.4,1.8
		c0.3,0.3,0.9,0.4,1.8,0.4h6.2c0.8,0,1.3-0.3,1.7-0.9c0.3-0.6,0.5-1.9,0.6-3.8c0.1-1.4,0.3-2.7,0.8-3.9c0.5-1.2,1.1-1.6,1.9-1.3
		c0.5,0.2,0.9,0.8,1.1,1.8c0.2,1,0.3,1.9,0.2,2.7c-0.3,3.8-0.8,6.3-1.6,7.7c-0.8,1.4-2.2,2-4.2,2h-7.3c-2.5,0-4.1-0.4-5-1.3
		c-0.8-0.9-1.3-2.6-1.3-5.2V10.1c0-0.9-0.4-1.3-1.3-1.3h-17.1c-0.9,0-1.4,0.4-1.4,1.3v6.1c0,9.6-3.3,17.2-9.9,22.6
		c-1.6,1.1-2.9,1.2-3.9,0.3c-1.3-1.3-0.8-2.6,1.2-4.2c5.4-4.6,8.1-10.9,8.1-18.9V8.4c0-1.2,0.3-2.2,1-2.9
		C715.7,4.8,716.7,4.4,718,4.4z M709,41h37.9c3,0,4,1.7,3,5c-3.3,9.9-8.6,18.2-15.7,24.8c5.8,4.8,12.5,8.5,20.1,10.9
		c2.4,0.6,2.9,1.7,1.6,3.4c-0.8,1-1.9,1.3-3.2,0.8c-8.2-2.7-15.5-6.8-22-12.2c-6.6,5.3-14.2,9.4-22.9,12.3c-1.4,0.5-2.5,0.1-3.3-1.1
		c-1.1-1.6-0.6-2.6,1.4-3.2c7.9-2.5,15.1-6.2,21.5-11.1c-5.9-5.9-10.6-13.1-14.1-21.5c-0.5-1.3-0.1-2.2,1.3-2.7
		c1.4-0.4,2.4,0.1,2.8,1.3c3,7.7,7.4,14.3,13.2,20c6.7-6,11.6-13.5,14.8-22.4H709c-1.4,0-2.2-0.7-2.2-2.2
		C706.8,41.7,707.6,41,709,41z"/>
	<path class="st2" d="M802.8,21.4h-33c-1.4,0-2.1-0.7-2.1-2.2c0-1.3,0.7-2,2.1-2h33c1.3,0,2,0.7,2,2
		C804.8,20.7,804.2,21.4,802.8,21.4z M799.3,34.1h-25.1c-1.4,0-2.1-0.7-2.1-2c0-1.4,0.7-2.1,2.1-2.1h25.1c1.4,0,2.1,0.7,2.1,2.1
		C801.3,33.5,800.6,34.1,799.3,34.1z M799.3,46.8h-25.3c-1.3,0-2-0.7-2-2c0-1.3,0.7-2,2-2h25.3c1.3,0,2,0.7,2,2
		C801.3,46.1,800.7,46.8,799.3,46.8z M776,55.6H797c1.2,0,2.2,0.3,2.9,1c0.7,0.7,1.1,1.7,1.1,2.9V79c0,1.3-0.4,2.2-1.1,2.9
		c-0.7,0.7-1.7,1-2.9,1H776c-1.2,0-2.2-0.3-2.9-1c-0.7-0.7-1.1-1.7-1.1-2.9V59.6c0-1.3,0.4-2.2,1.1-2.9
		C773.9,56,774.9,55.6,776,55.6z M774.6,4.9h24.7c1.3,0,2,0.6,2,1.9c0,1.4-0.7,2.1-2,2.1h-24.7c-1.3,0-2-0.7-2-2.1
		C772.6,5.5,773.3,4.9,774.6,4.9z M777.7,78.8h17.6c0.9,0,1.3-0.4,1.3-1.3V61c0-0.9-0.4-1.3-1.3-1.3h-17.6c-0.9,0-1.4,0.4-1.4,1.3
		v16.5C776.3,78.4,776.8,78.8,777.7,78.8z M807.2,34.5h20.4V3.8c0-1.6,0.8-2.4,2.4-2.4c1.5,0,2.3,0.8,2.3,2.4v30.8h20.2
		c1.5,0,2.3,0.8,2.3,2.3c0,1.5-0.8,2.3-2.3,2.3h-20.2v44.7c0,1.6-0.8,2.4-2.3,2.4c-1.6,0-2.4-0.8-2.4-2.4V39h-20.4
		c-1.5,0-2.3-0.8-2.3-2.3C804.9,35.3,805.7,34.5,807.2,34.5z"/>
</g>
</svg>
