<?xml version="1.0" encoding="utf-8"?>
<!-- Generator: Adobe Illustrator 16.0.3, SVG Export Plug-In . SVG Version: 6.00 Build 0)  -->
<!DOCTYPE svg PUBLIC "-//W3C//DTD SVG 1.1//EN" "http://www.w3.org/Graphics/SVG/1.1/DTD/svg11.dtd">
<svg version="1.1" id="人物著色" xmlns="http://www.w3.org/2000/svg" xmlns:xlink="http://www.w3.org/1999/xlink" x="0px"
	 y="0px" width="160.334px" height="160.334px" viewBox="0 0 160.334 160.334" enable-background="new 0 0 160.334 160.334"
	 xml:space="preserve">
<g>
	<circle fill="#FFC2C4" cx="80.167" cy="80.167" r="80.167"/>
	
		<rect x="27.997" y="52" fill="#FFC2C4" stroke="#36AF9B" stroke-width="4" stroke-linecap="round" stroke-linejoin="round" stroke-miterlimit="10" width="104" height="70"/>
	<circle fill="#FFFFFF" cx="66.997" cy="99" r="8"/>
	
		<rect x="27.997" y="52" fill="none" stroke="#36AF9B" stroke-width="4" stroke-linecap="round" stroke-linejoin="round" stroke-miterlimit="10" width="104" height="12"/>
	
		<line fill="none" stroke="#36AF9B" stroke-width="4" stroke-linecap="round" stroke-linejoin="round" stroke-miterlimit="10" x1="48.497" y1="50.715" x2="78.71" y2="28.502"/>
	
		<line fill="none" stroke="#36AF9B" stroke-width="4" stroke-linecap="round" stroke-linejoin="round" stroke-miterlimit="10" x1="83.497" y1="28.502" x2="113.71" y2="50.715"/>
	
		<circle fill="#FFC2C4" stroke="#36AF9B" stroke-width="4" stroke-linecap="round" stroke-linejoin="round" stroke-miterlimit="10" cx="81.497" cy="29" r="6.5"/>
	<rect x="63.997" y="74" fill="#36AF9B" width="6" height="6"/>
	<rect x="76.997" y="74" fill="#36AF9B" width="6" height="6"/>
	<rect x="89.997" y="74" fill="#36AF9B" width="6" height="6"/>
	<rect x="102.997" y="74" fill="#36AF9B" width="6" height="6"/>
	<rect x="115.997" y="74" fill="#36AF9B" width="6" height="6"/>
	<rect x="37.997" y="85" fill="#36AF9B" width="6" height="6"/>
	<rect x="50.997" y="85" fill="#36AF9B" width="6" height="6"/>
	<rect x="63.997" y="85" fill="#36AF9B" width="6" height="6"/>
	<rect x="76.997" y="85" fill="#36AF9B" width="6" height="6"/>
	<rect x="89.997" y="85" fill="#36AF9B" width="6" height="6"/>
	<rect x="102.997" y="85" fill="#36AF9B" width="6" height="6"/>
	<rect x="115.997" y="85" fill="#36AF9B" width="6" height="6"/>
	<rect x="37.997" y="96" fill="#36AF9B" width="6" height="6"/>
	<rect x="50.997" y="96" fill="#36AF9B" width="6" height="6"/>
	<rect x="63.997" y="96" fill="#36AF9B" width="6" height="6"/>
	<rect x="76.997" y="96" fill="#36AF9B" width="6" height="6"/>
	<rect x="89.997" y="96" fill="#36AF9B" width="6" height="6"/>
	<rect x="102.997" y="96" fill="#36AF9B" width="6" height="6"/>
	<rect x="115.997" y="96" fill="#36AF9B" width="6" height="6"/>
	<rect x="37.997" y="107" fill="#36AF9B" width="6" height="6"/>
	<rect x="50.997" y="107" fill="#36AF9B" width="6" height="6"/>
	<rect x="63.997" y="107" fill="#36AF9B" width="6" height="6"/>
	<rect x="76.997" y="107" fill="#36AF9B" width="6" height="6"/>
	<rect x="89.997" y="107" fill="#36AF9B" width="6" height="6"/>
</g>
</svg>
