<?xml version="1.0" encoding="utf-8"?>
<!-- Generator: Adobe Illustrator 16.0.3, SVG Export Plug-In . SVG Version: 6.00 Build 0)  -->
<!DOCTYPE svg PUBLIC "-//W3C//DTD SVG 1.1//EN" "http://www.w3.org/Graphics/SVG/1.1/DTD/svg11.dtd">
<svg version="1.1" id="人物著色" xmlns="http://www.w3.org/2000/svg" xmlns:xlink="http://www.w3.org/1999/xlink" x="0px"
	 y="0px" width="160.334px" height="160.334px" viewBox="0 0 160.334 160.334" enable-background="new 0 0 160.334 160.334"
	 xml:space="preserve">
<g>
	<circle fill="#FFC2C4" cx="80.167" cy="80.167" r="80.167"/>
	
		<path fill="#FFC2C4" stroke="#36AF9B" stroke-width="4" stroke-linecap="round" stroke-linejoin="round" stroke-miterlimit="10" d="
		M116.968,61.955c2.652,2.653,2.652,6.956,0,9.608L75.22,113.311c-2.654,2.654-6.955,2.654-9.608,0L42.753,90.452
		c-2.652-2.652-2.652-6.954,0-9.606l41.748-41.748c2.652-2.653,6.955-2.653,9.608,0L116.968,61.955z"/>
	
		<line fill="none" stroke="#36AF9B" stroke-width="4" stroke-linecap="round" stroke-linejoin="round" stroke-miterlimit="10" x1="72.997" y1="115" x2="132.997" y2="115"/>
	
		<line fill="none" stroke="#36AF9B" stroke-width="4" stroke-linecap="round" stroke-linejoin="round" stroke-miterlimit="10" x1="50.193" y1="113.414" x2="40.983" y2="114.777"/>
	
		<line fill="none" stroke="#36AF9B" stroke-width="4" stroke-linecap="round" stroke-linejoin="round" stroke-miterlimit="10" x1="55.999" y1="123.537" x2="47.916" y2="128.457"/>
	<path fill="#FFFFFF" d="M98.597,62.286c2.391,2.39,2.391,6.265,0,8.653L68.89,100.647c-2.39,2.39-6.265,2.39-8.654,0L49.708,90.121
		c-2.389-2.39-2.389-6.264,0-8.654L79.416,51.76c2.39-2.389,6.266-2.389,8.655,0L98.597,62.286z"/>
	
		<line fill="none" stroke="#36AF9B" stroke-width="4" stroke-linecap="round" stroke-linejoin="round" stroke-miterlimit="10" x1="49.755" y1="73.844" x2="75.139" y2="99.227"/>
</g>
</svg>
