<?xml version="1.0" encoding="utf-8"?>
<!-- Generator: Adobe Illustrator 16.0.3, SVG Export Plug-In . SVG Version: 6.00 Build 0)  -->
<!DOCTYPE svg PUBLIC "-//W3C//DTD SVG 1.1//EN" "http://www.w3.org/Graphics/SVG/1.1/DTD/svg11.dtd">
<svg version="1.1" id="人物著色" xmlns="http://www.w3.org/2000/svg" xmlns:xlink="http://www.w3.org/1999/xlink" x="0px"
	 y="0px" width="160.334px" height="160.334px" viewBox="0 0 160.334 160.334" enable-background="new 0 0 160.334 160.334"
	 xml:space="preserve">
<g>
	<circle fill="#FFC2C4" cx="80.167" cy="80.167" r="80.167"/>
	
		<path fill="#FFFFFF" stroke="#36AF9B" stroke-width="4" stroke-linecap="round" stroke-linejoin="round" stroke-miterlimit="10" d="
		M66.649,123.769l-19.903-20.487c0,0-6.825-6.699-3.605-11.111c5.192-7.112,9.856-10.069,9.856-10.069V96V73.5
		c0,0,10.725-13.5,19.026-13.5c4.087,0,29.014,5.285,32.46,8.174c5.879,4.928,6.514,8.738,6.514,19.116c0,10.379,0,23.179,0,23.179
		S108.845,126,97.081,126s-26.641,0-26.641,0L66.649,123.769z"/>
	
		<line fill="none" stroke="#36AF9B" stroke-width="4" stroke-linecap="round" stroke-linejoin="round" stroke-miterlimit="10" x1="68.997" y1="62" x2="68.997" y2="83"/>
	
		<line fill="none" stroke="#36AF9B" stroke-width="4" stroke-linecap="round" stroke-linejoin="round" stroke-miterlimit="10" x1="81.997" y1="62" x2="81.997" y2="83"/>
	
		<line fill="none" stroke="#36AF9B" stroke-width="4" stroke-linecap="round" stroke-linejoin="round" stroke-miterlimit="10" x1="94.997" y1="66" x2="94.997" y2="83"/>
	
		<line fill="none" stroke="#36AF9B" stroke-width="4" stroke-linecap="round" stroke-linejoin="round" stroke-miterlimit="10" x1="81.997" y1="47" x2="81.997" y2="26"/>
	
		<line fill="none" stroke="#36AF9B" stroke-width="4" stroke-linecap="round" stroke-linejoin="round" stroke-miterlimit="10" x1="95.997" y1="47" x2="102.33" y2="33.668"/>
	
		<line fill="none" stroke="#36AF9B" stroke-width="4" stroke-linecap="round" stroke-linejoin="round" stroke-miterlimit="10" x1="107.663" y1="54" x2="117.997" y2="45.334"/>
	
		<line fill="none" stroke="#36AF9B" stroke-width="4" stroke-linecap="round" stroke-linejoin="round" stroke-miterlimit="10" x1="69.997" y1="47" x2="63.664" y2="33.668"/>
	
		<line fill="none" stroke="#36AF9B" stroke-width="4" stroke-linecap="round" stroke-linejoin="round" stroke-miterlimit="10" x1="58.331" y1="54" x2="47.997" y2="45.334"/>
</g>
</svg>
