<?xml version="1.0" encoding="utf-8"?>
<!-- Generator: Adobe Illustrator 16.0.3, SVG Export Plug-In . SVG Version: 6.00 Build 0)  -->
<!DOCTYPE svg PUBLIC "-//W3C//DTD SVG 1.1//EN" "http://www.w3.org/Graphics/SVG/1.1/DTD/svg11.dtd">
<svg version="1.1" id="人物著色" xmlns="http://www.w3.org/2000/svg" xmlns:xlink="http://www.w3.org/1999/xlink" x="0px"
	 y="0px" width="160.334px" height="160.334px" viewBox="0 0 160.334 160.334" enable-background="new 0 0 160.334 160.334"
	 xml:space="preserve">
<g>
	<circle fill="#FFC2C4" cx="80.167" cy="80.167" r="80.167"/>
	<g>
		<path fill="#FFFFFF" stroke="#36AF9B" stroke-width="4" stroke-miterlimit="10" d="M110.79,118.199
			c-1.356,1.296-2.732,2.65-4.026,4.172c-2.106,2.255-4.59,3.318-7.844,3.318c-0.312,0-0.646,0-0.958-0.021
			c-6.195-0.396-11.954-2.817-16.271-4.882c-11.808-5.716-22.175-13.829-30.788-24.112C43.79,88.1,39.032,80.174,35.884,71.664
			c-1.94-5.195-2.648-9.241-2.338-13.059c0.21-2.441,1.148-4.464,2.88-6.196l7.112-7.112c1.023-0.959,2.108-1.48,3.171-1.48
			c1.315,0,2.378,0.792,3.046,1.46c0.021,0.021,0.041,0.041,0.062,0.063c1.273,1.188,2.482,2.418,3.755,3.732
			c0.647,0.669,1.315,1.334,1.981,2.024l5.696,5.692c2.211,2.213,2.211,4.257-0.001,6.467c-0.605,0.605-1.189,1.212-1.794,1.795
			c-1.751,1.793-3.42,3.463-5.236,5.088c-0.041,0.043-0.082,0.063-0.104,0.106c-1.794,1.794-1.461,3.544-1.084,4.735
			c0.021,0.062,0.041,0.126,0.062,0.188c1.482,3.587,3.567,6.966,6.737,10.992l0.021,0.021c5.758,7.092,11.828,12.62,18.523,16.854
			c0.855,0.543,1.731,0.981,2.565,1.398c0.752,0.375,1.462,0.729,2.064,1.105c0.084,0.042,0.168,0.104,0.251,0.145
			c0.711,0.355,1.377,0.521,2.065,0.521c1.73,0,2.817-1.083,3.17-1.439l7.134-7.132c0.709-0.711,1.836-1.565,3.151-1.565
			c1.292,0,2.356,0.814,3.002,1.523c0.022,0.021,0.022,0.021,0.042,0.042l11.495,11.492c2.148,2.13,2.148,4.319,0.021,6.53
			C113.335,115.656,111.686,117.325,110.79,118.199z"/>
		<path fill="none" stroke="#36AF9B" stroke-width="4" stroke-linecap="round" stroke-miterlimit="10" d="M76.491,51.348
			c18.608,0,33.666,15.058,33.666,33.666"/>
		<path fill="none" stroke="#36AF9B" stroke-width="4" stroke-linecap="round" stroke-miterlimit="10" d="M78.107,34.644
			c26.948,0.001,48.752,21.806,48.752,48.752"/>
	</g>
</g>
</svg>
