<?xml version="1.0" encoding="utf-8"?>
<!-- Generator: Adobe Illustrator 16.0.3, SVG Export Plug-In . SVG Version: 6.00 Build 0)  -->
<!DOCTYPE svg PUBLIC "-//W3C//DTD SVG 1.1//EN" "http://www.w3.org/Graphics/SVG/1.1/DTD/svg11.dtd">
<svg version="1.1" id="人物著色" xmlns="http://www.w3.org/2000/svg" xmlns:xlink="http://www.w3.org/1999/xlink" x="0px"
	 y="0px" width="160.334px" height="160.334px" viewBox="0 0 160.334 160.334" enable-background="new 0 0 160.334 160.334"
	 xml:space="preserve">
<g>
	<circle fill="#FFC2C4" cx="80.167" cy="80.167" r="80.167"/>
	
		<rect x="25.997" y="37" fill="#FFC2C4" stroke="#36AF9B" stroke-width="4" stroke-linecap="round" stroke-linejoin="round" stroke-miterlimit="10" width="62" height="74"/>
	<g>
		<path fill="#0FC0A7" d="M39.861,62.149l-1.636,4.956h-2.104l5.354-15.756h2.455l5.376,15.756h-2.174l-1.684-4.956H39.861z
			 M45.028,60.561l-1.543-4.535c-0.351-1.029-0.585-1.964-0.818-2.876H42.62c-0.233,0.936-0.491,1.894-0.795,2.853l-1.543,4.559
			H45.028z"/>
	</g>
	
		<rect x="68.997" y="58" fill="#FFFFFF" stroke="#36AF9B" stroke-width="4" stroke-linecap="round" stroke-linejoin="round" stroke-miterlimit="10" width="62" height="74"/>
	<g>
		<path fill="#0FC0A7" d="M80.313,72.561c0.889-0.188,2.291-0.328,3.717-0.328c2.034,0,3.343,0.352,4.325,1.146
			c0.818,0.608,1.309,1.543,1.309,2.782c0,1.52-1.005,2.852-2.665,3.46v0.047c1.496,0.374,3.25,1.612,3.25,3.95
			c0,1.355-0.538,2.385-1.333,3.156c-1.099,1.005-2.875,1.473-5.446,1.473c-1.402,0-2.479-0.094-3.156-0.188V72.561z M82.348,79.012
			h1.847c2.15,0,3.413-1.122,3.413-2.642c0-1.847-1.403-2.571-3.46-2.571c-0.936,0-1.473,0.07-1.8,0.141V79.012z M82.348,86.563
			c0.397,0.07,0.981,0.094,1.706,0.094c2.104,0,4.044-0.771,4.044-3.063c0-2.15-1.847-3.039-4.067-3.039h-1.683V86.563z"/>
	</g>
</g>
</svg>
