<svg width="121" height="100" viewBox="0 0 121 100" fill="none" xmlns="http://www.w3.org/2000/svg">
<path d="M97.7273 48.0599C71.9489 48.0599 46.3004 48.0599 20.522 48.0599C21.4157 36.1547 26.4609 26.462 35.9907 19.2411C47.7222 10.3507 63.6214 8.93243 76.6041 15.7643C89.5542 22.5719 96.3868 33.5208 97.7273 48.0599ZM43.7575 23.4634C42.6039 28.099 41.4665 32.6617 40.3128 37.2163C40.2722 37.3622 40.0285 37.5567 39.8741 37.5567C39.3623 37.5729 39.2242 37.8242 39.2485 38.278C39.3135 39.445 40.3941 40.458 41.6208 40.4662C43.2457 40.4743 44.8787 40.4743 46.5035 40.4662C47.7303 40.458 48.7621 39.5017 48.8839 38.278C48.9246 37.8485 48.7865 37.5486 48.3071 37.581C47.9578 37.6053 47.8359 37.4433 47.7628 37.1353C47.3566 35.4253 46.926 33.7234 46.5035 32.0215C45.813 29.2417 45.1224 26.4701 44.4156 23.6984C44.3181 23.3337 44.3993 23.1635 44.7487 23.0014C45.3499 22.7259 45.9186 22.3693 46.5117 22.0695C48.3559 21.1375 50.6957 21.4454 52.2149 22.8394C52.808 23.3823 53.3442 23.9821 53.921 24.5413C54.9203 25.5057 55.9358 25.6191 57.1464 24.9384C57.6257 24.6709 57.8288 24.7844 57.8288 25.3355C57.8288 26.9563 57.8288 28.5853 57.8288 30.2061C57.8288 31.1706 57.8288 31.1868 56.8864 31.2111C56.4558 31.2192 56.2527 31.4056 56.2527 31.827C56.2527 32.3214 56.2121 32.8238 56.2771 33.3101C56.3014 33.5127 56.5127 33.8206 56.6833 33.8531C57.2195 33.9503 57.3332 34.2583 57.3251 34.7283C57.317 36.3168 57.3089 37.9052 57.3332 39.4936C57.3414 39.9232 57.2032 40.0528 56.7889 40.0609C55.5865 40.0853 54.8472 40.6363 54.4491 41.7709C54.3597 42.0222 54.2379 42.0951 53.986 42.1356C52.8892 42.2896 52.0687 43.1568 51.9224 44.259C51.8574 44.7776 52.0281 44.9883 52.5643 44.9883C56.8864 44.9883 61.2004 44.9883 65.5225 44.9883C66.075 44.9883 66.2456 44.7776 66.1643 44.2184C65.9937 43.1081 65.1894 42.3139 64.0683 42.1113C63.922 42.087 63.7271 41.9573 63.6783 41.8277C63.264 40.6607 62.4678 40.0366 61.2085 40.0528C60.8917 40.0528 60.7536 39.9556 60.7536 39.6071C60.7698 37.9457 60.7617 36.2925 60.7617 34.6311C60.7617 34.2178 60.8998 33.9341 61.3466 33.8774C61.6716 33.8369 61.826 33.6343 61.826 33.3182C61.8341 32.8076 61.8341 32.2889 61.826 31.7784C61.8178 31.4056 61.631 31.2111 61.2491 31.2111C61.0785 31.2111 60.9079 31.1949 60.7373 31.2111C60.3473 31.2516 60.2417 31.0895 60.2417 30.7086C60.258 28.9338 60.2499 27.1508 60.2499 25.376C60.2499 24.7601 60.4855 24.6304 61.0298 24.9384C62.1834 25.5867 63.2071 25.4814 64.182 24.5818C64.7426 24.055 65.2544 23.4796 65.8069 22.9447C67.1068 21.6967 68.6585 21.332 70.4052 21.6642C71.6158 21.8912 72.5988 22.5962 73.655 23.1554C73.7443 23.2041 73.7768 23.4796 73.7362 23.6255C72.6313 28.1314 71.5101 32.6293 70.389 37.1272C70.3159 37.4189 70.2103 37.6216 69.8528 37.5891C69.4466 37.5567 69.276 37.7674 69.2841 38.1807C69.2922 39.3721 70.3565 40.458 71.6076 40.4743C73.2731 40.4905 74.9305 40.4905 76.596 40.4743C77.8146 40.458 78.8464 39.4531 78.9358 38.2375C78.9601 37.8566 78.822 37.5729 78.4077 37.5891C78.0177 37.6053 77.8958 37.4514 77.8065 37.0867C76.9778 33.7072 76.1247 30.3358 75.2798 26.9563C74.9955 25.8055 74.7111 24.6547 74.4186 23.4634C75.3854 23.6417 76.2547 23.5768 77.0428 23.0663C78.2696 22.2802 78.3671 20.716 77.2378 19.8084C76.9047 19.5409 76.5472 19.5247 76.1897 19.7273C75.816 19.9461 75.7023 20.3027 75.8079 20.6998C75.9135 21.0969 76.1979 21.332 76.6285 21.3482C76.7584 21.3563 76.8884 21.3482 77.0347 21.3482C77.059 21.8506 76.7747 22.1262 76.3928 22.3288C75.5154 22.7988 74.6867 22.5962 73.8581 22.1586C72.6069 21.494 71.3477 20.8295 70.0559 20.2298C67.1393 18.8845 65.1244 19.314 62.9715 21.6723C62.809 21.8506 62.614 22.0046 62.4922 22.1181C62.1347 21.6723 61.8178 21.2833 61.501 20.8862C61.0542 20.327 60.5911 19.7759 60.1686 19.1924C59.7949 18.6738 59.5593 18.1146 59.5349 17.4419C59.5105 16.8098 59.2993 16.1858 59.1774 15.5617C59.1043 15.5698 59.0312 15.5698 58.9581 15.5779C58.8362 16.1371 58.6412 16.6963 58.6087 17.2717C58.5762 17.9687 58.3731 18.5846 57.9669 19.1276C57.2114 20.1244 56.4233 21.105 55.6271 22.1181C55.3671 21.8425 55.1153 21.567 54.8472 21.3077C54.4735 20.9592 54.1079 20.5864 53.6935 20.2946C51.9631 19.1114 50.1432 19.3221 48.364 20.1163C46.9747 20.7322 45.6424 21.4778 44.2775 22.1505C43.8956 22.3369 43.4894 22.5071 43.0751 22.5719C42.092 22.7421 41.1902 22.1343 41.1415 21.2914C41.2309 21.3077 41.304 21.332 41.3852 21.3401C41.8483 21.3806 42.1814 21.1942 42.352 20.7485C42.5145 20.3189 42.3601 19.9623 41.9945 19.7273C41.6046 19.4761 41.2309 19.5328 40.8815 19.8651C39.7847 20.9024 39.9553 22.3612 41.2634 23.123C42.0189 23.5768 42.8395 23.6174 43.7575 23.4634Z" fill="white"/>
<path d="M19.6039 48.068C14.9893 48.068 10.4235 48.068 5.8251 48.068C5.8251 47.2251 5.8251 46.4147 5.8251 45.5556C6.76752 45.5556 7.68557 45.5556 8.65236 45.5556C8.7661 44.6885 8.86359 43.8618 8.97733 43.0433C10.0254 35.5469 12.6333 28.6177 16.9067 22.3693C24.7141 10.9423 35.4301 3.7538 49.022 1.02266C59.3561 -1.06014 69.4303 0.0420441 79.0819 4.29679C89.9929 9.10262 98.1903 16.8584 103.69 27.4102C106.152 32.1269 107.712 37.1434 108.549 42.3869C108.695 43.2783 108.793 44.1779 108.866 45.0775C108.898 45.4341 109.012 45.5475 109.361 45.5394C110.239 45.5232 111.108 45.5313 111.985 45.5394C112.099 45.5394 112.213 45.5637 112.351 45.58C112.351 46.4147 112.351 47.2251 112.351 48.0599C107.753 48.0599 103.187 48.0599 98.6128 48.0599C97.8003 36.5842 93.1207 27.0455 84.2734 19.6787C76.9534 13.5843 68.4391 10.5533 58.8931 10.6262C48.4371 10.6992 39.3703 14.3785 31.8147 21.567C24.2673 28.7555 20.3107 37.654 19.6039 48.068ZM56.8457 4.79925C56.8295 4.83167 56.8132 4.87219 56.7889 4.90461C57.1301 5.15584 57.4551 5.43139 57.8125 5.6502C58.0806 5.82039 58.1375 5.99058 58.0238 6.27423C57.8775 6.67134 57.7638 7.08466 57.5932 7.62764C58.0887 7.27105 58.4381 6.99551 58.8199 6.77669C58.9499 6.70376 59.2018 6.70376 59.3318 6.77669C59.7299 7.01172 60.0873 7.29537 60.5585 7.63575C60.4123 7.1576 60.3473 6.80101 60.1929 6.48494C59.9573 6.023 60.1036 5.74745 60.526 5.51243C60.8266 5.34224 61.0947 5.11532 61.371 4.90461C60.8998 4.79925 60.4773 4.78304 60.0548 4.79925C59.7461 4.81546 59.5836 4.7101 59.5024 4.41025C59.3886 3.99693 59.2424 3.59172 59.0637 3.04873C58.8849 3.59172 58.7306 3.97262 58.6331 4.36973C58.5518 4.6939 58.3975 4.81546 58.0644 4.79925C57.6663 4.77494 57.2519 4.79925 56.8457 4.79925ZM49.2089 8.73793C48.9002 8.27598 48.6971 7.91129 48.4452 7.60333C48.2096 7.31968 48.2502 7.11707 48.4777 6.85774C48.7539 6.54977 48.9895 6.20129 49.3145 5.77176C48.7702 5.93385 48.3396 6.03921 47.9252 6.17698C47.649 6.26613 47.4784 6.2094 47.324 5.96627C47.0966 5.60157 46.8366 5.2612 46.5929 4.91271C46.5522 4.92892 46.5116 4.93702 46.471 4.95323C46.471 5.49622 46.471 6.03921 46.471 6.58219C45.886 6.76049 45.358 6.92257 44.838 7.08466C45.1955 7.31158 45.5529 7.45745 45.9185 7.56281C46.276 7.66816 46.4466 7.84646 46.3898 8.25978C46.3329 8.64878 46.3816 9.054 46.3816 9.54836C46.6985 9.14314 46.9828 8.80276 47.2347 8.44617C47.3972 8.21115 47.5596 8.14632 47.8277 8.25978C48.234 8.42186 48.6564 8.54343 49.2089 8.73793ZM14.9568 40.4662C14.8675 41.0578 14.7781 41.6089 14.6968 42.16C14.7456 42.2005 14.7943 42.241 14.835 42.2815C15.1356 41.933 15.4362 41.5927 15.7286 41.2361C15.8992 41.0335 16.0536 41.001 16.2973 41.1388C16.6873 41.3657 17.0935 41.544 17.6053 41.7953C17.2966 41.1712 17.0529 40.6769 16.7685 40.1015C17.1585 39.7287 17.5485 39.3559 18.0278 38.8939C17.4997 38.975 17.0691 39.0641 16.6386 39.0884C16.4679 39.0965 16.2242 38.975 16.1348 38.8372C15.8911 38.4644 15.7124 38.0511 15.4443 37.5324C15.3224 38.2294 15.2249 38.7724 15.1274 39.3235C14.5506 39.4207 14.0063 39.5099 13.332 39.6233C13.9494 39.9394 14.4369 40.1906 14.9568 40.4662ZM17.2316 27.5642C17.581 27.9207 17.8734 28.253 18.2065 28.5367C18.4665 28.7555 18.4828 28.95 18.3203 29.2336C18.1172 29.5983 17.9628 29.9792 17.7272 30.4817C18.1822 30.2386 18.5315 30.1008 18.8321 29.8901C19.2302 29.6064 19.5064 29.7037 19.7989 30.036C20.0345 30.2953 20.3107 30.5222 20.6763 30.8707C20.5707 30.2953 20.5057 29.8658 20.4164 29.4362C20.3595 29.1607 20.4245 28.9905 20.6845 28.8689C21.0825 28.6825 21.4644 28.4556 21.96 28.1882C21.2613 28.0828 20.7007 28.0018 20.1482 27.9207C20.0264 27.3453 19.9208 26.8186 19.7827 26.154C19.5308 26.6727 19.3358 27.0536 19.1733 27.4426C19.0596 27.71 18.889 27.7911 18.6128 27.7506C18.174 27.6857 17.7353 27.6371 17.2316 27.5642ZM102.781 42.1762C102.821 42.16 102.87 42.1437 102.911 42.1194C102.854 41.7547 102.813 41.3819 102.732 41.0172C102.642 40.6363 102.699 40.377 103.114 40.223C103.479 40.0853 103.812 39.8583 104.259 39.6233C103.682 39.5261 103.252 39.4288 102.813 39.3883C102.496 39.364 102.423 39.1938 102.391 38.9344C102.334 38.513 102.252 38.0916 102.163 37.5324C101.919 38.0106 101.724 38.3509 101.578 38.7075C101.432 39.056 101.261 39.21 100.847 39.0884C100.473 38.9831 100.067 38.975 99.6771 38.9263C99.9208 39.3153 100.205 39.6152 100.514 39.8826C100.766 40.0934 100.806 40.296 100.636 40.5796C100.416 40.9443 100.246 41.3333 99.9939 41.8277C100.636 41.4954 101.131 41.2442 101.708 40.9524C102.057 41.3576 102.423 41.7709 102.781 42.1762ZM27.3301 18.5846C27.3789 17.9849 27.4276 17.4338 27.4926 16.7612C27.0295 17.2798 26.6558 17.7013 26.274 18.1227C25.7378 17.8958 25.2259 17.685 24.6004 17.4257C24.8766 17.9039 25.0716 18.2848 25.2991 18.6332C25.4615 18.8845 25.4778 19.0628 25.2503 19.2978C24.9335 19.6139 24.6572 19.9704 24.2998 20.3838C24.836 20.2622 25.2747 20.1812 25.7053 20.0677C25.9896 19.9948 26.1684 20.0434 26.3146 20.3351C26.4933 20.7079 26.7371 21.0483 27.0295 21.5346C27.0945 20.9754 27.1595 20.5702 27.1758 20.1731C27.192 19.8489 27.2895 19.6868 27.6389 19.6382C28.0532 19.5814 28.4594 19.4599 28.9956 19.3383C28.3619 19.0466 27.8582 18.8196 27.3301 18.5846ZM79.1957 9.37817C79.1713 9.443 79.1469 9.50783 79.1226 9.56456C79.2363 9.86442 79.3094 10.1805 79.4719 10.4479C79.7644 10.9504 79.6344 11.2827 79.1713 11.5744C78.9113 11.7365 78.6839 11.9715 78.4482 12.1741C78.9195 12.2471 79.3419 12.1903 79.7563 12.2228C79.9431 12.239 80.1869 12.3849 80.2762 12.5469C80.4874 12.9278 80.6256 13.3493 80.8368 13.8679C80.983 13.3168 81.1049 12.9035 81.1943 12.474C81.2511 12.1903 81.3974 12.0688 81.6817 12.0688C82.1123 12.0607 82.5429 12.0202 82.9735 11.9958C82.6566 11.6798 82.3398 11.4448 81.9986 11.2665C81.6817 11.0963 81.5599 10.9099 81.698 10.5371C81.8361 10.1562 81.893 9.75096 81.9986 9.32144C81.9173 9.33764 81.893 9.33764 81.8848 9.34575C81.048 10.2777 80.1787 10.61 79.1957 9.37817ZM90.5616 21.3887C90.5941 21.3968 90.6347 21.4049 90.6672 21.4049C90.8703 21.0726 91.0978 20.7566 91.2603 20.4081C91.439 20.0272 91.6909 19.9867 92.0483 20.0758C92.4221 20.1731 92.8039 20.246 93.3076 20.3595C92.8526 19.8408 92.4789 19.4032 92.1133 18.9817C92.3977 18.4874 92.6658 18.0092 93.007 17.4095C92.3489 17.685 91.8534 17.9039 91.3415 18.1146C90.9597 17.6931 90.5941 17.2879 90.2285 16.8827C90.1716 17.3609 90.2122 17.7904 90.261 18.2118C90.2935 18.4874 90.2041 18.6495 89.9279 18.7467C89.5217 18.8926 89.1317 19.0871 88.6199 19.314C89.1398 19.4356 89.5298 19.5733 89.9279 19.6139C90.3341 19.6544 90.4397 19.8732 90.456 20.2136C90.4885 20.6107 90.5291 20.9997 90.5616 21.3887ZM39.1185 12.2714C39.1266 12.239 39.1347 12.1985 39.151 12.166C38.7367 11.8176 38.3223 11.4691 37.8999 11.1125C38.1111 10.5695 38.3061 10.0589 38.5498 9.42679C38.0867 9.71044 37.7211 9.91305 37.3718 10.1481C37.1037 10.3345 36.9006 10.3345 36.6568 10.0994C36.3562 9.8158 36.015 9.57267 35.5926 9.22418C35.7225 9.74286 35.7957 10.1319 35.9094 10.4966C36.0231 10.845 35.9663 11.072 35.625 11.2503C35.2757 11.4367 34.9589 11.6717 34.6258 11.8824C35.0888 12.0202 35.5113 12.0526 35.9338 12.0607C36.2181 12.0688 36.3562 12.1822 36.4131 12.4659C36.5025 12.8873 36.6325 13.3006 36.7787 13.8517C36.9981 13.3087 37.1524 12.8711 37.3555 12.474C37.4286 12.3362 37.6399 12.2147 37.8024 12.2066C38.2411 12.1985 38.6798 12.2471 39.1185 12.2714ZM72.9318 7.11707C72.355 6.95499 71.9244 6.85774 71.5101 6.69565C71.3557 6.63082 71.177 6.412 71.1608 6.24992C71.112 5.80418 71.1445 5.35034 71.1445 4.90461C70.8195 5.18015 70.5839 5.44759 70.4214 5.76366C70.1858 6.2256 69.869 6.29044 69.4221 6.12025C69.0891 5.99058 68.7478 5.91764 68.2929 5.77987C68.6503 6.24181 68.9509 6.5984 69.2109 6.99551C69.2922 7.11707 69.3003 7.36831 69.2272 7.50608C69.0159 7.89508 68.7397 8.25978 68.3985 8.76224C68.9591 8.55963 69.3815 8.42186 69.7796 8.25978C70.0233 8.16252 70.1777 8.18684 70.3402 8.41376C70.592 8.77035 70.8764 9.10262 71.2257 9.54836C71.2257 9.00537 71.2501 8.58395 71.2176 8.17063C71.1933 7.86267 71.2907 7.70869 71.5913 7.61954C71.9976 7.48177 72.3875 7.31968 72.9318 7.11707ZM96.9635 30.8383C97.3454 30.4817 97.6785 30.1899 97.9872 29.8739C98.1822 29.6713 98.3528 29.6307 98.6047 29.7928C98.9702 30.0197 99.3683 30.2061 99.8802 30.4817C99.5877 29.8496 99.3602 29.3471 99.1084 28.8203C99.5227 28.4151 99.937 28.018 100.4 27.5642C99.9208 27.629 99.5146 27.6695 99.1165 27.7424C98.7671 27.8073 98.5397 27.7343 98.4015 27.3697C98.2553 26.9888 98.0441 26.6241 97.8166 26.1621C97.6785 26.8429 97.5729 27.3859 97.4672 27.9288C97.1585 27.9775 96.8904 28.018 96.6223 28.0585C96.3461 28.099 96.078 28.1396 95.688 28.1882C96.2648 28.5205 96.9554 28.6906 97.1423 29.0878C97.3454 29.5173 97.0529 30.1656 96.9635 30.8383Z" fill="white"/>
<path d="M112.359 76.6842C112.359 77.5351 112.359 78.3131 112.359 79.1722C112.148 79.1722 111.953 79.1722 111.758 79.1722C107.915 79.1722 104.08 79.1803 100.238 79.1641C99.8396 79.1641 99.5958 79.2694 99.344 79.6017C91.4065 90.0886 80.9831 96.6774 68.041 99.1249C50.0457 102.521 31.7416 95.8832 20.0183 81.8385C19.4008 81.101 18.8159 80.3473 18.2472 79.5774C18.0359 79.2856 17.8085 79.1722 17.4429 79.1722C13.7951 79.1884 10.1391 79.1803 6.49131 79.1803C6.28821 79.1803 6.0851 79.1803 5.84137 79.1803C5.84137 78.3374 5.84137 77.527 5.84137 76.6517C6.01198 76.6436 6.19071 76.6193 6.36945 76.6193C14.0794 76.6193 21.7975 76.6112 29.5075 76.6355C29.7756 76.6355 30.1087 76.7814 30.2874 76.9759C34.772 81.7088 40.0853 85.1612 46.2517 87.3008C50.9963 88.9459 55.8952 89.6429 60.9079 89.3998C69.544 88.9783 77.2459 86.0527 83.9647 80.6147C85.3702 79.472 86.6294 78.151 87.97 76.9354C88.1487 76.7733 88.433 76.6436 88.6686 76.6355C92.747 76.6193 96.8254 76.6112 100.904 76.6193C104.568 76.6274 108.232 76.668 111.896 76.6923C112.034 76.6842 112.172 76.6842 112.359 76.6842ZM89.9604 81.3117C89.7817 81.8871 89.6111 82.4139 89.3998 83.0622C89.8385 82.7462 90.1879 82.5273 90.4966 82.268C90.781 82.0249 91.0003 82.0168 91.2928 82.2599C91.5934 82.5111 91.9346 82.7218 92.2515 82.9569C92.2027 82.4868 92.089 82.0816 91.9346 81.6845C91.829 81.4171 91.8777 81.2469 92.1215 81.0848C92.4871 80.8498 92.8202 80.5742 93.1695 80.323C92.6983 80.2176 92.2515 80.25 91.8209 80.2014C91.6584 80.1852 91.439 80.015 91.3659 79.8691C91.1872 79.472 91.0653 79.0425 90.8785 78.4833C90.7322 78.9453 90.6185 79.2451 90.5454 79.5531C90.4316 80.0474 90.2041 80.323 89.6354 80.2257C89.3023 80.169 88.953 80.2176 88.6118 80.2176C88.6118 80.2582 88.6036 80.2906 88.6036 80.3311C89.0586 80.6472 89.4892 80.9713 89.9604 81.3117ZM27.1352 78.4914C26.9646 78.9939 26.8021 79.3667 26.7127 79.7638C26.6233 80.1447 26.4284 80.25 26.0628 80.2257C25.6647 80.2014 25.2585 80.2176 24.8604 80.2176C25.1935 80.5823 25.5428 80.8498 25.9084 81.0929C26.1196 81.2388 26.2009 81.3765 26.0953 81.644C25.9328 82.0654 25.819 82.503 25.6484 83.0541C26.1196 82.7137 26.4771 82.4301 26.8671 82.1951C26.9971 82.114 27.2489 82.114 27.387 82.1951C27.7689 82.4139 28.1182 82.6975 28.6138 83.0379C28.4513 82.5111 28.3619 82.1221 28.2076 81.7736C28.0451 81.409 28.1588 81.2063 28.4594 81.0118C28.7844 80.8011 29.0931 80.5499 29.41 80.323C28.955 80.2176 28.5407 80.1933 28.1426 80.2176C27.8095 80.2419 27.647 80.1123 27.5658 79.7881C27.4601 79.3991 27.3139 79.0182 27.1352 78.4914ZM73.4275 92.8441C72.9237 92.682 72.5338 92.5199 72.1194 92.4227C71.7701 92.3416 71.6482 92.1633 71.6726 91.8148C71.7051 91.4177 71.6807 91.0206 71.6807 90.6154C71.307 90.9315 71.0552 91.2638 70.8195 91.6122C70.6652 91.8473 70.4946 91.9121 70.2184 91.7986C69.804 91.6365 69.3653 91.5312 68.8453 91.3691C69.2434 91.9202 69.5684 92.374 69.9096 92.8441C69.5684 93.3222 69.2434 93.7842 68.8535 94.3272C69.3734 94.1651 69.804 94.0516 70.2184 93.8895C70.519 93.768 70.6896 93.849 70.852 94.1084C71.0795 94.4649 71.3476 94.7972 71.6076 95.1376C71.7051 94.6432 71.7213 94.2056 71.697 93.7599C71.6807 93.4843 71.7863 93.3628 72.0382 93.2898C72.4688 93.1683 72.8994 93.0143 73.4275 92.8441ZM34.4227 87.8519C34.4227 87.8924 34.4145 87.9248 34.4145 87.9653C34.772 88.1922 35.1214 88.4354 35.4951 88.6461C35.7551 88.7919 35.8038 88.9621 35.7144 89.2296C35.5844 89.651 35.4951 90.0805 35.357 90.6235C35.9094 90.1778 36.34 89.8293 36.7787 89.4808C37.2581 89.7807 37.7049 90.0643 38.1599 90.348C38.103 89.8779 37.973 89.4727 37.7943 89.0918C37.6724 88.8163 37.7293 88.6623 37.9567 88.4921C38.3061 88.2328 38.6311 87.941 38.9723 87.6655C38.5336 87.6006 38.1355 87.6249 37.7374 87.6655C37.3799 87.706 37.1687 87.6006 37.0631 87.2359C36.9575 86.855 36.7787 86.4984 36.5675 85.9879C36.4212 86.5309 36.2913 86.9118 36.2181 87.3089C36.1532 87.6492 36.015 87.7951 35.6413 87.7789C35.2351 87.7627 34.8289 87.8275 34.4227 87.8519ZM81.4624 85.996C81.2512 86.5146 81.0724 86.9118 80.9343 87.3332C80.8449 87.6087 80.6987 87.7141 80.4144 87.6817C79.9756 87.6411 79.5288 87.6168 78.952 87.5763C79.5044 88.0301 79.935 88.3948 80.3656 88.7514C80.1625 89.2944 79.9675 89.8131 79.7238 90.4533C80.2112 90.1454 80.5931 89.9265 80.9587 89.6672C81.178 89.5132 81.3324 89.5132 81.5355 89.6915C81.8686 89.9914 82.2342 90.2507 82.681 90.6073C82.5429 90.0481 82.4536 89.6105 82.3154 89.1972C82.2261 88.9378 82.2829 88.8001 82.5185 88.6623C82.9004 88.4354 83.266 88.1841 83.7616 87.8519C83.0547 87.8032 82.5104 87.7708 81.9498 87.7303C81.7955 87.1873 81.6411 86.6443 81.4624 85.996ZM44.6024 92.8441C45.1224 93.0143 45.5367 93.1764 45.9673 93.2898C46.276 93.3709 46.3654 93.5248 46.3491 93.8328C46.3248 94.2623 46.341 94.6919 46.341 95.2592C46.6822 94.7891 46.9503 94.4568 47.1778 94.1084C47.3403 93.8571 47.5109 93.7761 47.8115 93.8976C48.2177 94.0597 48.6402 94.1651 49.1602 94.3272C48.9408 94.0111 48.7783 93.7923 48.624 93.5735C48.0228 92.7063 48.0146 93.0143 48.6077 92.1633C48.7621 91.9364 48.9246 91.7095 49.152 91.3853C48.6158 91.5555 48.2015 91.6528 47.8115 91.8148C47.5028 91.9445 47.3484 91.8554 47.1778 91.6041C46.9422 91.2394 46.6741 90.8991 46.3329 90.4371C46.3329 91.1503 46.3329 91.7095 46.3329 92.2768C45.7804 92.447 45.2524 92.6253 44.6024 92.8441ZM59.0799 91.8797C58.9012 92.4227 58.7387 92.8198 58.6331 93.2331C58.5518 93.5329 58.4137 93.6464 58.0969 93.6302C57.6744 93.6059 57.2438 93.6221 56.8133 93.6221C57.1626 93.9868 57.5363 94.2299 57.8694 94.5217C57.9832 94.6189 58.0644 94.8621 58.0319 95.0079C57.9344 95.4456 57.7719 95.8751 57.5932 96.4424C58.0481 96.1182 58.4056 95.8913 58.7306 95.6158C58.9906 95.3969 59.1856 95.4212 59.4374 95.632C59.7624 95.8994 60.128 96.1263 60.5667 96.4424C60.4042 95.9399 60.2823 95.5347 60.1361 95.1457C60.0142 94.8296 60.0467 94.6189 60.3636 94.4325C60.721 94.2218 61.0379 93.9544 61.4847 93.6221C60.8917 93.6221 60.4448 93.6059 60.0061 93.6302C59.7299 93.6464 59.608 93.5411 59.5349 93.2817C59.413 92.8603 59.2668 92.447 59.0799 91.8797Z" fill="white"/>
<path d="M86.865 76.6436C71.4857 92.9332 45.358 91.9364 31.3679 76.6436C49.867 76.6436 68.3254 76.6436 86.865 76.6436Z" fill="white"/>
<path d="M47.4703 37.5486C45.1711 37.5486 42.9532 37.5486 40.654 37.5486C41.7751 33.0589 42.8801 28.6015 43.9931 24.1442C44.0337 24.1361 44.0743 24.1279 44.1231 24.1198C45.228 28.5772 46.341 33.0264 47.4703 37.5486Z" fill="white"/>
<path d="M77.4896 37.5162C75.1986 37.5162 72.9725 37.5162 70.6896 37.5162C71.8026 33.0426 72.9156 28.5934 74.0287 24.1361C74.0693 24.1279 74.1099 24.1198 74.1424 24.1198C75.2473 28.5448 76.3603 32.9778 77.4896 37.5162Z" fill="white"/>
<path d="M53.0436 44.0158C53.2061 43.4323 53.6367 43.0595 54.2866 43.0514C56.5777 43.0271 58.8769 43.019 61.1679 43.0433C61.7122 43.0514 61.7935 43.5701 61.9803 44.0158C58.9744 44.0158 56.0171 44.0158 53.0436 44.0158Z" fill="white"/>
<path d="M57.2601 32.1836C57.5769 32.1836 57.8613 32.1836 58.0238 32.1836C58.3975 32.7671 58.755 33.2777 59.0556 33.8125C59.1856 34.0395 59.2668 34.3231 59.2668 34.5824C59.283 36.2519 59.283 37.9295 59.2749 39.599C59.2749 40.0771 59.1693 40.1096 58.2675 39.9718C58.2675 39.7368 58.2675 39.4855 58.2675 39.2343C58.2675 37.6459 58.2594 36.0574 58.2675 34.4771C58.2675 33.9584 58.105 33.4884 57.6663 33.2452C57.2114 32.994 57.1789 32.6617 57.2601 32.1836Z" fill="white"/>
<path d="M59.2749 41.9654C57.9182 41.9654 56.6914 41.9654 55.4565 41.9654C55.6352 41.3738 56.074 41.0254 56.6995 40.9929C57.2601 40.9686 57.8288 40.9686 58.3975 40.9929C58.9743 41.0091 58.9987 41.5278 59.2749 41.9654Z" fill="white"/>
<path d="M59.3074 25.0437C59.3074 27.0293 59.3074 28.9338 59.3074 30.8464C59.3074 30.9436 59.2911 31.0409 59.283 31.1706C59.1124 31.1706 58.9743 31.1706 58.8037 31.1706C58.8037 29.1364 58.8037 27.1346 58.8037 25.0843C58.9499 25.0761 59.0962 25.068 59.3074 25.0437Z" fill="white"/>
<path d="M55.952 23.7389C55.3996 23.8929 54.9284 23.7227 54.5303 23.3256C54.0347 22.8313 53.5716 22.3045 53.0517 21.8344C52.5236 21.3563 51.9468 20.943 51.3699 20.481C52.3205 20.5459 53.0842 20.9592 53.7504 21.5913C54.1241 21.9398 54.449 22.3369 54.8309 22.6854C55.0827 22.9123 55.3671 23.1068 55.6514 23.2932C55.8058 23.3904 55.9845 23.4472 56.1552 23.5282C56.082 23.5931 56.017 23.666 55.952 23.7389Z" fill="white"/>
<path d="M66.7086 20.5215C65.4575 21.178 64.6207 22.2802 63.6539 23.2284C63.1177 23.7552 62.8415 23.8443 62.0453 23.7308C62.1834 23.585 62.2728 23.4634 62.3865 23.3661C62.8983 22.9285 63.4589 22.5314 63.9301 22.0451C64.7019 21.2428 65.5387 20.5945 66.7086 20.5215Z" fill="white"/>
<path d="M59.5999 23.9902C60.8104 23.1554 60.8186 22.191 59.6812 21.1132C60.1199 21.3239 60.5911 21.486 60.981 21.7615C61.6229 22.2234 61.631 22.969 60.9973 23.4391C60.5992 23.7308 60.1036 23.8929 59.6568 24.1198C59.6324 24.0793 59.6162 24.0307 59.5999 23.9902Z" fill="white"/>
<path d="M58.4544 21.2185C57.2601 22.1829 57.2764 23.1635 58.4869 23.9983C57.5038 23.9415 56.6427 23.3094 56.6264 22.6287C56.6102 21.9641 57.3901 21.3563 58.4544 21.2185Z" fill="white"/>
<path d="M73.2731 39.518C72.3876 39.3559 71.0715 39.9718 70.2753 38.5211C70.8765 38.5211 71.3639 38.513 71.8595 38.5292C71.9407 38.5292 72.0301 38.6103 72.1032 38.667C72.5257 38.975 72.9563 39.291 73.2731 39.518Z" fill="white"/>
<path d="M43.0426 39.518C42.2139 39.3883 40.9871 39.907 40.2559 38.5211C40.7759 38.5211 41.2146 38.513 41.6452 38.5292C41.7183 38.5292 41.7914 38.5941 41.8564 38.6427C42.2951 38.9588 42.7257 39.2829 43.0426 39.518Z" fill="white"/>
<path d="M60.981 41.0416C61.7854 40.9119 62.3297 41.1956 62.6303 41.9087C61.7122 42.1518 61.6229 42.1032 60.981 41.0416Z" fill="white"/>
<path d="M63.3696 43.0757C64.2307 42.9785 64.767 43.2702 65.0351 43.9672C64.1901 44.2103 64.0764 44.1536 63.3696 43.0757Z" fill="white"/>
<path d="M58.4788 22.5233C58.6575 22.3855 58.8525 22.1343 59.015 22.1424C59.1937 22.1586 59.4456 22.4017 59.4943 22.5962C59.5674 22.8637 59.3887 23.1149 59.0556 23.042C58.8525 23.0015 58.6738 22.8556 58.4788 22.7583C58.4869 22.6773 58.4788 22.6043 58.4788 22.5233Z" fill="white"/>
<path d="M59.0393 19.233C59.2099 19.5004 59.3643 19.7435 59.5187 19.9867C59.543 20.0272 59.5593 20.0758 59.5999 20.1569C59.2262 20.1569 58.885 20.1569 58.4625 20.1569C58.6575 19.8327 58.8362 19.5409 59.0393 19.233Z" fill="white"/>
<path d="M0 60.2082C1.54362 59.649 3.03037 59.1141 4.65523 58.5225C4.0459 57.9146 3.57469 57.4284 3.07911 56.9664C3.00599 56.9016 2.79476 56.9259 2.68102 56.9746C2.29918 57.1691 1.92546 57.3717 1.56799 57.6148C1.2024 57.866 0.926171 57.8417 0.666193 57.4689C0.560577 57.3149 0.430588 57.1772 0.357469 57.0961C1.38926 56.4154 2.41292 55.7427 3.42846 55.0457C3.68031 54.8755 3.94841 54.681 4.11902 54.4379C4.6146 53.7004 5.22393 53.8058 5.90637 54.1543C5.77638 54.3164 5.65452 54.4784 5.47578 54.7054C5.66264 54.7216 5.79263 54.754 5.93074 54.754C6.88941 54.754 7.84808 54.7459 8.80675 54.7621C9.0586 54.7702 9.52981 54.8593 9.52981 54.9161C9.52981 55.3051 9.57043 55.7994 9.35107 56.0588C8.74988 56.7719 8.06743 57.4284 7.3525 58.0362C6.76755 58.5306 6.10135 58.9196 5.40266 59.3977C6.88941 59.3977 8.31929 59.3977 9.78979 59.3977C9.78979 61.0834 9.78979 62.7124 9.78979 64.3657C9.41607 64.3657 9.0586 64.3657 8.67676 64.3657C8.63614 64.1793 8.60364 64.0091 8.56302 63.8065C6.9869 63.8065 5.41891 63.8065 3.8103 63.8065C3.78593 63.9848 3.75343 64.163 3.72093 64.3576C3.37159 64.3576 3.03037 64.3576 2.63227 64.3576C2.63227 63.1095 2.63227 61.8533 2.63227 60.5242C2.13669 60.6863 1.7061 60.7917 1.30801 60.97C0.779933 61.1969 0.430588 61.0672 0.211232 60.5485C0.162486 60.4432 0.0731187 60.3297 0 60.2082ZM3.78593 62.6475C5.40266 62.6475 6.9869 62.6475 8.57927 62.6475C8.57927 61.9344 8.57927 61.2617 8.57927 60.5647C6.96253 60.5647 5.38641 60.5647 3.78593 60.5647C3.78593 61.2617 3.78593 61.9263 3.78593 62.6475ZM5.64639 57.9309C6.41008 57.2987 7.18188 56.6585 7.95369 56.0101C7.92932 55.9696 7.89682 55.921 7.86433 55.8724C6.71068 55.8724 5.5489 55.8643 4.39525 55.8805C4.24089 55.8805 4.08652 56.0183 3.89967 56.1074C4.49274 56.7233 5.03707 57.2906 5.64639 57.9309Z" fill="white"/>
<path d="M93.7301 60.0137C92.942 60.0137 92.1865 60.0137 91.3984 60.0137C91.3984 60.354 91.3984 60.6377 91.3984 60.97C92.2434 60.97 93.0558 60.97 93.8926 60.97C93.917 61.0915 93.9413 61.1645 93.9495 61.2455C93.9738 61.9911 93.9738 61.9911 93.2426 61.9911C92.6414 61.9911 92.0484 61.9911 91.4066 61.9911C91.4066 62.3639 91.4066 62.6881 91.4066 63.0933C92.3246 63.0933 93.2426 63.0933 94.1851 63.0933C94.2013 63.2878 94.2094 63.4174 94.2338 63.5552C94.2988 63.9847 94.1607 64.1549 93.6814 64.1468C91.7315 64.1225 89.7736 64.1225 87.8156 64.1468C87.4094 64.1468 87.2875 64.0253 87.2875 63.6201C87.2875 63.231 87.3932 63.0771 87.8075 63.0933C88.6118 63.1257 89.408 63.1014 90.2285 63.1014C90.2285 62.7124 90.2285 62.3963 90.2285 61.9992C89.6355 61.9992 89.0668 61.9992 88.4899 61.9992C87.6288 61.9992 87.5881 61.9425 87.7912 60.9943C88.5793 60.9943 89.3755 60.9943 90.2123 60.9943C90.2123 60.6701 90.2123 60.3865 90.2123 60.038C89.4242 60.038 88.6362 60.038 87.8075 60.038C87.8075 58.0767 87.8075 56.1884 87.8075 54.2596C89.7654 54.2596 91.7234 54.2596 93.722 54.2596C93.7301 56.156 93.7301 58.0524 93.7301 60.0137ZM88.953 57.5419C88.953 58.0524 88.953 58.5063 88.953 58.9844C89.3917 58.9844 89.8061 58.9844 90.2123 58.9844C90.2123 58.4738 90.2123 58.0119 90.2123 57.5419C89.7736 57.5419 89.3836 57.5419 88.953 57.5419ZM91.3822 59.0006C91.829 59.0006 92.2271 59.0006 92.6252 59.0006C92.6252 58.4901 92.6252 58.0281 92.6252 57.55C92.1946 57.55 91.7965 57.55 91.3822 57.55C91.3822 58.0443 91.3822 58.4982 91.3822 59.0006ZM90.2204 56.5531C90.2204 56.1155 90.2204 55.7022 90.2204 55.2808C89.7817 55.2808 89.3836 55.2808 88.9611 55.2808C88.9611 55.7184 88.9611 56.1317 88.9611 56.5531C89.3999 56.5531 89.8061 56.5531 90.2204 56.5531ZM92.6414 55.297C92.2109 55.297 91.8046 55.297 91.4066 55.297C91.4066 55.7346 91.4066 56.1398 91.4066 56.5369C91.8371 56.5369 92.2352 56.5369 92.6414 56.5369C92.6414 56.1074 92.6414 55.7184 92.6414 55.297Z" fill="white"/>
<path d="M67.8461 61.6588C68.9023 61.5697 68.9023 61.5697 68.8535 60.9375C68.3742 60.9375 67.8867 60.9375 67.3424 60.9375C67.3424 61.4805 67.3424 62.0316 67.3424 62.6151C66.9525 62.6151 66.6194 62.6151 66.2213 62.6151C66.2213 62.0559 66.2213 61.521 66.2213 60.9537C65.6769 60.9537 65.1895 60.9537 64.6533 60.9537C64.6533 61.5129 64.6533 62.0559 64.6533 62.6232C64.2714 62.6232 63.9465 62.6232 63.5809 62.6232C63.5809 60.5809 63.5809 58.5549 63.5809 56.4964C64.2552 56.4964 64.9051 56.4964 65.5469 56.4964C65.5551 56.464 65.5632 56.4316 65.5794 56.3991C65.2139 56.2452 64.8483 56.0912 64.4908 55.9372C64.8645 55.3375 65.1895 55.1673 65.7419 55.4753C66.4244 55.8481 66.9687 55.6941 67.578 55.1835C66.1725 55.1835 64.8239 55.1835 63.4427 55.1835C63.4427 54.8026 63.4427 54.4946 63.4427 54.1543C65.5388 54.1543 67.6186 54.1543 69.6903 54.1543C69.861 55.0214 69.8447 55.0782 69.146 55.5077C68.6667 55.7994 68.1873 56.0831 67.708 56.4721C68.4554 56.4721 69.2029 56.4721 69.9991 56.4721C69.9991 57.2744 69.9991 58.0038 69.9991 58.7332C69.9991 59.7057 70.0072 60.6782 69.9991 61.6507C69.9909 62.4287 68.9185 63.069 68.2767 62.6313C68.033 62.4449 67.9924 61.9992 67.8461 61.6588ZM67.3505 58.2793C67.8949 58.2793 68.3823 58.2793 68.8535 58.2793C68.8535 57.9714 68.8535 57.712 68.8535 57.4365C68.3336 57.4365 67.8543 57.4365 67.3505 57.4365C67.3505 57.7364 67.3505 57.9957 67.3505 58.2793ZM68.8535 59.9407C68.8535 59.6571 68.8535 59.4301 68.8535 59.1789C68.3417 59.1789 67.8543 59.1789 67.3587 59.1789C67.3587 59.4464 67.3587 59.6895 67.3587 59.9407C67.8705 59.9407 68.3417 59.9407 68.8535 59.9407ZM64.6776 59.2032C64.6776 59.4545 64.6776 59.6814 64.6776 59.9245C65.1976 59.9245 65.6932 59.9245 66.1888 59.9245C66.1888 59.6652 66.1888 59.4545 66.1888 59.2032C65.6769 59.2032 65.1895 59.2032 64.6776 59.2032ZM66.1888 57.4446C65.6688 57.4446 65.1895 57.4446 64.6939 57.4446C64.6939 57.7201 64.6939 57.9552 64.6939 58.1983C65.2138 58.1983 65.7013 58.1983 66.1888 58.1983C66.1888 57.9309 66.1888 57.7039 66.1888 57.4446Z" fill="white"/>
<path d="M117.234 56.8773C117.234 57.9147 117.234 58.952 117.234 60.0218C114.35 60.0218 111.53 60.0218 108.654 60.0218C108.654 58.9763 108.654 57.9633 108.654 56.9421C107.964 57.0151 107.875 56.9421 107.574 56.1398C108.394 55.8643 109.248 55.6455 110.036 55.297C110.889 54.9161 111.685 54.3974 112.522 53.9841C112.749 53.8706 113.074 53.8625 113.318 53.9355C113.497 53.9841 113.943 53.8139 113.862 54.3245C113.854 54.3893 114.073 54.5352 114.211 54.5838C115.544 55.1025 116.884 55.613 118.265 56.1479C118.176 56.3586 118.046 56.6747 117.908 56.9989C117.656 56.9584 117.437 56.9259 117.217 56.8935C116.478 56.6261 115.747 56.3586 114.983 56.0831C114.951 56.229 114.926 56.3424 114.902 56.4802C113.675 56.4802 112.473 56.4883 111.279 56.464C111.124 56.464 110.978 56.2695 110.767 56.1236C110.214 56.3262 109.564 56.5693 108.882 56.8206C108.955 56.853 108.979 56.8692 109.012 56.8692C111.75 56.8773 114.496 56.8773 117.234 56.8773ZM112.335 59.1222C112.335 58.6684 112.335 58.2631 112.335 57.8417C111.888 57.8417 111.474 57.8417 110.962 57.8417C111.311 58.1173 111.587 58.3361 111.88 58.563C111.1 59.1951 111.035 59.1789 110.125 58.328C110.32 58.1821 110.515 58.0281 110.775 57.8336C110.377 57.8336 110.076 57.8336 109.759 57.8336C109.759 58.2712 109.759 58.6846 109.759 59.1141C110.637 59.1222 111.465 59.1222 112.335 59.1222ZM113.521 59.106C114.39 59.106 115.235 59.106 116.088 59.106C116.088 58.6684 116.088 58.2712 116.088 57.8498C115.219 57.8498 114.374 57.8498 113.497 57.8498C113.497 58.1902 113.497 58.4901 113.497 58.798C113.497 58.8953 113.505 58.9925 113.521 59.106ZM113.813 55.5482C112.863 54.908 112.814 54.908 112.18 55.5482C112.692 55.5482 113.196 55.5482 113.813 55.5482Z" fill="white"/>
<path d="M22.4881 62.526C21.9356 62.526 21.4238 62.526 20.847 62.526C20.847 63.1419 20.847 63.7254 20.847 64.3332C20.4814 64.3332 20.1808 64.3332 19.7989 64.3332C19.7989 63.7497 19.7989 63.1662 19.7989 62.5422C18.5641 62.5422 17.4023 62.5422 16.2324 62.5422C16.208 62.4449 16.1755 62.3801 16.1755 62.3234C16.1268 61.5292 16.1268 61.5292 16.9067 61.5292C17.841 61.5292 18.7834 61.5292 19.7502 61.5292C19.7502 60.9781 19.7502 60.4918 19.7502 59.9975C19.3602 59.8921 19.0353 59.8921 18.7997 60.273C18.694 60.4432 18.5316 60.5891 18.3853 60.7268C17.6054 61.4724 17.5973 61.4724 16.7442 60.7268C17.0286 60.4999 17.3129 60.273 17.6541 59.9975C17.4998 59.965 17.4429 59.9488 17.3779 59.9407C16.4355 59.884 16.4355 59.884 16.4355 58.9196C16.4355 57.7445 16.4517 56.5612 16.4274 55.3861C16.4192 54.9971 16.5492 54.8512 16.9311 54.908C16.9961 54.9161 17.0692 54.908 17.1342 54.908C18.0035 54.908 18.0197 54.9161 18.3366 54.1056C18.4422 53.8382 18.5641 53.7653 18.8322 53.8301C19.0596 53.8949 19.2952 53.9274 19.5958 53.9922C19.4902 54.292 19.3927 54.5676 19.279 54.8999C20.1889 54.8999 21.0338 54.8999 21.9275 54.8999C21.9275 56.5612 21.9275 58.1902 21.9275 59.8516C21.5863 59.8516 21.2532 59.8516 20.8795 59.8516C20.8795 60.4108 20.8795 60.9295 20.8795 61.5211C21.2045 61.5211 21.5375 61.5211 21.8788 61.5211C22.545 61.5211 22.545 61.5211 22.5287 62.2099C22.5125 62.2991 22.5043 62.3801 22.4881 62.526ZM20.9039 57.9471C20.4814 57.9471 20.1077 57.9471 19.7177 57.9471C19.669 58.2793 19.6283 58.5873 19.5877 58.8953C20.0589 58.8953 20.4814 58.8953 20.9039 58.8953C20.9039 58.5711 20.9039 58.2793 20.9039 57.9471ZM20.8876 56.9665C20.8876 56.5775 20.8876 56.2452 20.8876 55.8967C20.5139 55.8967 20.1645 55.8967 19.8071 55.8967C19.8071 56.2695 19.8071 56.6099 19.8071 56.9665C20.1889 56.9665 20.522 56.9665 20.8876 56.9665ZM18.6372 55.921C18.2797 55.921 17.9222 55.921 17.5404 55.921C17.5404 56.2533 17.5404 56.5612 17.5404 56.8935C17.9222 56.8935 18.2635 56.8935 18.6372 56.8935C18.6372 56.5612 18.6372 56.2614 18.6372 55.921ZM18.5559 57.9714C18.2066 57.9714 17.8897 57.9714 17.5485 57.9714C17.5323 58.1254 17.5079 58.2631 17.5079 58.3928C17.5079 58.5549 17.5241 58.7251 17.5323 58.8791C18.4909 59.0168 18.5722 58.9439 18.5559 57.9714Z" fill="white"/>
<path d="M74.5973 61.3995C76.6934 61.3995 78.7651 61.3995 80.8693 61.3995C80.8693 62.2261 80.8693 63.0203 80.8693 63.8713C78.7895 63.8713 76.7097 63.8713 74.6217 63.8713C74.573 64.0658 74.5324 64.2117 74.4917 64.3576C74.1586 64.3576 73.8418 64.3576 73.4843 64.3576C73.4843 62.4125 73.4843 60.4918 73.4843 58.5306C75.8079 58.5306 78.107 58.5306 80.455 58.5306C80.455 59.26 80.455 60.0056 80.455 60.816C80.2762 60.816 80.0894 60.816 79.9106 60.816C78.2858 60.816 76.6528 60.8241 75.0279 60.8079C74.6298 60.8079 74.4511 60.9213 74.5973 61.3995ZM79.7319 62.291C78.0014 62.291 76.2953 62.291 74.5892 62.291C74.5892 62.5584 74.5892 62.7853 74.5892 63.0122C76.3278 63.0122 78.0177 63.0122 79.7319 63.0122C79.7319 62.7691 79.7319 62.5584 79.7319 62.291ZM79.3501 59.3896C77.7252 59.3896 76.1572 59.3896 74.5892 59.3896C74.5892 59.5922 74.5892 59.7705 74.5892 59.9488C76.1978 59.9488 77.7658 59.9488 79.3501 59.9488C79.3501 59.7462 79.3501 59.5841 79.3501 59.3896Z" fill="white"/>
<path d="M70.3565 63.1581C70.2508 63.539 70.1696 63.8713 70.064 64.2603C69.1703 64.2603 68.2766 64.2765 67.3911 64.2603C66.4974 64.2441 65.6119 64.2117 64.7182 64.1631C63.6539 64.1063 62.6546 63.847 61.8422 63.069C61.4441 63.5552 61.0623 64.0253 60.656 64.5196C60.3473 64.2846 60.0792 64.082 59.7624 63.847C60.6642 62.8745 61.436 61.8452 61.7284 60.4756C61.2735 60.4756 60.8673 60.4594 60.4611 60.4837C60.1442 60.4999 60.0548 60.3703 60.0386 60.0623C60.0142 59.6328 60.1117 59.2843 60.4204 58.952C60.8023 58.5306 61.1272 58.0524 61.566 57.4932C60.8998 57.4932 60.3798 57.4932 59.8355 57.4932C59.8355 57.1042 59.8355 56.7639 59.8355 56.4073C60.851 56.4073 61.8584 56.4073 62.8496 56.4073C63.2477 57.7121 62.1265 58.3685 61.6066 59.3734C61.9559 59.3734 62.2565 59.3896 62.5571 59.3734C62.8496 59.3572 62.9877 59.4869 62.939 59.7624C62.8171 60.4108 62.7277 61.0672 62.5084 61.6831C62.3703 62.0722 62.4353 62.2748 62.744 62.4855C63.4508 62.9636 64.2389 63.15 65.0757 63.15C66.7168 63.1581 68.366 63.15 70.0071 63.15C70.0965 63.1419 70.1858 63.15 70.3565 63.1581Z" fill="white"/>
<path d="M110.231 64.3738C109.906 64.3738 109.581 64.3738 109.215 64.3738C109.215 63.0933 109.215 61.829 109.215 60.5242C111.701 60.5242 114.171 60.5242 116.681 60.5242C116.681 61.7966 116.681 63.0528 116.681 64.39C116.283 64.2441 115.731 64.7222 115.528 63.9685C113.887 63.9685 112.254 63.9604 110.629 63.9848C110.491 63.9848 110.361 64.1631 110.222 64.2603C110.222 64.3008 110.222 64.3332 110.231 64.3738ZM110.279 62.8826C110.32 62.9393 110.361 62.9879 110.401 63.0447C112.026 63.0447 113.651 63.0528 115.276 63.0366C115.381 63.0366 115.487 62.8988 115.584 62.8258C115.471 62.761 115.357 62.6313 115.243 62.6313C113.7 62.6151 112.164 62.6151 110.621 62.6313C110.507 62.6313 110.393 62.7934 110.279 62.8826ZM110.401 61.3833C110.361 61.44 110.32 61.4967 110.279 61.5454C110.401 61.6264 110.515 61.7885 110.637 61.7885C112.172 61.8047 113.716 61.8047 115.251 61.7885C115.365 61.7885 115.479 61.6669 115.593 61.6021C115.487 61.5292 115.381 61.3914 115.276 61.3914C113.651 61.3833 112.026 61.3833 110.401 61.3833Z" fill="white"/>
<path d="M12.9176 64.5359C12.5764 64.3089 12.3083 64.1306 12.0158 63.928C13.137 60.7025 12.5195 57.3636 12.7389 54.0327C12.9014 54.0246 13.0638 54.0165 13.2345 54.0084C13.3888 54.0003 13.5351 54.0084 13.73 54.0084C13.73 54.9323 13.73 55.8157 13.73 56.7314C14.0144 56.7314 14.2581 56.7314 14.5587 56.7314C14.5587 55.8076 14.5587 54.8918 14.5587 53.9436C14.9406 53.9436 15.2737 53.9436 15.6311 53.9436C15.6311 55.2159 15.6311 56.4721 15.6311 57.7931C15.0137 57.7931 14.4125 57.7931 13.7788 57.7931C13.7788 58.255 13.7788 58.6603 13.7788 59.1222C14.4287 59.1222 15.0868 59.1222 15.7774 59.1222C15.7774 60.8808 15.7774 62.5827 15.7774 64.3251C15.4605 64.3251 15.1518 64.3251 14.7781 64.3251C14.7781 62.9879 14.7781 61.6426 14.7781 60.2568C14.4125 60.2568 14.0956 60.2568 13.7625 60.2568C13.6488 61.6994 13.4782 63.1176 12.9176 64.5359Z" fill="white"/>
<path d="M52.5886 57.8255C53.7748 57.7526 54.839 57.6796 56.0414 57.5986C55.7733 57.2906 55.5702 57.0637 55.3427 56.7963C55.6109 56.6585 55.8546 56.5045 56.1227 56.4073C56.2364 56.3667 56.4558 56.3992 56.5289 56.4883C57.1626 57.1934 57.7719 57.9228 58.4462 58.7089C58.0238 58.9277 57.7069 59.0817 57.4063 59.2437C57.3657 59.2275 57.317 59.2194 57.3088 59.1951C57.0245 58.6278 56.5939 58.5387 55.9764 58.6035C54.4572 58.7494 52.9298 58.798 51.4106 58.8628C51.24 58.8709 50.9475 58.7332 50.915 58.6116C50.85 58.3442 50.6144 58.0686 51.0206 57.7688C51.5974 57.3311 52.0768 56.7638 52.5967 56.2533C52.5724 56.2047 52.548 56.1641 52.5236 56.1155C51.9549 56.1155 51.3862 56.1155 50.785 56.1155C50.785 55.7427 50.785 55.4266 50.785 55.0295C51.4674 55.0295 52.1661 55.0133 52.8567 55.0376C53.1817 55.0457 53.3767 54.9647 53.5391 54.6486C53.9941 53.7247 54.0347 53.7247 55.1071 54.13C54.9853 54.4055 54.8634 54.6729 54.709 55.0052C55.9033 55.0052 57.057 55.0052 58.2431 55.0052C58.2431 55.3699 58.2431 55.686 58.2431 56.0831C58.0075 56.0831 57.7638 56.0831 57.5119 56.0831C56.5045 56.0831 55.489 56.0912 54.4816 56.075C54.181 56.0669 53.986 56.156 53.7991 56.4073C53.4498 56.8692 53.0598 57.2744 52.5886 57.8255Z" fill="white"/>
<path d="M31.5629 63.3526C32.0504 63.3202 32.4241 63.2959 32.8141 63.2716C32.8141 63.0203 32.8141 62.8015 32.8141 62.5422C31.7904 62.5422 30.783 62.5341 29.7756 62.5584C29.67 62.5584 29.54 62.7529 29.4831 62.8826C29.2475 63.4093 29.0444 63.9361 28.8007 64.5358C28.4838 64.1792 28.2563 63.9199 27.9882 63.6201C28.8981 62.2099 28.5163 60.5242 28.6382 58.8791C30.3849 58.8791 32.1235 58.8791 33.8946 58.8791C33.9108 58.9844 33.9352 59.0979 33.9352 59.2113C33.9352 60.5404 33.9515 61.8776 33.9352 63.2067C33.9271 64.1225 32.8628 64.8114 32.0747 64.3494C31.8229 64.1955 31.7579 63.7416 31.5629 63.3526ZM29.6943 61.675C30.7667 61.675 31.7904 61.675 32.8465 61.675C32.8303 61.4805 32.8222 61.3265 32.8059 61.1645C31.7416 61.1645 30.7261 61.1645 29.6943 61.1645C29.6943 61.3509 29.6943 61.5048 29.6943 61.675ZM29.7187 60.2406C30.7911 60.2406 31.7904 60.2406 32.8059 60.2406C32.8059 60.0785 32.8059 59.9326 32.8059 59.7948C31.7498 59.7948 30.7342 59.7948 29.7187 59.7948C29.7187 59.965 29.7187 60.0947 29.7187 60.2406Z" fill="white"/>
<path d="M44.8705 54.1462C44.8705 55.3456 44.8787 56.5045 44.8543 57.6553C44.8543 57.7607 44.6593 57.9471 44.5618 57.9471C42.222 57.9633 39.8741 57.9633 37.4937 57.9633C37.4937 56.6747 37.4937 55.4266 37.4937 54.1462C39.9391 54.1462 42.3683 54.1462 44.8705 54.1462ZM43.725 55.1916C41.9945 55.1916 40.3372 55.1916 38.6636 55.1916C38.6636 55.7832 38.6636 56.3586 38.6636 56.9502C38.8098 56.9583 38.9317 56.9664 39.0454 56.9664C40.4997 56.9664 41.962 56.9745 43.4163 56.9502C43.5219 56.9502 43.7088 56.7719 43.7169 56.6666C43.7494 56.1965 43.725 55.7184 43.725 55.1916Z" fill="white"/>
<path d="M34.0733 56.0183C34.0733 56.31 34.0733 56.5369 34.0733 56.8368C33.3421 56.8368 32.619 56.8368 31.8635 56.8368C31.8635 57.0475 31.8635 57.1934 31.8635 57.3798C32.7165 57.3798 33.5533 57.3798 34.3739 57.3798C34.6014 58.2145 34.5364 58.3118 33.7321 58.3118C32.1235 58.3118 30.5067 58.3118 28.8981 58.3118C28.0857 58.3118 28.0857 58.3118 28.1832 57.4203C28.9875 57.4203 29.7999 57.4203 30.653 57.4203C30.6773 57.2258 30.6936 57.088 30.7261 56.8611C29.9786 56.8611 29.2718 56.8611 28.5325 56.8611C28.5325 56.5531 28.5325 56.3181 28.5325 56.0183C29.15 56.0183 29.743 56.0102 30.3361 56.0183C30.6692 56.0264 30.7667 55.8967 30.653 55.5401C30.1249 55.5401 29.5968 55.5401 29.0687 55.5401C28.2319 55.5401 28.2319 55.5401 28.3294 54.6243C29.1012 54.6243 29.8812 54.6243 30.6448 54.6243C30.783 53.8463 30.7911 53.8463 31.7985 53.9841C31.8147 54.1705 31.8391 54.365 31.8635 54.6C32.6597 54.6 33.4477 54.6 34.2602 54.6C34.2602 54.9242 34.2602 55.1997 34.2602 55.5239C33.464 55.5239 32.684 55.5239 31.9122 55.5239C31.8229 56.0021 31.8229 56.0102 32.1966 56.0102C32.8222 56.0264 33.4396 56.0183 34.0733 56.0183Z" fill="white"/>
<path d="M40.6703 58.9682C40.6703 60.7755 40.6703 62.5503 40.6703 64.3495C40.3047 64.3495 39.9553 64.3495 39.5654 64.3495C39.5491 64.1712 39.5329 63.9929 39.5166 63.7984C38.8098 63.7984 38.1355 63.7984 37.4206 63.7984C37.4043 63.9848 37.3881 64.1631 37.3718 64.3657C37.0143 64.3657 36.6731 64.3657 36.3075 64.3657C36.3075 62.5665 36.3075 60.7836 36.3075 58.9682C37.7618 58.9682 39.1917 58.9682 40.6703 58.9682ZM39.5085 62.7043C39.5085 61.8047 39.5085 60.9294 39.5085 60.0218C38.8017 60.0218 38.1192 60.0218 37.4287 60.0218C37.4287 60.9294 37.4287 61.8047 37.4287 62.7043C38.1355 62.7043 38.8098 62.7043 39.5085 62.7043Z" fill="white"/>
<path d="M46.0079 58.9682C46.0079 60.7917 46.0079 62.5665 46.0079 64.3657C45.6505 64.3657 45.3092 64.3657 44.9355 64.3657C44.9112 64.1955 44.8868 64.0172 44.8543 63.8065C44.1637 63.8065 43.4732 63.8065 42.7582 63.8065C42.742 63.9929 42.7338 64.1631 42.7176 64.3576C42.3601 64.3576 42.0108 64.3576 41.6289 64.3576C41.6289 62.5665 41.6289 60.7836 41.6289 58.9682C43.0913 58.9682 44.5374 58.9682 46.0079 58.9682ZM44.8624 62.7205C44.8624 61.7966 44.8624 60.9213 44.8624 60.0461C44.1393 60.0461 43.4569 60.0461 42.7907 60.0461C42.7907 60.97 42.7907 61.8452 42.7907 62.7205C43.4894 62.7205 44.1556 62.7205 44.8624 62.7205Z" fill="white"/>
<path d="M86.1989 55.5806C86.1989 56.391 86.1989 57.1042 86.1989 57.866C86.5319 57.8822 86.8488 57.8984 87.19 57.9146C87.19 58.2631 87.19 58.5792 87.19 58.9358C86.865 58.9358 86.5645 58.9358 86.2151 58.9358C86.2151 59.7138 86.2151 60.4513 86.2151 61.2698C86.6132 61.0753 86.9707 60.897 87.4094 60.6782C87.4094 61.0348 87.4256 61.3346 87.4013 61.6345C87.3931 61.7399 87.3363 61.8857 87.255 61.9263C86.207 62.4936 85.1589 63.0528 84.0622 63.6282C83.9078 63.2148 83.7941 62.8988 83.6559 62.5422C84.0297 62.3639 84.4115 62.2099 84.7527 62.0073C84.899 61.9263 85.0614 61.7318 85.0696 61.5778C85.1021 60.7268 85.0858 59.8759 85.0858 58.9682C84.7121 58.9682 84.3628 58.9682 83.9728 58.9682C83.9728 58.5954 83.9728 58.2874 83.9728 57.9227C84.3221 57.9065 84.6715 57.8822 85.0533 57.866C85.0533 57.1123 85.0533 56.391 85.0533 55.613C84.6471 55.613 84.249 55.613 83.7941 55.613C83.7941 55.2483 83.7941 54.9404 83.7941 54.6C84.9721 54.6 86.1501 54.6 87.3525 54.6C87.3525 54.9242 87.3525 55.224 87.3525 55.5806C86.9869 55.5806 86.6132 55.5806 86.1989 55.5806Z" fill="white"/>
<path d="M99.1896 57.5581C99.9696 57.0556 100.709 56.5856 101.44 56.1155C101.416 56.0507 101.383 55.9859 101.359 55.921C100.676 55.921 99.9939 55.921 99.2628 55.921C99.2628 55.5401 99.2628 55.2322 99.2628 54.8594C100.108 54.8594 100.953 54.8594 101.83 54.8594C101.887 54.5352 101.928 54.2515 101.984 53.9436C102.326 53.9436 102.651 53.9436 103.008 53.9436C103.008 54.2353 103.008 54.5028 103.008 54.8188C103.926 54.8188 104.828 54.8188 105.803 54.8188C105.795 55.7832 105.811 56.7152 105.445 57.5662C105.323 57.8498 104.917 58.0524 104.6 58.2145C104.381 58.3199 104.097 58.2875 103.837 58.3037C102.911 58.3685 102.87 58.328 102.699 57.3231C103.008 57.3231 103.301 57.3231 103.601 57.3231C104.47 57.3231 104.56 57.2339 104.617 56.3668C104.625 56.2371 104.617 56.0993 104.617 55.8967C104.032 55.8967 103.471 55.8805 102.911 55.9048C102.797 55.9129 102.651 56.0426 102.586 56.156C102.049 57.0799 101.245 57.6796 100.311 58.1578C99.8558 58.3847 99.5877 58.3361 99.3765 57.8822C99.3115 57.7364 99.2221 57.6148 99.1896 57.5581Z" fill="white"/>
<path d="M25.6322 58.7575C25.0553 58.7575 24.5598 58.7575 24.0236 58.7575C24.0236 58.3685 24.0236 58.02 24.0236 57.6148C24.5191 57.6148 25.0228 57.6148 25.5915 57.6148C25.5915 56.3586 25.5915 55.1511 25.5915 53.9274C25.9815 53.9274 26.2984 53.9274 26.6802 53.9274C26.6802 55.1349 26.6802 56.3424 26.6802 57.5986C27.1027 57.5986 27.4764 57.5986 27.8745 57.5986C27.8745 57.9795 27.8745 58.3199 27.8745 58.7251C27.5089 58.7251 27.127 58.7251 26.7046 58.7251C26.7046 60.6296 26.7046 62.4693 26.7046 64.3495C26.3471 64.3495 26.0303 64.3495 25.624 64.3495C25.6322 62.5098 25.6322 60.6539 25.6322 58.7575Z" fill="white"/>
<path d="M97.9629 53.9355C97.9629 54.8756 97.9629 55.7751 97.9629 56.7152C98.3204 56.7395 98.6372 56.7558 98.9784 56.7801C98.9784 57.1204 98.9784 57.4365 98.9784 57.8174C98.6616 57.8174 98.3529 57.8174 97.9873 57.8174C97.9873 60.0218 97.9873 62.1613 97.9873 64.3495C97.5892 64.3495 97.2479 64.3495 96.858 64.3495C96.858 62.2099 96.858 60.0623 96.858 57.866C96.468 57.8498 96.1187 57.8336 95.7449 57.8174C95.7449 57.4608 95.7449 57.1285 95.7449 56.7476C96.1105 56.7476 96.4436 56.7476 96.8336 56.7476C96.8336 55.7913 96.8336 54.8756 96.8336 53.9355C97.2154 53.9355 97.5485 53.9355 97.9629 53.9355Z" fill="white"/>
<path d="M98.9459 64.5196C98.6615 64.3332 98.4178 64.1793 98.166 64.0172C98.4341 63.4499 98.7428 62.9231 98.954 62.3558C99.1652 61.7804 99.279 61.1726 99.4496 60.5161C99.1409 60.4918 98.8971 60.4756 98.6128 60.4513C98.6128 60.1352 98.6128 59.8192 98.6128 59.4707C98.8809 59.4545 99.149 59.4383 99.4658 59.4221C99.5065 59.1465 99.539 58.8629 99.5796 58.563C99.8964 58.563 100.197 58.563 100.53 58.563C100.53 58.8467 100.53 59.1141 100.53 59.4383C101.091 59.4383 101.611 59.4383 102.22 59.4383C102.163 60.427 102.122 61.359 102.049 62.291C102.017 62.7124 101.952 63.1419 101.879 63.5633C101.757 64.2603 100.782 64.7628 100.205 64.3576C99.9695 64.1955 99.9208 63.774 99.7502 63.4094C99.9127 63.3931 100.002 63.3769 100.091 63.3769C100.936 63.3931 100.969 63.3931 101.026 62.5746C101.066 61.9101 101.034 61.2455 101.034 60.5323C100.904 60.5323 100.693 60.5323 100.425 60.5323C100.165 61.8939 99.8883 63.2959 98.9459 64.5196Z" fill="white"/>
<path d="M103.829 63.3769C104.909 63.3202 104.909 63.3202 104.966 62.2342C104.999 61.6588 105.031 61.0834 105.072 60.4837C104.82 60.4837 104.617 60.4837 104.397 60.4837C104.17 61.8938 103.918 63.2878 103 64.5196C102.724 64.3575 102.448 64.1955 102.147 64.0253C102.878 62.9474 103.236 61.7804 103.341 60.5323C102.456 60.354 102.456 60.354 102.561 59.4626C102.837 59.4464 103.114 59.4301 103.455 59.4139C103.471 59.1303 103.496 58.8466 103.512 58.5468C103.821 58.5468 104.105 58.5468 104.43 58.5468C104.446 58.8304 104.462 59.106 104.479 59.4302C105.015 59.4302 105.518 59.4302 106.087 59.4302C106.087 59.8597 106.103 60.2487 106.087 60.6296C106.038 61.4967 105.965 62.3639 105.9 63.2311C105.827 64.163 105.169 64.625 104.259 64.3738C104.17 64.3494 104.072 64.236 104.04 64.1468C103.95 63.9118 103.902 63.6606 103.829 63.3769Z" fill="white"/>
<path d="M82.0067 56.9826C82.0067 57.6229 82.023 58.1902 81.9905 58.7494C81.9824 58.871 81.8036 59.0492 81.6818 59.0736C81.438 59.1222 81.1781 59.0898 80.8937 59.0898C80.8937 58.6846 80.8937 58.3523 80.8937 57.9714C78.3346 57.9714 75.8079 57.9714 73.2244 57.9714C73.2081 58.3199 73.1919 58.6846 73.1756 59.0655C72.81 59.0655 72.4688 59.0655 72.0951 59.0655C72.0951 58.3928 72.0951 57.7201 72.0951 56.9908C73.4843 56.9908 74.8736 56.9908 76.3279 56.9908C76.2466 56.7881 76.1979 56.6504 76.1329 56.4721C76.4822 56.4072 76.8153 56.31 77.1484 56.31C77.2865 56.31 77.4896 56.4883 77.5628 56.6342C77.6927 56.9016 77.8633 56.9908 78.1558 56.9826C79.407 56.9745 80.6662 56.9826 82.0067 56.9826Z" fill="white"/>
<path d="M26.599 73.2722C27.0946 73.1345 27.1189 72.7536 27.1189 72.3403C27.1108 71.3515 27.1189 70.3628 27.1108 69.366C27.1108 69.0094 27.1108 68.6447 26.5421 68.6366C26.5665 68.588 26.5909 68.5475 26.6234 68.4988C27.387 68.4988 28.1507 68.4502 28.9144 68.5069C30.458 68.6204 31.2298 69.3336 31.2786 70.614C31.3273 72.0404 30.4987 73.0696 29.0363 73.2479C28.232 73.3533 27.4114 73.2722 26.599 73.2722ZM27.8826 70.8166C27.8908 70.8166 27.907 70.8166 27.9151 70.8166C27.9151 71.3434 27.9151 71.8702 27.9151 72.4051C27.9151 72.7536 28.0695 73.0696 28.427 73.0534C28.8657 73.0372 29.3856 72.9967 29.7187 72.7536C30.6855 72.0566 30.6205 69.7145 29.6212 69.0499C29.28 68.823 28.8007 68.7825 28.3701 68.7014C28.037 68.6447 27.8745 68.8554 27.8745 69.1877C27.8826 69.7307 27.8826 70.2737 27.8826 70.8166Z" fill="white"/>
<path d="M1.08866 73.3128C1.55174 73.1345 1.60861 72.8022 1.60861 72.4132C1.60049 71.4407 1.59236 70.4682 1.60861 69.4957C1.61674 69.0823 1.59236 68.7095 1.04803 68.6042C1.06428 68.5556 1.08053 68.5069 1.09678 68.4583C1.98233 68.5069 2.876 68.515 3.75343 68.6123C4.15964 68.6609 4.45212 68.9689 4.50899 69.4146C4.57398 69.8522 4.39525 70.1764 4.02965 70.4114C3.91591 70.4844 3.80217 70.5492 3.63969 70.6465C3.81842 70.7275 3.95654 70.7842 4.08652 70.841C4.9802 71.2786 5.06956 72.4132 4.22464 72.94C3.93216 73.1264 3.56657 73.1993 3.21722 73.2885C3.03849 73.3371 2.84351 73.3128 2.65665 73.3128C2.14482 73.3128 1.61674 73.3128 1.08866 73.3128ZM2.40479 70.8329C2.40479 71.3434 2.40479 71.8216 2.40479 72.2916C2.40479 72.6563 2.3723 73.0372 2.88413 73.1021C3.35534 73.1588 3.71281 72.9238 3.85092 72.4618C4.19214 71.3596 3.63156 70.7032 2.40479 70.8329ZM2.41292 70.6222C2.69727 70.6059 2.88413 70.6141 3.06286 70.5735C3.59094 70.4682 3.79405 70.0711 3.68031 69.4227C3.59094 68.9203 3.23347 68.6204 2.74601 68.7014C2.62415 68.7258 2.42917 68.8878 2.42917 68.9932C2.39667 69.5119 2.41292 70.0305 2.41292 70.6222Z" fill="white"/>
<path d="M21.5944 70.1197C21.3588 69.4794 21.96 68.7177 21.0257 68.2881C21.4563 68.2071 21.8381 68.1341 22.2768 68.0531C22.2768 68.3286 22.2768 68.5799 22.2768 68.823C22.2768 69.9819 22.2606 71.1408 22.285 72.2997C22.2931 72.5753 22.4475 72.8427 22.5449 73.1507C22.3093 73.2074 21.9681 73.2966 21.5944 73.3938C21.5619 73.2722 21.5294 73.1588 21.4969 73.0291C21.44 73.0534 21.3913 73.0615 21.3507 73.094C20.8876 73.4019 20.4245 73.5316 19.937 73.1588C19.4252 72.7698 19.2384 72.2349 19.3196 71.6271C19.4252 70.8085 20.1158 70.1926 20.9607 70.1197C21.1313 70.1035 21.3019 70.1197 21.5944 70.1197ZM21.5457 71.7324C21.5457 71.5136 21.5213 71.2867 21.5538 71.0679C21.6025 70.6546 21.4319 70.4195 21.0257 70.3385C20.6114 70.2575 20.3026 70.4682 20.262 70.8329C20.2052 71.3515 20.2458 71.9026 20.3351 72.4213C20.3676 72.6158 20.6439 72.8265 20.8551 72.9238C21.2532 73.1102 21.5375 72.8913 21.5457 72.4456C21.5457 72.2025 21.5457 71.9675 21.5457 71.7324Z" fill="white"/>
<path d="M50.6631 68.0531C50.6631 68.8311 50.6631 69.5686 50.6631 70.3223C50.7769 70.298 50.8662 70.2899 50.9394 70.2575C51.4756 70.0143 51.9711 70.063 52.4099 70.4682C52.8729 70.8977 52.9542 71.4488 52.8161 72.0242C52.5561 73.1507 51.0856 73.7909 50.0944 73.1993C49.9969 73.1426 49.9401 72.9238 49.9401 72.7779C49.9319 71.546 49.9482 70.3142 49.9238 69.0823C49.9157 68.8149 49.7695 68.5556 49.6801 68.2557C49.9076 68.2233 50.2407 68.1422 50.6631 68.0531ZM50.6631 70.5654C50.6631 71.1814 50.6631 71.773 50.6631 72.3727C50.6631 72.4375 50.6388 72.5267 50.6712 72.5753C50.8094 72.7698 50.9231 73.0291 51.1181 73.1102C51.2887 73.175 51.6055 73.1021 51.7518 72.9724C52.2149 72.551 52.1743 71.1814 51.7112 70.7356C51.4268 70.4682 51.1018 70.3709 50.6631 70.5654Z" fill="white"/>
<path d="M55.7896 59.3491C56.1714 59.3491 56.4883 59.3491 56.8782 59.3491C56.8782 60.2001 56.8782 61.0267 56.8782 61.8614C56.8782 62.1694 56.8945 62.4774 56.8782 62.7853C56.862 63.1419 57.0001 63.2797 57.3657 63.2473C57.6501 63.223 57.9425 63.2392 58.2756 63.2392C58.2756 63.5877 58.2756 63.8956 58.2756 64.2522C57.6338 64.2522 56.9676 64.3089 56.3258 64.2198C56.1227 64.1874 55.8302 63.7578 55.8221 63.4985C55.7652 62.137 55.7896 60.7755 55.7896 59.3491Z" fill="white"/>
<path d="M72.4445 56.8125C72.1682 56.4721 71.9489 56.1965 71.7783 55.9858C72.4201 55.2889 73.0213 54.6324 73.7118 53.8868C73.9068 53.9355 74.2562 54.0246 74.6461 54.13C74.6055 54.292 74.573 54.4136 74.5243 54.6C75.3367 54.6 76.1085 54.6 76.9291 54.6C76.9291 54.9404 76.9291 55.2159 76.9291 55.5644C76.076 55.5644 75.223 55.5887 74.3699 55.5563C73.9556 55.5401 73.6631 55.6455 73.3869 55.9615C73.1269 56.2614 72.7938 56.5045 72.4445 56.8125Z" fill="white"/>
<path d="M77.8877 56.3992C77.5546 56.2209 77.254 56.0669 76.9372 55.9048C77.4165 55.2159 77.8796 54.5514 78.3914 53.822C78.6677 53.903 79.0251 54.0003 79.4151 54.1138C79.3582 54.2839 79.3095 54.4136 79.2445 54.6C80.2682 54.6 81.235 54.6 82.2505 54.6C82.2505 54.9404 82.2505 55.2321 82.2505 55.5644C81.2512 55.5644 80.2763 55.5887 79.3014 55.5563C78.822 55.5401 78.4321 55.6049 78.1965 56.075C78.1396 56.1885 78.0177 56.2695 77.8877 56.3992Z" fill="white"/>
<path d="M51.5568 59.3653C51.898 59.3653 52.2311 59.3653 52.613 59.3653C52.6373 60.9538 52.6292 62.5098 51.5568 63.8065C50.8419 64.6736 50.7444 64.6574 49.9644 63.7416C50.6875 63.2797 51.1343 62.607 51.2806 61.7723C51.4187 60.9862 51.4674 60.192 51.5568 59.3653Z" fill="white"/>
<path d="M54.7091 64.4062C54.3516 64.4062 54.0266 64.4062 53.6773 64.4062C53.6773 62.7286 53.6773 61.0672 53.6773 59.3734C54.0185 59.3734 54.3435 59.3734 54.7091 59.3734C54.7091 61.0348 54.7091 62.6881 54.7091 64.4062Z" fill="white"/>
<path d="M81.5842 73.2966C81.1049 73.2966 80.5281 73.2966 79.9431 73.2966C80.3656 73.1102 80.3412 72.8022 80.1869 72.4618C80.1625 72.4132 80.1544 72.3646 80.1381 72.3159C79.8375 71.4812 79.5044 71.2948 78.6351 71.4974C78.5458 71.5217 78.4401 71.619 78.3914 71.7081C78.2939 71.9107 78.2289 72.1214 78.1639 72.3322C77.9527 72.9562 77.9527 72.9562 78.6026 73.2804C78.0583 73.2804 77.579 73.2804 77.2296 73.2804C77.4327 72.9724 77.7252 72.6563 77.8877 72.2835C78.367 71.157 78.7976 69.9981 79.2444 68.8554C79.3013 68.7176 79.3663 68.588 79.48 68.3367C79.6019 68.6042 79.6913 68.7501 79.7481 68.9121C80.1706 70.0467 80.5606 71.1894 81.0074 72.324C81.1374 72.6644 81.3892 72.9724 81.5842 73.2966ZM79.7481 71.2462C79.5532 70.687 79.3826 70.1926 79.1551 69.5605C78.9195 70.2088 78.7407 70.7113 78.5539 71.2462C78.9682 71.2462 79.3257 71.2462 79.7481 71.2462Z" fill="white"/>
<path d="M118.883 73.2804C118.509 73.2804 118.038 73.2804 117.542 73.2804C118.03 72.867 118.087 70.9139 117.616 70.4034C117.957 70.3061 118.265 70.217 118.615 70.1116C118.639 70.2656 118.655 70.3952 118.68 70.5573C118.769 70.5087 118.842 70.4844 118.907 70.4358C119.265 70.1764 119.638 69.9576 120.085 70.2007C120.524 70.4439 120.548 70.8815 120.548 71.3191C120.548 71.7325 120.524 72.1377 120.557 72.551C120.573 72.7941 120.687 73.0291 120.76 73.2804C120.386 73.2804 119.939 73.2804 119.582 73.2804C119.655 73.0372 119.785 72.7941 119.801 72.5429C119.833 72.1053 119.817 71.6595 119.801 71.2138C119.793 70.8248 119.63 70.5411 119.192 70.5654C118.785 70.5898 118.59 70.7924 118.631 71.23C118.664 71.6676 118.615 72.1215 118.647 72.5591C118.68 72.8022 118.802 73.0291 118.883 73.2804Z" fill="white"/>
<path d="M57.2357 70.1683C57.4551 71.157 57.0407 72.1782 57.5445 73.1345C57.3251 73.1912 56.9676 73.2804 56.602 73.3776C56.5695 73.2398 56.537 73.1264 56.4964 72.9643C56.3908 73.0372 56.3177 73.0778 56.2527 73.1264C55.9115 73.3695 55.554 73.5073 55.1559 73.3047C54.7497 73.094 54.6928 72.705 54.6847 72.2997C54.6766 71.8702 54.701 71.4488 54.6766 71.0193C54.6603 70.7761 54.5628 70.5411 54.4897 70.2656C54.7334 70.2413 55.0422 70.2088 55.424 70.1683C55.424 70.8734 55.4159 71.5542 55.424 72.2268C55.4321 72.5915 55.5053 72.9238 55.9765 72.9319C56.3502 72.94 56.602 72.8184 56.5777 72.3646C56.5533 71.9026 56.602 71.4407 56.5614 70.9868C56.5452 70.7599 56.3989 70.5411 56.2933 70.2656C56.5289 70.2413 56.8701 70.2088 57.2357 70.1683Z" fill="white"/>
<path d="M49.5582 59.8029C49.8101 59.9407 50.1188 60.1109 50.5575 60.3459C49.9888 61.7318 49.4201 63.1014 48.8189 64.5602C48.4046 64.2765 48.104 64.0739 47.8278 63.8875C48.4046 62.5179 48.9733 61.1726 49.5582 59.8029Z" fill="white"/>
<path d="M68.561 71.773C68.5285 72.7293 67.8379 73.4181 66.9361 73.3938C66.01 73.3614 65.3438 72.6401 65.3844 71.7081C65.425 70.768 66.1724 70.0792 67.0986 70.1116C67.9435 70.1521 68.5854 70.8734 68.561 71.773ZM67.7892 71.8297C67.6836 71.4812 67.6186 71.0193 67.4155 70.614C67.1961 70.1683 66.6843 70.1764 66.4243 70.5735C66.0831 71.1003 66.1806 72.4861 66.5868 72.9724C66.9036 73.3533 67.3911 73.2966 67.5617 72.8346C67.6754 72.551 67.6998 72.243 67.7892 71.8297Z" fill="white"/>
<path d="M92.1134 70.1116C93.0071 70.1197 93.6732 70.8248 93.6489 71.7487C93.6326 72.705 92.9421 73.41 92.0484 73.3938C91.1385 73.3776 90.4723 72.705 90.4723 71.7892C90.4723 70.8491 91.1953 70.1035 92.1134 70.1116ZM92.8771 71.773C92.7715 71.4407 92.6983 70.9706 92.4871 70.5816C92.2515 70.144 91.7478 70.1926 91.4959 70.606C91.1791 71.1489 91.2766 72.478 91.6747 72.9643C91.9996 73.3614 92.5034 73.2885 92.674 72.8022C92.7796 72.5186 92.7958 72.2025 92.8771 71.773Z" fill="white"/>
<path d="M114.406 70.1116C115.3 70.1035 115.974 70.8005 115.974 71.7162C115.966 72.6725 115.292 73.3938 114.398 73.3938C113.464 73.3938 112.782 72.6969 112.79 71.7649C112.798 70.8491 113.513 70.1197 114.406 70.1116ZM115.211 71.773C115.097 71.4245 115.016 70.9706 114.796 70.5735C114.577 70.1602 114.081 70.2007 113.838 70.5816C113.496 71.1165 113.594 72.4943 114.008 72.9805C114.325 73.3533 114.813 73.2966 114.983 72.8346C115.097 72.5348 115.121 72.2025 115.211 71.773Z" fill="white"/>
<path d="M12.7633 73.1183C12.2189 73.5154 12.1783 73.5073 11.7152 72.9967C11.5934 73.0778 11.4634 73.1669 11.3334 73.2398C10.9109 73.4992 10.4478 73.3614 10.2285 72.9076C10.0172 72.4618 10.1635 72.0809 10.6509 71.8864C10.919 71.7811 11.1953 71.6838 11.4715 71.6028C11.829 71.5055 11.8208 71.2219 11.7315 70.995C11.6421 70.768 11.4309 70.5978 11.2684 70.3952C11.1059 70.533 10.9353 70.6627 10.7728 70.8086C10.6591 70.9139 10.5697 71.0355 10.4722 71.1489C10.391 71.076 10.2203 70.9625 10.2366 70.9301C10.2935 70.7842 10.3828 70.6384 10.5047 70.5411C10.6509 70.4277 10.8297 70.3466 10.9922 70.2656C11.7965 69.8928 12.3895 70.2332 12.4545 71.1165C12.487 71.5541 12.4383 72.008 12.4789 72.4456C12.5114 72.6563 12.6495 72.8427 12.7633 73.1183ZM11.7477 71.6271C11.4877 71.7649 11.2196 71.8216 11.0978 71.9918C10.9678 72.162 10.9109 72.4537 10.9597 72.6563C10.9922 72.7779 11.3252 72.9157 11.4796 72.8832C11.6015 72.8508 11.699 72.5672 11.7315 72.3889C11.7883 72.1782 11.7477 71.9513 11.7477 71.6271Z" fill="white"/>
<path d="M105.031 73.1102C104.519 73.5154 104.478 73.5154 103.967 73.0048C103.829 73.0939 103.69 73.1993 103.544 73.2884C103.162 73.4992 102.724 73.3533 102.512 72.94C102.293 72.5104 102.415 72.1214 102.854 71.9269C103.105 71.8216 103.382 71.7648 103.617 71.6433C103.78 71.5622 104.015 71.392 104.007 71.2786C103.991 71.0111 103.918 70.6708 103.731 70.5087C103.422 70.2331 103.187 70.452 103.049 70.8004C102.992 70.9382 102.862 71.0436 102.764 71.1651C102.675 71.0922 102.504 70.9949 102.512 70.9625C102.561 70.8166 102.642 70.6465 102.764 70.5654C102.984 70.4114 103.235 70.2899 103.495 70.2007C104.064 69.99 104.6 70.2655 104.69 70.8734C104.763 71.3758 104.714 71.8945 104.763 72.4051C104.787 72.6158 104.925 72.8346 105.031 73.1102ZM104.015 71.619C103.739 71.7729 103.455 71.8621 103.3 72.0485C103.187 72.1944 103.162 72.4942 103.235 72.6806C103.284 72.8022 103.601 72.94 103.715 72.8913C103.853 72.8346 103.959 72.5915 103.999 72.4051C104.048 72.1863 104.015 71.9431 104.015 71.619Z" fill="white"/>
<path d="M59.2343 70.2412C59.4699 69.909 59.7705 69.4794 60.0792 69.0418C60.1361 69.0661 60.193 69.0904 60.2498 69.1229C60.2498 69.4551 60.2498 69.7874 60.2498 70.144C60.5017 70.1764 60.7129 70.2088 60.9242 70.2412C60.9323 70.2737 60.9323 70.3142 60.9404 70.3466C60.7292 70.3871 60.5179 70.4276 60.2661 70.4763C60.2661 71.1651 60.2255 71.8621 60.2905 72.551C60.3148 72.7617 60.6398 72.94 60.8998 73.2074C60.6073 73.2398 60.2417 73.3776 59.933 73.2966C59.5268 73.1912 59.5187 72.7617 59.5187 72.397C59.5105 71.8864 59.5349 71.3677 59.5024 70.8572C59.4943 70.6789 59.3562 70.5006 59.2343 70.2412Z" fill="white"/>
<path d="M106.648 70.2493C106.891 69.9009 107.192 69.4713 107.501 69.0418C107.558 69.0661 107.614 69.0904 107.663 69.1229C107.663 69.4551 107.663 69.7874 107.663 70.1521C107.915 70.1845 108.126 70.2169 108.338 70.2412C108.346 70.2818 108.354 70.3223 108.354 70.3547C108.151 70.3871 107.939 70.4276 107.679 70.4682C107.679 71.1489 107.655 71.8459 107.688 72.5348C107.704 72.94 107.826 72.9886 108.411 73.0291C108.078 73.2804 107.777 73.4992 107.371 73.3371C106.965 73.1669 106.94 72.8022 106.932 72.4375C106.924 71.9107 106.948 71.3839 106.916 70.8572C106.908 70.6708 106.761 70.4925 106.648 70.2493Z" fill="white"/>
<path d="M40.719 69.1391C40.719 69.4713 40.719 69.8036 40.719 70.1521C40.9709 70.1845 41.1821 70.2169 41.3852 70.2413C41.3852 70.2818 41.3933 70.3223 41.3933 70.3628C41.1902 70.3952 40.9952 70.4195 40.7515 70.4601C40.7515 71.1895 40.719 71.9351 40.7759 72.6644C40.7921 72.8265 41.1171 72.9643 41.3689 73.1669C41.1008 73.2236 40.784 73.3776 40.4834 73.3452C40.0772 73.2966 39.9959 72.8995 39.9797 72.551C39.9634 71.9918 39.9959 71.4245 39.9634 70.8653C39.9553 70.6789 39.8172 70.5006 39.7035 70.2413C39.9147 69.9333 40.2153 69.4957 40.524 69.0661C40.5809 69.0904 40.6459 69.1148 40.719 69.1391Z" fill="white"/>
<path d="M24.4136 59.3248C24.7142 59.3734 24.9904 59.4221 25.3885 59.4869C25.2341 60.5648 25.0716 61.6345 24.901 62.8015C24.5029 62.5989 24.2186 62.4449 23.9505 62.3072C24.1048 61.3184 24.2511 60.3621 24.4136 59.3248Z" fill="white"/>
<path d="M43.8956 70.6789C44.1231 70.4844 44.2856 70.2737 44.5131 70.1764C44.6593 70.1116 44.9274 70.1683 45.0493 70.2737C45.1224 70.3385 45.0737 70.6384 44.9843 70.7599C44.9193 70.841 44.6674 70.8491 44.5375 70.8005C44.1962 70.6789 43.9119 70.8005 43.8956 71.1814C43.8631 71.7081 43.8631 72.2349 43.9038 72.7617C43.92 72.9319 44.115 73.094 44.2612 73.3047C44.05 73.3047 43.8063 73.3047 43.5707 73.3047C43.3188 73.3047 43.0751 73.3047 42.7745 73.3047C43.2701 72.867 43.3188 70.8977 42.8638 70.4033C43.1969 70.3061 43.5138 70.2169 43.855 70.1197C43.8631 70.3061 43.8794 70.4682 43.8956 70.6789Z" fill="white"/>
<path d="M6.54009 70.3952C6.89755 70.298 7.20628 70.2169 7.53937 70.1278C7.55562 70.3142 7.56375 70.4844 7.58 70.687C7.77498 70.5168 7.92122 70.3061 8.12432 70.225C8.29493 70.1521 8.52241 70.225 8.73365 70.2332C8.72552 70.4033 8.75802 70.5978 8.69302 70.7518C8.57928 71.0031 8.40867 70.9382 8.18932 70.8086C7.88872 70.6222 7.58812 70.8167 7.57187 71.2057C7.5475 71.7162 7.53125 72.2349 7.58 72.7455C7.59624 72.9319 7.80748 73.1021 7.92934 73.2885C7.46626 73.2885 6.98692 73.2885 6.48322 73.2885C6.93818 72.8589 6.99505 70.9058 6.54009 70.3952Z" fill="white"/>
<path d="M36.0476 72.478C36.2019 72.6725 36.3075 72.9481 36.4944 73.021C36.7381 73.1183 37.1525 73.1912 37.3068 73.0615C37.6074 72.8103 37.445 72.4699 37.1606 72.243C36.9737 72.0971 36.7544 71.9918 36.5594 71.854C36.2019 71.6028 35.9501 71.2786 36.0882 70.8166C36.2344 70.3223 36.6244 70.1359 37.1119 70.1197C37.8349 70.0954 37.8918 70.144 37.8999 70.9544C37.7537 70.7599 37.6562 70.5978 37.5262 70.4763C37.2906 70.2575 36.9981 70.1602 36.7544 70.4276C36.5188 70.687 36.6163 70.9787 36.8844 71.1813C37.0712 71.3272 37.2906 71.4326 37.4937 71.5541C37.8918 71.7973 38.1436 72.1052 38.0299 72.6077C37.908 73.1183 37.5343 73.3209 37.0631 73.3938C36.2507 73.4992 36.0232 73.2885 36.0476 72.478Z" fill="white"/>
<path d="M88.7092 70.9868C88.5549 70.7599 88.4818 70.5978 88.3599 70.4844C88.1162 70.2494 87.8074 70.1359 87.5556 70.4277C87.3281 70.6951 87.4337 70.9787 87.7018 71.1732C87.8968 71.311 88.108 71.4164 88.3111 71.546C88.6767 71.7811 88.9448 72.0728 88.8392 72.5591C88.7336 73.0696 88.368 73.2885 87.8968 73.3695C87.1331 73.4992 86.8732 73.2804 86.8163 72.4294C86.9869 72.6563 87.1006 72.8508 87.2631 72.9967C87.5231 73.2398 87.8724 73.3452 88.1243 73.0534C88.3843 72.7617 88.238 72.4375 87.9456 72.2187C87.7262 72.0566 87.4256 71.9594 87.2794 71.7568C87.0844 71.4893 86.8975 71.1408 86.9057 70.8329C86.9138 70.4277 87.2875 70.2088 87.6775 70.1278C88.4736 69.9657 88.7092 70.144 88.7092 70.9868Z" fill="white"/>
<path d="M84.9803 70.9058C84.834 70.7275 84.7284 70.4925 84.5578 70.4195C84.3547 70.3385 84.0947 70.4033 83.8591 70.4033C83.8835 70.6465 83.8347 70.9382 83.9566 71.1246C84.0866 71.3191 84.3709 71.4083 84.5903 71.5379C84.9803 71.7811 85.2484 72.0809 85.1346 72.5834C85.0209 73.094 84.639 73.2966 84.176 73.3695C83.3879 73.4911 83.1523 73.2804 83.136 72.4456C83.2904 72.6482 83.4123 72.8589 83.5748 73.0129C83.8429 73.2479 84.1841 73.3452 84.4359 73.0453C84.6715 72.7698 84.5415 72.4537 84.2653 72.243C84.0622 72.089 83.8347 71.9675 83.6235 71.8216C83.2823 71.5785 83.0548 71.2624 83.1767 70.8167C83.3067 70.3466 83.6722 70.144 84.1353 70.1116C84.9396 70.063 85.029 70.1521 84.9803 70.9058Z" fill="white"/>
<path d="M50.5738 58.3523C50.2976 58.7251 50.0945 59.0087 49.8832 59.2924C49.1764 58.7494 48.5021 58.2388 47.7872 57.6958C47.9984 57.4041 48.2096 57.1042 48.4696 56.7557C49.1683 57.2825 49.8426 57.8012 50.5738 58.3523Z" fill="white"/>
<path d="M97.6704 70.8815C97.1992 70.5573 96.8092 70.2332 96.3624 70.5411C95.883 70.8734 95.9643 71.4245 96.0537 71.9026C96.2243 72.8103 96.8905 73.0616 97.8816 72.632C97.5323 73.2398 96.9798 73.5073 96.3786 73.3533C95.7206 73.1831 95.3062 72.6239 95.2981 71.9188C95.2981 70.9058 96.3949 69.9495 97.3698 70.144C97.5404 70.1764 97.7273 70.2899 97.8166 70.4277C97.8816 70.4925 97.7435 70.687 97.6704 70.8815Z" fill="white"/>
<path d="M47.9659 54.6243C48.0065 54.5676 48.0471 54.5109 48.0877 54.4622C48.2827 54.2515 48.4777 54.0408 48.7458 53.7491C49.3633 54.3407 49.9726 54.9161 50.5982 55.5077C50.2976 55.84 50.0701 56.1074 49.8263 56.3748C49.2008 55.7913 48.6077 55.2321 47.9659 54.6243Z" fill="white"/>
<path d="M15.5742 70.614C15.7367 70.4925 15.883 70.3466 16.0536 70.2494C16.6548 69.909 17.256 70.1764 17.3453 70.8734C17.4185 71.4083 17.3616 71.9594 17.4022 72.5023C17.4185 72.7617 17.5322 73.021 17.5972 73.2885C17.2316 73.2885 16.7848 73.2885 16.4517 73.2885C16.5167 73.0372 16.6223 72.7779 16.6548 72.5104C16.6873 72.1701 16.6629 71.8297 16.6629 71.4893C16.6629 70.614 16.4598 70.4601 15.6149 70.6708C15.5986 70.6465 15.5824 70.6303 15.5742 70.614Z" fill="white"/>
<path d="M71.3151 70.614C71.4939 70.4844 71.6563 70.3304 71.8432 70.225C72.4119 69.9333 72.9887 70.1926 73.0781 70.8248C73.1512 71.3758 73.1025 71.9431 73.1431 72.5023C73.1593 72.7617 73.2731 73.0129 73.3462 73.2804C72.9806 73.2804 72.5256 73.2804 72.1925 73.2804C72.2575 73.0291 72.3632 72.7698 72.3957 72.5023C72.4281 72.162 72.4038 71.8216 72.4038 71.4812C72.4038 70.5978 72.2088 70.4439 71.3557 70.6627C71.3476 70.6465 71.3314 70.6302 71.3151 70.614Z" fill="white"/>
<path d="M28.1426 62.1046C27.8095 62.2099 27.5089 62.2991 27.1758 62.4044C27.1027 61.4238 27.0377 60.4999 26.9646 59.5274C27.2408 59.4545 27.5089 59.3896 27.8339 59.3005C27.9395 60.2568 28.037 61.1402 28.1426 62.1046Z" fill="white"/>
<path d="M60.8835 53.7653C61.5497 54.3163 62.1753 54.8269 62.8009 55.3456C62.7359 55.4428 62.7196 55.4915 62.6871 55.532C62.0534 56.1803 62.0616 56.1722 61.3954 55.5806C61.1923 55.4023 60.981 55.224 60.7617 55.0619C60.5586 54.908 60.3473 54.7621 60.1036 54.5919C60.3473 54.3245 60.5829 54.0813 60.8835 53.7653Z" fill="white"/>
<path d="M15.6068 70.6627C15.3143 71.3191 15.4524 72.9481 15.8667 73.2723C15.3387 73.2723 14.8593 73.2723 14.3962 73.2723C14.8674 72.8427 14.9324 70.9301 14.4531 70.4033C14.7862 70.3061 15.1031 70.2169 15.4199 70.1278C15.4768 70.3061 15.5174 70.4601 15.5661 70.614C15.5824 70.6303 15.5986 70.6465 15.6068 70.6627Z" fill="white"/>
<path d="M48.1202 73.2885C47.5515 73.2885 47.0803 73.2885 46.5847 73.2885C47.0641 72.8751 47.1047 70.9544 46.666 70.379C46.9828 70.298 47.2916 70.225 47.6734 70.1278C47.6734 70.6951 47.6328 71.23 47.6815 71.7568C47.7465 72.2511 47.4053 72.8589 48.1202 73.2885Z" fill="white"/>
<path d="M63.7595 73.2966C63.3858 73.2966 62.9308 73.2966 62.4596 73.2966C62.9065 72.8022 62.939 70.8977 62.4921 70.3871C62.8333 70.298 63.1502 70.2169 63.4752 70.1359C63.6945 71.1732 63.2558 72.2754 63.7595 73.2966Z" fill="white"/>
<path d="M34.5608 73.2966C33.984 73.2966 33.529 73.2966 33.0659 73.2966C33.4884 72.7536 33.5209 70.9301 33.1065 70.379C33.4234 70.298 33.7321 70.225 34.114 70.1278C34.114 70.6951 34.0733 71.23 34.1221 71.7568C34.1627 72.2592 33.8296 72.8589 34.5608 73.2966Z" fill="white"/>
<path d="M109.906 70.379C110.263 70.2899 110.572 70.2169 110.937 70.1278C110.937 70.6951 110.889 71.2381 110.954 71.773C111.011 72.2673 110.637 72.8833 111.409 73.2723C110.816 73.2723 110.352 73.2723 109.889 73.2723C110.32 72.7941 110.361 70.9058 109.906 70.379Z" fill="white"/>
<path d="M99.4414 70.379C99.7583 70.298 100.067 70.225 100.449 70.1278C100.449 70.687 100.408 71.23 100.457 71.7568C100.506 72.2511 100.173 72.8589 100.863 73.2723C100.335 73.2723 99.872 73.2723 99.4252 73.2723C99.8314 72.7536 99.8558 70.9301 99.4414 70.379Z" fill="white"/>
<path d="M71.3557 70.6627C71.0714 71.3272 71.2014 72.9481 71.6157 73.2723C71.112 73.2723 70.6489 73.2723 70.1208 73.2723C70.722 72.9157 70.5027 72.3565 70.4946 71.8783C70.4864 71.4002 70.7139 70.8491 70.194 70.4114C70.5433 70.3061 70.8602 70.2169 71.177 70.1278C71.2258 70.3061 71.2745 70.4601 71.3232 70.614C71.3314 70.6303 71.3476 70.6465 71.3557 70.6627Z" fill="white"/>
<path d="M25.3884 56.9746C25.0554 57.0961 24.7872 57.2015 24.4704 57.3149C24.3079 56.5693 24.1536 55.8562 24.0154 55.1349C23.9992 55.062 24.1536 54.9323 24.251 54.8756C24.4135 54.7864 24.6004 54.7378 24.8685 54.6405C25.0472 55.4185 25.2097 56.1641 25.3884 56.9746Z" fill="white"/>
<path d="M27.2408 54.7945C27.5576 54.8837 27.8339 54.9647 28.1507 55.0538C28.0207 55.8156 27.8907 56.5531 27.7608 57.323C27.5495 57.2663 27.4033 57.2177 27.257 57.1853C26.9565 57.1123 26.8508 56.9827 26.9321 56.6423C27.0702 56.0588 27.1352 55.4672 27.2408 54.7945Z" fill="white"/>
<path d="M74.1667 55.8967C75.4179 55.6292 75.4179 55.6293 75.8241 56.5369C74.6867 56.9178 74.6136 56.8935 74.1667 55.8967Z" fill="white"/>
<path d="M79.0576 55.8886C80.1625 55.5644 80.4225 55.686 80.6337 56.6342C79.5288 56.853 79.5288 56.853 79.0576 55.8886Z" fill="white"/>
<path d="M63.7189 68.9122C63.4345 69.1229 63.2802 69.3255 63.1258 69.3255C62.9877 69.3336 62.7196 69.0985 62.7358 69.0013C62.7602 68.8311 62.939 68.5961 63.0852 68.5637C63.2152 68.5313 63.402 68.7339 63.7189 68.9122Z" fill="white"/>
<path d="M100.644 68.9446C100.343 69.1391 100.181 69.3336 100.018 69.3255C99.8802 69.3255 99.6283 69.0742 99.6445 68.977C99.677 68.8149 99.872 68.588 100.018 68.5637C100.165 68.5393 100.343 68.7501 100.644 68.9446Z" fill="white"/>
<path d="M110.547 69.5443C110.344 69.2606 110.141 69.1067 110.141 68.9527C110.141 68.8149 110.377 68.5556 110.491 68.5718C110.653 68.588 110.88 68.7825 110.913 68.9284C110.937 69.0661 110.726 69.2444 110.547 69.5443Z" fill="white"/>
<path d="M47.2916 68.353C47.4703 68.6447 47.6734 68.823 47.649 68.9689C47.6165 69.1148 47.3891 69.3012 47.2266 69.3255C47.121 69.3336 46.8772 69.0823 46.8854 68.9446C46.8854 68.7825 47.0885 68.6285 47.2916 68.353Z" fill="white"/>
<path d="M34.2926 68.9284C34.0002 69.131 33.8377 69.3174 33.6752 69.3174C33.5371 69.3174 33.4071 69.0904 33.269 68.9608C33.4071 68.823 33.529 68.6042 33.6914 68.5637C33.8296 68.5393 34.0002 68.742 34.2926 68.9284Z" fill="white"/>
<path d="M113.968 58.5144C114.91 57.7688 115 57.7607 115.658 58.3361C114.894 59.1627 114.707 59.187 113.968 58.5144Z" fill="white"/>
</svg>
