<svg width="17" height="239" viewBox="0 0 17 239" fill="none" xmlns="http://www.w3.org/2000/svg">
<path d="M0.339996 217.93C0.339996 217.93 0.469996 217.93 0.509996 217.93C0.879996 219.08 2 219.44 2.93 219.44H10.38C13.38 219.44 15.59 223 15.59 228.08C15.59 233.44 13.8 237.94 9.86 237.94H1.78C0.999996 237.94 0.699996 238.19 0.509996 238.77C0.469996 238.77 0.339996 238.77 0.339996 238.77V234.31C0.339996 234.31 0.469996 234.31 0.509996 234.31C0.699996 234.85 1.01 235.1 1.78 235.1H9.86C13.43 235.1 15.59 232.04 15.33 226.82C15.11 222.39 12.8 219.69 10.38 219.69H3.17C1.98 219.69 0.659996 220.63 0.509996 222.39C0.469996 222.39 0.339996 222.39 0.339996 222.39V217.93Z" fill="#FFE9DC"/>
<path d="M0.339996 190.75C0.339996 190.75 0.469996 190.75 0.509996 190.75C0.879996 191.94 2 193.02 2.93 193.02H15.46V193.56L2.3 210.7H12.87C13.8 210.7 14.94 209.62 15.31 208.4C15.35 208.4 15.46 208.4 15.46 208.4V213.26C15.46 213.26 15.35 213.26 15.31 213.26C14.94 212.04 13.8 210.96 12.87 210.96H2.11L0.339996 213.26V209.62L12.74 193.31H2.93C2 193.31 0.879996 194.39 0.509996 195.58C0.469996 195.58 0.339996 195.58 0.339996 195.58V190.75Z" fill="#FFE9DC"/>
<path d="M1.78 182.44H14.03C14.79 182.44 15.11 182.19 15.3 181.61C15.34 181.61 15.45 181.61 15.45 181.61V186.07C15.45 186.07 15.34 186.07 15.3 186.07C15.11 185.53 14.78 185.28 14.03 185.28H1.78C1.02 185.28 0.699996 185.53 0.509996 186.07C0.469996 186.07 0.339996 186.07 0.339996 186.07V181.61C0.339996 181.61 0.469996 181.61 0.509996 181.61C0.699996 182.18 1.03 182.44 1.78 182.44Z" fill="#FFE9DC"/>
<path d="M14.77 158.43L15.89 153.1L16.88 153.86L15.02 159.44C15.39 160.92 15.58 162.54 15.58 164.23C15.58 171.36 12.1 177.3 7.85 177.3C3.57 177.3 0.119995 171.36 0.119995 164.23C0.119995 157.14 3.58 151.16 7.85 151.16C10.88 151.16 13.49 154.14 14.77 158.43ZM14.9 159.79L14.23 161.81L14.08 161.7L14.66 158.93C13.17 154.21 9.54 152.88 6.08 154.61C2.28 156.55 -0.470005 161.88 0.639995 167.89C1.74 173.9 5.79999 175.77 9.60999 173.83C13.43 171.89 16.18 166.56 15.08 160.55C15.03 160.3 14.96 160.05 14.9 159.79Z" fill="#FFE9DC"/>
<path d="M0.339996 125.99C0.339996 125.99 0.469996 125.99 0.509996 125.99C0.879996 127.14 2 127.5 2.93 127.5H10.38C13.38 127.5 15.59 131.06 15.59 136.14C15.59 141.5 13.8 146 9.86 146H1.78C0.999996 146 0.699996 146.25 0.509996 146.83C0.469996 146.83 0.339996 146.83 0.339996 146.83V142.37C0.339996 142.37 0.469996 142.37 0.509996 142.37C0.699996 142.91 1.01 143.16 1.78 143.16H9.86C13.43 143.16 15.59 140.1 15.33 134.88C15.11 130.45 12.8 127.75 10.38 127.75H3.17C1.98 127.75 0.659996 128.69 0.509996 130.45C0.469996 130.45 0.339996 130.45 0.339996 130.45V125.99Z" fill="#FFE9DC"/>
<path d="M12.85 105.9L15.46 106.69V121.3C15.46 121.3 15.35 121.3 15.31 121.3C15.12 120.76 14.79 120.51 14.04 120.51H1.78C1.02 120.51 0.699996 120.76 0.509996 121.3C0.469996 121.3 0.339996 121.3 0.339996 121.3V107.84L2.74 107.08L2.83 107.26C1.71 108.92 0.519996 111.15 0.519996 115.14V117.66H6.89L6.41 108.59H7.51L7.06 117.66H15.31V114.74C15.31 110.78 14.08 107.79 12.76 106.1L12.85 105.9Z" fill="#FFE9DC"/>
<path d="M2.15 73.2099L4.4 74.2899V74.5399C1.5 76.5899 0.4 79.2199 0.4 82.0599C0.4 85.6199 1.61 87.6799 2.91 87.8899C7.23 88.5699 5.81 73.1299 11.21 73.1299C13.78 73.1299 15.6 76.9799 15.6 82.0899C15.6 86.3699 14.74 89.0399 13.46 91.8399L11 90.7599V90.5099C13.2 88.6699 15.17 85.3299 15.17 80.6099C15.17 77.5499 13.98 74.9899 12.62 74.7099C8.02 73.7699 9.49 89.2499 4.06 89.2499C2.31 89.2499 0.13 86.9099 0.13 81.1099C0.12 78.3599 1.16 75.3399 2.15 73.2099Z" fill="#FFE9DC"/>
<path d="M15.46 48.4499V54.1699H15.31C14.75 53.2699 13.97 53.9899 12.5 55.4299L6.56 61.0499L9.09 65.1499H14.04C14.8 65.1499 15.12 64.8999 15.31 64.3599C15.35 64.3599 15.46 64.3599 15.46 64.3599V68.8199C15.46 68.8199 15.35 68.8199 15.31 68.8199C15.12 68.2399 14.79 67.9899 14.04 67.9899H1.78C0.999996 67.9899 0.699996 68.2399 0.509996 68.8199C0.469996 68.8199 0.339996 68.8199 0.339996 68.8199V64.3599C0.339996 64.3599 0.469996 64.3599 0.509996 64.3599C0.699996 64.8999 1.01 65.1499 1.78 65.1499H8.87L4.2 57.6299C2.13 54.3199 1.15 53.5299 0.509996 54.8899H0.339996V50.1699H0.509996C1.07 51.9699 2.2 53.9899 4.14 57.1499L5.39 59.1299L11.79 53.0499C13.86 51.0699 14.6 49.8799 15.31 48.4399H15.46V48.4499Z" fill="#FFE9DC"/>
<path d="M1.78 41.2099H14.03C14.79 41.2099 15.11 40.9599 15.3 40.3799C15.34 40.3799 15.45 40.3799 15.45 40.3799V44.8399C15.45 44.8399 15.34 44.8399 15.3 44.8399C15.11 44.2999 14.78 44.0499 14.03 44.0499H1.78C1.02 44.0499 0.699996 44.2999 0.509996 44.8399C0.469996 44.8399 0.339996 44.8399 0.339996 44.8399V40.3799C0.339996 40.3799 0.469996 40.3799 0.509996 40.3799C0.699996 40.9599 1.03 41.2099 1.78 41.2099Z" fill="#FFE9DC"/>
<path d="M12.85 19.8999L15.46 20.6899V35.6999C15.46 35.6999 15.35 35.6999 15.31 35.6999C15.12 35.1199 14.79 34.8699 14.04 34.8699H1.78C0.999996 34.8699 0.699996 35.1199 0.509996 35.6999C0.469996 35.6999 0.339996 35.6999 0.339996 35.6999V31.2399C0.339996 31.2399 0.469996 31.2399 0.509996 31.2399C0.699996 31.7799 1.01 32.0299 1.78 32.0299H15.31V28.7499C15.31 24.7499 14.08 21.7999 12.76 20.1099L12.85 19.8999Z" fill="#FFE9DC"/>
<path d="M12.85 0.139893L15.46 0.929893V15.9399C15.46 15.9399 15.35 15.9399 15.31 15.9399C15.12 15.3599 14.79 15.1099 14.04 15.1099H1.78C0.999996 15.1099 0.699996 15.3599 0.509996 15.9399C0.469996 15.9399 0.339996 15.9399 0.339996 15.9399V11.4799C0.339996 11.4799 0.469996 11.4799 0.509996 11.4799C0.699996 12.0199 1.01 12.2699 1.78 12.2699H15.31V8.98989C15.31 4.98989 14.08 2.03989 12.76 0.349892L12.85 0.139893Z" fill="#FFE9DC"/>
</svg>
