<svg width="54" height="54" viewBox="0 0 54 54" fill="none" xmlns="http://www.w3.org/2000/svg">
<path d="M52.4 53.84C45.74 47.18 36.69 43.52 26.91 43.52C17.13 43.52 8.07 47.19 1.42 53.84L0 52.43C13.82 38.61 13.82 15.27 0 1.45004L1.41 0.0400391C8.07 6.70004 17.12 10.36 26.9 10.36C36.68 10.36 45.74 6.69004 52.39 0.0400391L53.8 1.45004C47.14 8.11004 43.48 17.16 43.48 26.94C43.48 36.72 47.15 45.78 53.8 52.43L52.4 53.84ZM6.72 6.75005C14.23 18.97 14.23 34.9 6.72 47.11C12.64 43.46 19.58 41.5101 26.91 41.5101C34.23 41.5101 41.16 43.4601 47.09 47.1001C43.45 41.1801 41.5 34.2401 41.5 26.9201C41.5 19.6001 43.45 12.6701 47.09 6.74005C41.17 10.3801 34.23 12.33 26.91 12.33C19.58 12.35 12.64 10.4 6.72 6.75005Z" fill="#FFE9DC"/>
</svg>
