<svg width="80" height="97" viewBox="0 0 80 97" fill="none" xmlns="http://www.w3.org/2000/svg">
<g clip-path="url(#clip0_220_227)">
<path d="M0 0V96.02C0 96.02 27.07 85.28 39.85 73C51.78 85.28 79.59 96.02 79.59 96.02V0H0ZM76.06 3.68V91.64L73.61 90.54C55.37 82.33 46.77 75.69 42.75 71.55L39.95 68.67L37.02 71.49C29.23 78.97 15.85 85.93 6 90.46L3.54 91.59V89.49V3.68V2.53H76.06V3.68Z" fill="#430B11"/>
<path d="M6.87 86.26C15.12 82.47 28.44 75.71 35.93 68.51L39.98 64.62L43.85 68.61C50.85 75.81 64.38 82.59 72.73 86.34V4.75H6.88L6.87 86.26Z" fill="#430B11"/>
</g>
<defs>
<clipPath id="clip0_220_227">
<rect width="79.59" height="96.02" fill="white"/>
</clipPath>
</defs>
</svg>
