<svg width="16" height="344" viewBox="0 0 16 344" fill="none" xmlns="http://www.w3.org/2000/svg">
<path d="M0.670044 21.63V16.09H0.820045C1.38005 17.03 2.14005 16.74 3.72005 15.73L6.46004 13.97V5.04L4.82005 4.07C2.85005 2.92 1.79005 2.74 0.820045 4.25H0.670044V0H0.820045C1.79005 1.55 2.79005 2.59 4.82005 3.78L13.94 9.18L15.8 7.99V10.83L4.82005 17.85C2.66005 19.33 1.79005 20.26 0.820045 21.63H0.670044ZM6.63004 13.86L13.7 9.32L6.63004 5.14V13.86Z" fill="#FFE9DC"/>
<path d="M3.28004 41.04L0.670044 40.25V25.24C0.670044 25.24 0.780045 25.24 0.820045 25.24C1.02005 25.82 1.34004 26.07 2.10004 26.07H14.35C15.13 26.07 15.43 25.82 15.63 25.24C15.67 25.24 15.8 25.24 15.8 25.24V29.7C15.8 29.7 15.67 29.7 15.63 29.7C15.44 29.16 15.13 28.91 14.35 28.91H0.820045V32.19C0.820045 36.19 2.05005 39.14 3.37005 40.83L3.28004 41.04Z" fill="#FFE9DC"/>
<path d="M3.28004 60.8L0.670044 60.01V45C0.670044 45 0.780045 45 0.820045 45C1.02005 45.58 1.34004 45.83 2.10004 45.83H14.35C15.13 45.83 15.43 45.58 15.63 45C15.67 45 15.8 45 15.8 45V49.46C15.8 49.46 15.67 49.46 15.63 49.46C15.44 48.92 15.13 48.67 14.35 48.67H0.820045V51.95C0.820045 55.95 2.05005 58.9 3.37005 60.59L3.28004 60.8Z" fill="#FFE9DC"/>
<path d="M13.15 89.5701L13.09 89.3901C14.19 87.7701 15.62 85.5001 15.62 81.5101V78.4901H8.55003L9.00002 86.7701H7.90002L8.37003 78.4901H2.08002C1.32002 78.4901 1.00003 78.7401 0.800026 79.2801C0.760026 79.2801 0.650024 79.2801 0.650024 79.2801V74.8501C0.650024 74.8501 0.760026 74.8501 0.800026 74.8501C1.00003 75.3901 1.32002 75.6401 2.08002 75.6401H14.33C15.09 75.6401 15.41 75.3901 15.61 74.8501C15.65 74.8501 15.78 74.8501 15.78 74.8501V88.4201L13.15 89.5701Z" fill="#FFE9DC"/>
<path d="M0.670044 111.56V106.02H0.820045C1.38005 106.96 2.14005 106.67 3.72005 105.66L6.46004 103.9V94.9699L4.82005 93.9999C2.85005 92.8499 1.79005 92.6699 0.820045 94.1799H0.670044V89.9299H0.820045C1.79005 91.4799 2.79005 92.5199 4.82005 93.7099L13.94 99.1099L15.8 97.9199V100.76L4.82005 107.78C2.66005 109.26 1.79005 110.19 0.820045 111.56H0.670044ZM6.63004 103.79L13.7 99.2499L6.63004 95.0699V103.79Z" fill="#FFE9DC"/>
<path d="M13.97 133.45L11.72 132.37V132.12C14.61 130.07 15.72 127.44 15.72 124.6C15.72 121.04 14.51 118.98 13.21 118.77C8.89002 118.09 10.32 133.53 4.91003 133.53C2.34003 133.53 0.52002 129.68 0.52002 124.57C0.52002 120.29 1.38003 117.62 2.66003 114.82L5.12003 115.9V116.15C2.91003 117.99 0.95002 121.33 0.95002 126.05C0.95002 129.11 2.14002 131.67 3.50002 131.95C8.10002 132.89 6.63002 117.41 12.06 117.41C13.81 117.41 15.99 119.75 15.99 125.55C16.01 128.3 14.97 131.32 13.97 133.45Z" fill="#FFE9DC"/>
<path d="M14.34 156.88H2.09003C1.33003 156.88 1.01003 157.13 0.810028 157.67C0.770028 157.67 0.660034 157.67 0.660034 157.67V153.21C0.660034 153.21 0.770028 153.21 0.810028 153.21C1.01003 153.79 1.33003 154.04 2.09003 154.04H9.54003V141.51H2.09003C1.33003 141.51 1.01003 141.76 0.810028 142.3C0.770028 142.3 0.660034 142.3 0.660034 142.3V137.84C0.660034 137.84 0.770028 137.84 0.810028 137.84C1.01003 138.42 1.33003 138.67 2.09003 138.67H14.34C15.1 138.67 15.42 138.42 15.62 137.84C15.66 137.84 15.79 137.84 15.79 137.84V142.3C15.79 142.3 15.66 142.3 15.62 142.3C15.43 141.76 15.1 141.51 14.34 141.51H9.70003V154.04H14.34C15.1 154.04 15.42 153.79 15.62 153.21C15.66 153.21 15.79 153.21 15.79 153.21V157.67C15.79 157.67 15.66 157.67 15.62 157.67C15.42 157.14 15.1 156.88 14.34 156.88Z" fill="#FFE9DC"/>
<path d="M14.34 165.99H2.09003C1.33003 165.99 1.01003 166.24 0.810028 166.82C0.770028 166.82 0.660034 166.82 0.660034 166.82V162.36C0.660034 162.36 0.770028 162.36 0.810028 162.36C1.01003 162.9 1.33003 163.15 2.09003 163.15H14.34C15.1 163.15 15.42 162.9 15.62 162.36C15.66 162.36 15.79 162.36 15.79 162.36V166.82C15.79 166.82 15.66 166.82 15.62 166.82C15.42 166.25 15.1 165.99 14.34 165.99Z" fill="#FFE9DC"/>
<path d="M8.27003 197.27C4.01003 197.27 0.530029 191.33 0.530029 184.2C0.530029 177.07 4.01003 171.13 8.27003 171.13C12.55 171.13 16 177.07 16 184.2C16.01 191.34 12.55 197.27 8.27003 197.27ZM10.04 193.82C13.84 191.88 16.59 186.55 15.48 180.54C14.38 174.53 10.32 172.66 6.51003 174.6C2.68003 176.54 -0.0599686 181.87 1.04003 187.88C2.14003 193.89 6.22003 195.76 10.04 193.82Z" fill="#FFE9DC"/>
<path d="M15.79 223.73C15.79 223.73 15.66 223.73 15.62 223.73C15.25 222.54 14.13 221.46 13.2 221.46H0.670044V220.92L13.83 203.79H3.26005C2.33005 203.79 1.19005 204.87 0.820045 206.09C0.780045 206.09 0.670044 206.09 0.670044 206.09V201.23C0.670044 201.23 0.780045 201.23 0.820045 201.23C1.19005 202.45 2.33005 203.53 3.26005 203.53H14.02L15.79 201.23V204.87L3.39005 221.18H13.2C14.13 221.18 15.25 220.1 15.62 218.91C15.66 218.91 15.79 218.91 15.79 218.91V223.73Z" fill="#FFE9DC"/>
<path d="M13.97 256.78L11.72 255.7V255.45C14.61 253.4 15.72 250.77 15.72 247.93C15.72 244.37 14.51 242.31 13.21 242.1C8.89002 241.42 10.32 256.86 4.91003 256.86C2.34003 256.86 0.52002 253.01 0.52002 247.9C0.52002 243.62 1.38003 240.95 2.66003 238.15L5.12003 239.23V239.48C2.91003 241.32 0.95002 244.66 0.95002 249.38C0.95002 252.44 2.14002 255 3.50002 255.28C8.10002 256.22 6.63002 240.74 12.06 240.74C13.81 240.74 15.99 243.08 15.99 248.88C16.01 251.64 14.97 254.66 13.97 256.78Z" fill="#FFE9DC"/>
<path d="M13.15 280.69L13.09 280.47C14.19 278.85 15.62 276.58 15.62 272.59V271.8H2.09003C1.33003 271.8 1.01003 272.09 0.810028 272.63C0.770028 272.63 0.660034 272.63 0.660034 272.63V268.17C0.660034 268.17 0.770028 268.17 0.810028 268.17C1.01003 268.71 1.33003 269 2.09003 269H15.62V268.21C15.62 264.21 14.19 261.95 13.09 260.33L13.15 260.11L15.79 261.26V279.55L13.15 280.69Z" fill="#FFE9DC"/>
<path d="M15.79 305.49C15.79 305.49 15.66 305.49 15.62 305.49C15.25 304.34 14.13 303.98 13.2 303.98H5.75004C2.75004 303.98 0.540039 300.42 0.540039 295.34C0.540039 289.98 2.33003 285.48 6.27003 285.48H14.35C15.13 285.48 15.43 285.23 15.63 284.65C15.67 284.65 15.8 284.65 15.8 284.65V289.11C15.8 289.11 15.67 289.11 15.63 289.11C15.44 288.57 15.13 288.32 14.35 288.32H6.27003C2.70003 288.32 0.540041 291.38 0.800041 296.6C1.02004 301.03 3.33004 303.73 5.75004 303.73H12.97C14.16 303.73 15.48 302.79 15.63 301.03C15.67 301.03 15.8 301.03 15.8 301.03V305.49H15.79Z" fill="#FFE9DC"/>
<path d="M13.15 324.89L13.09 324.71C14.19 323.09 15.62 320.82 15.62 316.83V313.81H8.55003L9.00002 322.09H7.90002L8.37003 313.81H2.08002C1.32002 313.81 1.00003 314.06 0.800026 314.6C0.760026 314.6 0.650024 314.6 0.650024 314.6V310.17C0.650024 310.17 0.760026 310.17 0.800026 310.17C1.00003 310.71 1.32002 310.96 2.08002 310.96H14.33C15.09 310.96 15.41 310.71 15.61 310.17C15.65 310.17 15.78 310.17 15.78 310.17V323.74L13.15 324.89Z" fill="#FFE9DC"/>
<path d="M13.15 343.58L13.09 343.4C14.19 341.78 15.62 339.51 15.62 335.52V332.5H8.55003L9.00002 340.78H7.90002L8.37003 332.5H2.08002C1.32002 332.5 1.00003 332.75 0.800026 333.29C0.760026 333.29 0.650024 333.29 0.650024 333.29V328.86C0.650024 328.86 0.760026 328.86 0.800026 328.86C1.00003 329.4 1.32002 329.65 2.08002 329.65H14.33C15.09 329.65 15.41 329.4 15.61 328.86C15.65 328.86 15.78 328.86 15.78 328.86V342.43L13.15 343.58Z" fill="#FFE9DC"/>
</svg>
