<svg width="107" height="107" viewBox="0 0 107 107" fill="none" xmlns="http://www.w3.org/2000/svg">
<path d="M1 106.79C0.74 106.79 0.49 106.69 0.29 106.5C0.09 106.31 0 106.05 0 105.79C0 105.53 0.1 105.28 0.29 105.08C13.79 91.5801 21.22 73.2201 21.22 53.3901C21.22 33.5601 13.79 15.2001 0.29 1.70006C0.1 1.51006 0 1.26006 0 1.00006C0 0.740059 0.1 0.490059 0.29 0.290059C0.68 -0.0999414 1.31 -0.0999414 1.7 0.290059C15.2 13.7901 33.56 21.2201 53.39 21.2201C73.22 21.2201 91.58 13.7901 105.08 0.290059C105.47 -0.0999414 106.1 -0.0999414 106.49 0.290059C106.69 0.490059 106.78 0.740059 106.78 1.00006C106.78 1.26006 106.68 1.51006 106.49 1.71006C78.47 29.7301 78.47 77.0701 106.49 105.09C106.69 105.29 106.78 105.54 106.78 105.8C106.78 106.06 106.68 106.31 106.49 106.51C106.1 106.9 105.47 106.9 105.08 106.51C91.59 93.0001 73.23 85.5701 53.4 85.5701C33.57 85.5701 15.21 93.0001 1.71 106.5C1.51 106.69 1.26 106.79 1 106.79ZM9.48 9.48006C27.91 35.3701 27.91 71.4301 9.48 97.3201C22.01 88.3901 37.23 83.5701 53.4 83.5701C69.57 83.5701 84.79 88.3901 97.32 97.3201C78.89 71.4301 78.89 35.3701 97.32 9.48006C84.79 18.4101 69.57 23.2301 53.4 23.2301C37.23 23.2301 22.01 18.4101 9.48 9.48006Z" fill="#FFE9DC"/>
</svg>
