<?xml version="1.0" encoding="utf-8"?>
<!-- Generator: Adobe Illustrator 23.1.1, SVG Export Plug-In . SVG Version: 6.00 Build 0)  -->
<svg version="1.1" id="圖層_1" xmlns="http://www.w3.org/2000/svg" xmlns:xlink="http://www.w3.org/1999/xlink" x="0px" y="0px"
	 viewBox="0 0 70.45 93.74" style="enable-background:new 0 0 70.45 93.74;" xml:space="preserve">
<style type="text/css">
	.st0{clip-path:url(#SVGID_2_);fill:#F8B62D;}
	.st1{clip-path:url(#SVGID_2_);fill:#FFFFFF;}
	.st2{clip-path:url(#SVGID_2_);fill:#EB6D8E;}
	.st3{clip-path:url(#SVGID_2_);fill-rule:evenodd;clip-rule:evenodd;fill:#FFFFFF;}
</style>
<g>
	<defs>
		<rect id="SVGID_1_" y="0" width="70.45" height="93.74"/>
	</defs>
	<clipPath id="SVGID_2_">
		<use xlink:href="#SVGID_1_"  style="overflow:visible;"/>
	</clipPath>
	<path class="st0" d="M68.9,33.67c0,18.6-15.08,33.67-33.67,33.67c-18.6,0-33.67-15.08-33.67-33.67C1.55,15.07,16.63,0,35.22,0
		C53.82,0,68.9,15.07,68.9,33.67"/>
	<path class="st1" d="M66.84,33.67c0,17.46-14.15,31.62-31.62,31.62S3.61,51.13,3.61,33.67S17.76,2.06,35.22,2.06
		S66.84,16.21,66.84,33.67"/>
	<path class="st2" d="M65.24,33.67c0,16.58-13.44,30.01-30.01,30.01c-16.58,0-30.01-13.44-30.01-30.01
		c0-16.58,13.44-30.01,30.01-30.01C51.8,3.66,65.24,17.09,65.24,33.67"/>
	<path class="st1" d="M23.6,33.56c-2.5,0-3.88-1.26-3.88-3.54c0-1.83,1.97-3.49,4.13-3.49c1.34,0,2.45,0.77,3.42,1.44
		c0.77,0.53,1.5,1.04,2.15,1.04c0.33,0,0.59,0.26,0.59,0.59c0,0.32-0.26,0.59-0.59,0.59c-1.02,0-1.94-0.63-2.82-1.25
		c-0.88-0.6-1.78-1.23-2.75-1.23c-1.49,0-2.95,1.15-2.95,2.32c0,1.02,0.28,2.37,2.7,2.37c0.32,0,0.59,0.26,0.59,0.59
		C24.19,33.29,23.92,33.56,23.6,33.56"/>
	<path class="st1" d="M23.6,33.82c-2.63,0-4.14-1.39-4.14-3.81c0-1.96,2.09-3.75,4.39-3.75c1.42,0,2.56,0.79,3.57,1.49
		c0.74,0.51,1.43,0.99,2.01,0.99c0.47,0,0.85,0.38,0.85,0.85c0,0.47-0.38,0.85-0.85,0.85c-1.11,0-2.06-0.66-2.97-1.29
		c-0.84-0.58-1.71-1.19-2.6-1.19c-1.33,0-2.69,1.04-2.69,2.06c0,1.86,1.23,2.11,2.44,2.11c0.47,0,0.85,0.38,0.85,0.85
		C24.45,33.44,24.07,33.82,23.6,33.82 M23.85,26.78c-2.02,0-3.87,1.54-3.87,3.23c0,2.15,1.25,3.28,3.62,3.28
		c0.18,0,0.33-0.15,0.33-0.33c0-0.18-0.15-0.33-0.33-0.33c-1.99,0-2.96-0.86-2.96-2.63c0-1.32,1.56-2.58,3.21-2.58
		c1.05,0,1.99,0.65,2.9,1.28c0.85,0.59,1.73,1.2,2.68,1.2c0.18,0,0.33-0.15,0.33-0.33c0-0.18-0.15-0.33-0.33-0.33
		c-0.74,0-1.5-0.53-2.3-1.08C26.17,27.52,25.1,26.78,23.85,26.78"/>
	<path class="st1" d="M46.3,33.56c-0.33,0-0.59-0.26-0.59-0.59c0-0.33,0.26-0.59,0.59-0.59c2.42,0,2.7-1.35,2.7-2.37
		c0-1.17-1.46-2.32-2.95-2.32c-0.97,0-1.88,0.63-2.75,1.23c-0.88,0.61-1.8,1.25-2.82,1.25c-0.33,0-0.59-0.26-0.59-0.59
		c0-0.33,0.26-0.59,0.59-0.59c0.66,0,1.38-0.5,2.15-1.04c0.98-0.68,2.08-1.44,3.42-1.44c2.16,0,4.13,1.67,4.13,3.49
		C50.18,32.3,48.8,33.56,46.3,33.56"/>
	<path class="st1" d="M46.3,33.82c-0.47,0-0.85-0.38-0.85-0.85c0-0.47,0.38-0.85,0.85-0.85c2.15,0,2.44-1.06,2.44-2.11
		c0-1.02-1.36-2.06-2.69-2.06c-0.89,0-1.76,0.6-2.6,1.19c-0.92,0.64-1.87,1.29-2.97,1.29c-0.47,0-0.85-0.38-0.85-0.85
		c0-0.47,0.38-0.85,0.85-0.85c0.58,0,1.27-0.48,2-0.99c1.01-0.7,2.15-1.49,3.57-1.49c2.3,0,4.39,1.79,4.39,3.75
		C50.44,32.43,48.93,33.82,46.3,33.82 M46.05,27.43c1.65,0,3.21,1.25,3.21,2.58c0,1.77-0.97,2.63-2.96,2.63
		c-0.18,0-0.33,0.15-0.33,0.33c0,0.18,0.15,0.33,0.33,0.33c2.37,0,3.62-1.13,3.62-3.28c0-1.69-1.84-3.23-3.87-3.23
		c-1.26,0-2.33,0.74-3.27,1.4c-0.81,0.56-1.56,1.08-2.3,1.08c-0.18,0-0.33,0.15-0.33,0.33c0,0.18,0.15,0.33,0.33,0.33
		c0.94,0,1.82-0.61,2.67-1.2C44.06,28.08,45,27.43,46.05,27.43"/>
	<path class="st1" d="M47.36,33.11c0,0.87-0.71,1.57-1.57,1.57c-0.87,0-1.57-0.7-1.57-1.57c0-0.87,0.7-1.57,1.57-1.57
		C46.65,31.54,47.36,32.25,47.36,33.11"/>
	<path class="st1" d="M45.78,34.95c-1.01,0-1.83-0.82-1.83-1.83c0-1.01,0.82-1.83,1.83-1.83c1.01,0,1.83,0.82,1.83,1.83
		C47.62,34.12,46.8,34.95,45.78,34.95 M45.78,31.8c-0.72,0-1.31,0.59-1.31,1.31c0,0.72,0.59,1.31,1.31,1.31
		c0.72,0,1.31-0.59,1.31-1.31C47.1,32.39,46.51,31.8,45.78,31.8"/>
	<path class="st1" d="M26.36,33.11c0,0.87-0.7,1.57-1.57,1.57s-1.57-0.7-1.57-1.57c0-0.87,0.7-1.57,1.57-1.57
		S26.36,32.25,26.36,33.11"/>
	<path class="st1" d="M24.79,34.95c-1.01,0-1.83-0.82-1.83-1.83c0-1.01,0.82-1.83,1.83-1.83c1.01,0,1.83,0.82,1.83,1.83
		C26.62,34.12,25.8,34.95,24.79,34.95 M24.79,31.8c-0.72,0-1.31,0.59-1.31,1.31c0,0.72,0.59,1.31,1.31,1.31
		c0.72,0,1.31-0.59,1.31-1.31C26.1,32.39,25.51,31.8,24.79,31.8"/>
	<path class="st1" d="M37.14,39.17c-0.64-2.59,4.35-9.75,4.35-9.75s-2.55-2.71-6.16-2.71c-0.01,0-0.03,0-0.04,0
		c-0.01,0-0.03,0-0.04,0c-3.61,0-6.16,2.71-6.16,2.71s4.99,7.16,4.35,9.75c-0.11,0.46-0.92,0.75-0.92,0.75l1.2,6.44
		c0,0,0.43,1.06,1.56,1.06h0.01c1.13,0,1.56-1.06,1.56-1.06l1.2-6.44C38.06,39.92,37.25,39.62,37.14,39.17"/>
	<path class="st1" d="M35.29,47.68h-0.01c-1.29,0-1.78-1.17-1.8-1.22l-0.01-0.05l-1.25-6.66l0.21-0.08c0.28-0.1,0.7-0.35,0.75-0.57
		c0.6-2.45-4.26-9.47-4.31-9.54l-0.12-0.17l0.15-0.15c0.11-0.11,2.67-2.79,6.35-2.79h0.05h0.04c3.68,0,6.24,2.68,6.35,2.79
		l0.15,0.15l-0.12,0.17c-0.05,0.07-4.91,7.09-4.31,9.54c0.06,0.22,0.47,0.46,0.75,0.57l0.21,0.08l-0.04,0.22l-1.21,6.47l-0.01,0.03
		C37.07,46.51,36.58,47.68,35.29,47.68 M33.97,46.28c0.06,0.14,0.44,0.87,1.31,0.87h0.01c0.86,0,1.24-0.74,1.31-0.87l1.16-6.21
		c-0.29-0.14-0.77-0.42-0.87-0.85c-0.61-2.47,3.47-8.61,4.26-9.78c-0.59-0.55-2.85-2.48-5.82-2.48l-0.04,0l-0.05,0
		c-2.97,0-5.23,1.93-5.82,2.48c0.79,1.16,4.87,7.31,4.26,9.78c-0.1,0.42-0.59,0.71-0.87,0.85L33.97,46.28z"/>
	<path class="st3" d="M38.18,53.74c1.17-4.92,1.28-10.93,7.09-12.71c2.57-0.79,3.41-2.44,4.82-3.65c1.4-1.22,4.67,1,2.19,3.15
		c-2.47,2.14-4.92,4.26-5.92,5.13c-1.01,0.86-0.19,1.18,0.56,0.53c0.74-0.66,4.91-4.25,5.83-5.05c0.92-0.79,1.42-2.12,1.25-2.98
		c-0.16-0.86-1.47-1.85-1.82-1.77c0.37-1.88,0.34-1.93,0.71-3.37c0.37-1.45,2.84-2.26,2.74-0.24c-0.09,2.02-0.12,7.52-1.06,9.81
		c-1.69,4.17-5.58,5.18-8.56,8.33l-0.57,2.81L38.18,53.74z"/>
	<path class="st3" d="M32.27,53.74c-1.17-4.92-1.28-10.93-7.09-12.71c-2.57-0.79-3.41-2.44-4.82-3.65c-1.4-1.22-4.67,1-2.19,3.15
		c2.47,2.14,4.92,4.26,5.92,5.13c1.01,0.86,0.19,1.18-0.56,0.53c-0.74-0.66-4.91-4.25-5.83-5.05c-0.92-0.79-1.42-2.12-1.25-2.98
		c0.16-0.86,1.47-1.85,1.82-1.77c-0.37-1.88-0.34-1.93-0.71-3.37c-0.37-1.45-2.84-2.26-2.74-0.24c0.09,2.02,0.12,7.52,1.06,9.81
		c1.69,4.17,5.58,5.18,8.57,8.33l0.57,2.81L32.27,53.74z"/>
	<path class="st0" d="M35.23,29.87c-1.56-2.68-6.22,0.64,0,4.42C41.45,30.51,36.88,27.14,35.23,29.87"/>
	<path class="st1" d="M27.99,18.49h-2.8v2.47c0,0.68-0.34,1.01-1.01,1.01c-0.68,0-1.02-0.34-1.02-1.01v-6.46
		c0-0.68,0.34-1.01,1.02-1.01c0.68,0,1.01,0.34,1.01,1.01v2.21h2.8V14.5c0-0.67,0.34-1,1.01-1c0.67,0,1,0.33,1,1v6.48
		c0,0.67-0.33,1-1,1c-0.67,0-1.01-0.33-1.01-1V18.49z"/>
	<path class="st1" d="M33.44,14.51v6.46c0,0.68-0.34,1.01-1.01,1.01c-0.68,0-1.02-0.34-1.02-1.01v-6.46c0-0.67,0.34-1.01,1.02-1.01
		C33.1,13.5,33.44,13.83,33.44,14.51"/>
	<path class="st1" d="M35.56,13.5h3.83c0.56,0,0.83,0.28,0.83,0.85c0,0.56-0.28,0.85-0.83,0.85h-2.54v1.86h2.06
		c0.56,0,0.83,0.28,0.83,0.83c0,0.57-0.28,0.86-0.83,0.86h-2.06v2.23c0,0.68-0.34,1.01-1.01,1.01c-0.68,0-1.02-0.34-1.02-1.01v-6.72
		c0-0.22,0.07-0.4,0.21-0.54C35.16,13.56,35.34,13.5,35.56,13.5"/>
	<path class="st1" d="M45.96,18.21v-3.73c0-0.65,0.33-0.98,0.98-0.98s0.98,0.33,0.98,0.98v3.52c0,1.42-0.28,2.46-0.84,3.13
		c-0.56,0.67-1.41,1.01-2.56,1.01c-1.15,0-2.01-0.34-2.58-1.01c-0.57-0.67-0.86-1.72-0.86-3.13v-3.48c0-0.67,0.34-1.01,1.01-1.01
		c0.67,0,1.01,0.34,1.01,1.01v3.7c0,0.78,0.12,1.34,0.35,1.68c0.23,0.34,0.59,0.51,1.07,0.51c0.48,0,0.84-0.17,1.08-0.51
		C45.84,19.54,45.96,18.98,45.96,18.21"/>
	<path class="st2" d="M1.39,76.47c0.46,0.23,0.75,0.38,0.88,0.46c0.51,0.36,0.57,0.79,0.21,1.3c-0.43,0.6-0.93,0.67-1.5,0.23
		c-0.05-0.03-0.12-0.07-0.21-0.12c-0.1-0.06-0.16-0.09-0.19-0.11c-0.31-0.17-0.5-0.37-0.56-0.61c-0.06-0.24,0.02-0.51,0.23-0.79
		C0.55,76.4,0.93,76.29,1.39,76.47 M0.28,83.64c0.05-0.1,0.22-0.48,0.52-1.14c0.3-0.66,0.51-1.17,0.64-1.52
		c0.27-0.74,0.72-0.88,1.36-0.43c0.45,0.31,0.59,0.73,0.41,1.26c-0.43,1.17-0.79,2.08-1.08,2.73c-0.3,0.69-0.76,0.84-1.41,0.46
		C0.15,84.64,0,84.19,0.28,83.64 M1.52,74.57c-0.04-0.02-0.09-0.05-0.17-0.1c-0.08-0.05-0.14-0.08-0.17-0.11
		c-0.61-0.34-0.7-0.79-0.26-1.35c0.32-0.41,0.71-0.53,1.17-0.33C2.29,72.77,2.6,72.94,3,73.19c0.49,0.34,0.54,0.76,0.16,1.26
		c-0.44,0.59-0.95,0.65-1.53,0.19C1.61,74.63,1.57,74.61,1.52,74.57 M11.8,75.66H6C5.94,75.77,5.82,76,5.62,76.35h5.36
		c0.62,0,0.92,0.43,0.9,1.28c-0.01,0.23-0.02,0.5-0.04,0.8c-0.02,0.3-0.03,0.52-0.03,0.65h0.37c0.56,0,0.84,0.28,0.84,0.84
		c0,0.58-0.28,0.87-0.84,0.87h-0.45c-0.01,0.46-0.04,0.88-0.08,1.27h0.35c0.55,0,0.83,0.28,0.83,0.83c0,0.56-0.28,0.84-0.83,0.84
		h-0.52c-0.12,0.75-0.35,1.27-0.7,1.56c-0.35,0.28-0.91,0.43-1.7,0.43c-0.3,0-0.53-0.07-0.72-0.22c-0.18-0.15-0.3-0.34-0.34-0.59
		c-0.13-0.25-0.15-0.45-0.06-0.59c0.09-0.15,0.29-0.21,0.61-0.19h0.4c0.26,0,0.45-0.13,0.58-0.38H6.19v0.03
		c-0.07,0.44-0.36,0.65-0.87,0.62c-0.36-0.02-0.62-0.1-0.8-0.26c-0.18-0.16-0.24-0.39-0.19-0.7c0.16-1.12,0.27-1.99,0.34-2.62h-0.5
		c-0.56,0-0.84-0.29-0.84-0.87c0-0.56,0.28-0.84,0.84-0.84h0.69c0.07-0.79,0.12-1.37,0.15-1.75L5,77.34v0.01
		c-0.4,0.5-0.84,0.54-1.31,0.14c-0.3-0.26-0.47-0.51-0.5-0.74c-0.03-0.24,0.08-0.51,0.33-0.81c0.53-0.74,0.98-1.61,1.34-2.63
		c0.19-0.67,0.61-0.93,1.26-0.78c0.66,0.15,0.89,0.56,0.7,1.23c0,0.01-0.01,0.03-0.02,0.05c-0.01,0.02-0.02,0.04-0.03,0.05h5.02
		c0.61,0,0.91,0.3,0.91,0.91C12.71,75.36,12.41,75.66,11.8,75.66 M8.01,82.06c-0.18-0.17-0.46-0.38-0.81-0.63
		c-0.15-0.1-0.15-0.21-0.01-0.33l0.34-0.3H6.52c-0.03,0.29-0.07,0.72-0.12,1.27H8.01z M7.89,79.08c-0.23-0.18-0.44-0.32-0.64-0.44
		c-0.12-0.06-0.13-0.13-0.03-0.23l0.47-0.44H6.8l-0.1,1.12H7.89z M9.8,82.06c0.03-0.3,0.05-0.73,0.08-1.27H8.71
		c0.01,0.01,0.06,0.04,0.14,0.09c0.08,0.05,0.14,0.09,0.18,0.12c0.04,0.03,0.09,0.07,0.16,0.14c0.07,0.06,0.12,0.12,0.14,0.17
		c0.03,0.05,0.05,0.11,0.07,0.17c0.02,0.06,0.01,0.13-0.02,0.2c-0.03,0.07-0.09,0.14-0.16,0.2l-0.19,0.18H9.8z M8.73,77.96
		c0.28,0.17,0.54,0.35,0.76,0.54c0.09,0.08,0.09,0.17-0.01,0.28l-0.29,0.3h0.78l0.03-0.77c0.02-0.23-0.09-0.34-0.32-0.34H8.73z"/>
	<path class="st2" d="M18.22,80.47v3.06c0,0.48-0.05,0.85-0.15,1.1c-0.1,0.26-0.27,0.46-0.53,0.61c-0.28,0.15-0.58,0.25-0.92,0.31
		c-0.34,0.06-0.66,0.03-0.97-0.08c-0.31-0.12-0.52-0.33-0.61-0.64c-0.11-0.38-0.09-0.65,0.06-0.81c0.15-0.17,0.43-0.24,0.85-0.23
		h0.01c0.18,0,0.28-0.09,0.28-0.26v-2.55l-0.41,0.1c-0.71,0.17-1.11-0.09-1.2-0.77c-0.05-0.34-0.01-0.6,0.12-0.79
		c0.12-0.18,0.35-0.31,0.67-0.37l0.83-0.16V76.8H15.6c-0.63,0-0.95-0.31-0.95-0.94c0-0.63,0.32-0.95,0.95-0.95h0.65V73.3
		c0-0.66,0.33-0.99,0.98-0.99c0.66,0,0.99,0.33,0.99,0.99v1.61h0.52c0.63,0,0.95,0.32,0.95,0.95c0,0.62-0.32,0.94-0.95,0.94h-0.52
		v1.71l0.18-0.04c0.65-0.16,1.02,0.1,1.1,0.77c0.07,0.58-0.16,0.94-0.7,1.07c-0.06,0.02-0.16,0.04-0.3,0.08
		C18.37,80.43,18.28,80.45,18.22,80.47 M24.51,78.36h2.04c0.65,0,0.98,0.32,0.98,0.97c0,0.65-0.33,0.98-0.98,0.98h-1.64
		c0.45,1.18,1.05,2.1,1.81,2.78c0.4,0.28,0.63,0.54,0.7,0.81c0.07,0.26-0.03,0.58-0.31,0.94c-0.23,0.29-0.47,0.45-0.71,0.45
		c-0.24,0.01-0.52-0.11-0.82-0.35c-0.8-0.73-1.45-1.72-1.96-2.95c-0.52,1.2-1.28,2.22-2.26,3.05c-0.66,0.5-1.21,0.49-1.64-0.01
		c-0.53-0.61-0.4-1.21,0.4-1.82c0.83-0.77,1.44-1.74,1.85-2.91h-1.2c-0.64,0-0.97-0.33-0.97-0.98c0-0.64,0.32-0.97,0.97-0.97h1.64
		c0.06-0.5,0.1-1.12,0.12-1.83h-1.31c-0.65,0-0.98-0.33-0.98-0.98c0-0.65,0.33-0.98,0.98-0.98h1.31v-1.21
		c0-0.68,0.34-1.02,1.03-1.02c0.69,0,1.03,0.34,1.03,1.02v1.21h1.53c0.65,0,0.98,0.33,0.98,0.98c0,0.65-0.33,0.98-0.98,0.98h-1.53
		C24.59,77.12,24.56,77.73,24.51,78.36"/>
	<path class="st2" d="M30.77,73.66h9.69c0.3,0,0.53,0.13,0.68,0.4c0.15,0.27,0.22,0.74,0.21,1.41c-0.09,3.11-0.2,5.3-0.33,6.56
		c-0.13,1.26-0.33,2.08-0.61,2.47c-0.24,0.32-0.48,0.56-0.73,0.71c-0.25,0.15-0.55,0.26-0.91,0.32c-0.39,0.07-0.87,0.1-1.46,0.08
		c-0.64-0.02-1.01-0.3-1.12-0.84c-0.05-0.17-0.08-0.29-0.1-0.34c-0.17-0.34-0.18-0.6-0.04-0.78c0.14-0.18,0.43-0.26,0.87-0.24h0.87
		c0.28,0,0.49-0.08,0.65-0.25c0.21-0.22,0.37-0.9,0.48-2.03c0.1-1.14,0.19-2.93,0.24-5.38h-3.49c-0.04,0.75-0.09,1.43-0.17,2.03
		c-0.08,0.6-0.21,1.26-0.39,1.98c-0.18,0.72-0.41,1.36-0.69,1.94c-0.28,0.58-0.65,1.16-1.11,1.75c-0.47,0.59-1.01,1.11-1.62,1.57
		c-0.84,0.54-1.49,0.54-1.96,0c-0.6-0.7-0.34-1.39,0.79-2.08c0.57-0.47,1.05-0.99,1.43-1.56c0.38-0.57,0.67-1.19,0.85-1.85
		c0.19-0.66,0.32-1.27,0.39-1.83c0.07-0.56,0.13-1.21,0.17-1.97h-2.58c-0.7,0-1.05-0.35-1.05-1.03
		C29.72,74.01,30.07,73.66,30.77,73.66"/>
	<path class="st2" d="M50.6,74.74h3.92c0.28,0,0.5,0.08,0.67,0.25c0.17,0.16,0.26,0.39,0.26,0.66v4.84c0,0.28-0.08,0.5-0.26,0.67
		c-0.17,0.17-0.39,0.25-0.67,0.25H50.6v3.24c0,0.72-0.36,1.08-1.08,1.08c-0.72,0-1.08-0.36-1.08-1.08v-3.24h-3.81
		c-0.28,0-0.5-0.08-0.67-0.25c-0.17-0.17-0.25-0.39-0.25-0.67v-4.84c0-0.28,0.08-0.5,0.25-0.66c0.17-0.17,0.39-0.25,0.67-0.25h3.81
		v-1.35c0-0.72,0.36-1.08,1.08-1.08c0.72,0,1.08,0.36,1.08,1.08V74.74z M48.45,76.75H46.1c-0.22,0-0.33,0.11-0.33,0.35v1.96
		c0,0.23,0.11,0.34,0.33,0.34h2.34V76.75z M53.29,76.75H50.6v2.65h2.69V76.75z"/>
	<path class="st2" d="M60.19,78.69c-0.17,1.43-0.46,2.65-0.84,3.68c-0.31,0.61-0.78,0.73-1.39,0.37c-0.66-0.38-0.84-0.87-0.52-1.48
		c0.32-0.76,0.56-1.67,0.72-2.72c0.04-0.37,0.17-0.64,0.39-0.83c0.21-0.18,0.49-0.24,0.83-0.18C59.99,77.68,60.26,78.06,60.19,78.69
		 M60.91,82.97v-5.5c0-0.71,0.36-1.06,1.08-1.06c0.71,0,1.06,0.35,1.06,1.06v5.5c0,0.36,0.03,0.58,0.1,0.66
		c0.07,0.08,0.25,0.12,0.56,0.12h1.53c0.27,0,0.45-0.12,0.55-0.37c0.04-0.36,0.11-0.68,0.21-0.95c0.11-0.28,0.26-0.48,0.47-0.63
		c0.21-0.14,0.45-0.15,0.74-0.02c0.26,0.12,0.43,0.36,0.5,0.72c0.08,0.36,0.09,0.72,0.03,1.1c-0.15,0.74-0.4,1.27-0.74,1.57
		c-0.35,0.3-0.87,0.45-1.57,0.45H63.4c-0.96,0-1.62-0.19-1.97-0.57S60.91,83.98,60.91,82.97 M63.43,75.2
		c-0.54-0.31-1.01-0.57-1.39-0.76c-0.74-0.34-0.84-0.83-0.32-1.46c0.35-0.42,0.77-0.54,1.27-0.35c1.07,0.47,2.09,1.03,3.09,1.68
		c0.29,0.21,0.45,0.43,0.47,0.65c0.02,0.22-0.09,0.49-0.32,0.78c-0.25,0.33-0.5,0.52-0.74,0.56c-0.24,0.04-0.53-0.06-0.85-0.31
		C64.09,75.62,63.69,75.35,63.43,75.2 M68.25,81.57c-0.38-1.07-0.83-2.05-1.36-2.95c-0.41-0.62-0.27-1.1,0.43-1.46
		c0.57-0.27,1.03-0.16,1.38,0.33c0.75,1.12,1.31,2.27,1.7,3.45c0.08,0.3,0.08,0.55-0.02,0.74c-0.1,0.19-0.3,0.36-0.6,0.52
		c-0.4,0.21-0.73,0.27-0.97,0.18C68.56,82.28,68.37,82.01,68.25,81.57"/>
	<path class="st2" d="M13.16,92.07h-1.29v1.14c0,0.31-0.15,0.47-0.47,0.47c-0.31,0-0.47-0.16-0.47-0.47v-2.97
		c0-0.31,0.16-0.47,0.47-0.47c0.31,0,0.47,0.15,0.47,0.47v1.02h1.29v-1.03c0-0.31,0.15-0.46,0.47-0.46c0.31,0,0.46,0.15,0.46,0.46
		v2.98c0,0.31-0.15,0.46-0.46,0.46c-0.31,0-0.47-0.15-0.47-0.46V92.07z"/>
	<path class="st2" d="M17.3,90.23v2.97c0,0.31-0.16,0.47-0.47,0.47c-0.31,0-0.47-0.16-0.47-0.47v-2.97c0-0.31,0.16-0.47,0.47-0.47
		C17.14,89.76,17.3,89.92,17.3,90.23"/>
	<path class="st2" d="M19.9,89.76h1.76c0.26,0,0.38,0.13,0.38,0.39c0,0.26-0.13,0.39-0.38,0.39H20.5v0.86h0.95
		c0.26,0,0.39,0.13,0.39,0.39c0,0.26-0.13,0.39-0.39,0.39H20.5v1.02c0,0.31-0.16,0.47-0.47,0.47c-0.31,0-0.47-0.15-0.47-0.47v-3.09
		c0-0.1,0.03-0.19,0.1-0.25C19.72,89.8,19.8,89.76,19.9,89.76"/>
	<path class="st2" d="M26.31,91.93v-1.72c0-0.3,0.15-0.45,0.45-0.45c0.3,0,0.45,0.15,0.45,0.45v1.62c0,0.65-0.13,1.13-0.39,1.44
		c-0.26,0.31-0.65,0.46-1.18,0.46c-0.53,0-0.93-0.15-1.19-0.46c-0.26-0.31-0.39-0.79-0.39-1.44v-1.6c0-0.31,0.16-0.47,0.47-0.47
		c0.31,0,0.47,0.15,0.47,0.47v1.7c0,0.36,0.05,0.61,0.16,0.77c0.1,0.16,0.27,0.23,0.49,0.23c0.22,0,0.39-0.08,0.5-0.23
		C26.26,92.55,26.31,92.29,26.31,91.93"/>
	<path class="st2" d="M31.84,91.74c0-0.59,0.17-1.08,0.52-1.47c0.35-0.39,0.79-0.58,1.34-0.58c0.35,0,0.65,0.1,0.93,0.29
		c0.17,0.14,0.17,0.31,0.02,0.5c-0.17,0.21-0.37,0.24-0.59,0.09c-0.11-0.05-0.22-0.08-0.34-0.08c-0.26,0-0.48,0.11-0.65,0.33
		c-0.18,0.22-0.26,0.51-0.26,0.88c0,0.38,0.08,0.69,0.24,0.9c0.16,0.22,0.38,0.32,0.66,0.32c0.14,0,0.28-0.04,0.42-0.11
		c0.21-0.17,0.41-0.15,0.59,0.07c0.15,0.18,0.14,0.35-0.03,0.52c-0.28,0.22-0.62,0.33-1.01,0.33c-0.52,0-0.96-0.17-1.31-0.53
		C32.01,92.87,31.84,92.37,31.84,91.74"/>
	<path class="st2" d="M39.03,93.67h-1.8c-0.1,0-0.18-0.03-0.25-0.1c-0.06-0.06-0.1-0.15-0.1-0.25v-3.22c0-0.1,0.03-0.18,0.1-0.25
		c0.06-0.06,0.15-0.09,0.25-0.09h1.75c0.26,0,0.38,0.13,0.38,0.39c0,0.26-0.13,0.39-0.38,0.39h-1.15v0.72h0.92
		c0.26,0,0.39,0.13,0.39,0.39s-0.13,0.39-0.39,0.39h-0.92v0.82h1.2c0.26,0,0.39,0.13,0.39,0.39C39.42,93.54,39.29,93.67,39.03,93.67
		"/>
	<path class="st2" d="M44.31,93.67h-0.4c-0.15,0-0.26-0.06-0.32-0.19l-0.87-1.69l-0.38-0.86h-0.03c0.01,0.06,0.02,0.2,0.05,0.43
		c0.02,0.22,0.04,0.41,0.05,0.57c0.01,0.16,0.02,0.31,0.02,0.45v0.85c0,0.3-0.15,0.44-0.44,0.44c-0.3,0-0.45-0.15-0.45-0.44v-3.12
		c0-0.1,0.03-0.18,0.09-0.25c0.06-0.06,0.15-0.09,0.25-0.09h0.36c0.17,0,0.29,0.07,0.37,0.22l0.85,1.65l0.39,0.87h0.02
		c-0.08-0.69-0.13-1.17-0.13-1.44v-0.85c0-0.3,0.15-0.45,0.45-0.45s0.45,0.15,0.45,0.45v3.11c0,0.1-0.03,0.19-0.09,0.25
		C44.5,93.64,44.42,93.67,44.31,93.67"/>
	<path class="st2" d="M47.01,89.76h2.28c0.26,0,0.39,0.13,0.39,0.39c0,0.26-0.13,0.39-0.39,0.39h-0.67v2.66
		c0,0.31-0.15,0.47-0.47,0.47c-0.31,0-0.47-0.15-0.47-0.47v-2.66h-0.67c-0.26,0-0.39-0.13-0.39-0.39
		C46.63,89.89,46.75,89.76,47.01,89.76"/>
	<path class="st2" d="M53.79,93.67h-1.8c-0.1,0-0.18-0.03-0.25-0.1c-0.06-0.06-0.1-0.15-0.1-0.25v-3.22c0-0.1,0.03-0.18,0.1-0.25
		c0.06-0.06,0.15-0.09,0.25-0.09h1.75c0.26,0,0.38,0.13,0.38,0.39c0,0.26-0.13,0.39-0.38,0.39h-1.15v0.72h0.92
		c0.26,0,0.39,0.13,0.39,0.39s-0.13,0.39-0.39,0.39h-0.92v0.82h1.2c0.26,0,0.39,0.13,0.39,0.39C54.18,93.54,54.05,93.67,53.79,93.67
		"/>
	<path class="st2" d="M56.66,89.76h1.09c1.02,0,1.53,0.41,1.53,1.23c0,0.54-0.22,0.92-0.67,1.13l0.66,1.16
		c0.06,0.12,0.08,0.21,0.03,0.28c-0.04,0.07-0.13,0.1-0.26,0.1h-0.36c-0.16,0-0.28-0.07-0.35-0.21L57.7,92.3h-0.45v0.91
		c0,0.31-0.16,0.47-0.47,0.47c-0.31,0-0.47-0.15-0.47-0.47v-3.09c0-0.1,0.03-0.19,0.09-0.25C56.47,89.8,56.56,89.76,56.66,89.76
		 M57.25,90.51v1.04h0.42c0.45,0,0.68-0.19,0.68-0.56c0-0.18-0.06-0.3-0.17-0.38c-0.11-0.07-0.28-0.11-0.51-0.11H57.25z"/>
</g>
</svg>
