<svg width="23" height="17" viewBox="0 0 23 17" fill="none" xmlns="http://www.w3.org/2000/svg">
<path d="M11.4553 16.3916C9.23728 16.318 6.53906 16.2348 3.84084 16.1303C3.40818 16.1137 2.97076 16.033 2.5476 15.9332C1.59193 15.7028 0.897762 15.1352 0.612488 14.1852C0.408041 13.4988 0.236877 12.7863 0.175068 12.0762C-0.0650378 9.36391 -0.0793004 6.64926 0.265406 3.94411C0.33197 3.42398 0.484114 2.90147 0.679051 2.41222C1.0713 1.43371 1.83917 0.847077 2.87567 0.730701C4.08333 0.595325 5.29812 0.535949 6.51291 0.486074C10.3712 0.329322 14.2296 0.381573 18.0879 0.540699C18.8082 0.571575 19.5333 0.62145 20.2417 0.740201C21.2449 0.908828 21.9724 1.47883 22.3765 2.43122C22.6404 3.04872 22.7545 3.69948 22.833 4.36211C23.0327 6.046 23.0136 7.73939 22.9756 9.42803C22.9471 10.6773 22.8567 11.9313 22.707 13.1734C22.6024 14.0498 22.2624 14.8621 21.5326 15.4487C21.0571 15.8335 20.508 16.0282 19.9089 16.0828C19.2456 16.1446 18.5824 16.1968 17.9167 16.2182C15.927 16.28 13.9324 16.3251 11.4553 16.3916ZM15.2328 8.25715C13.1408 7.18126 11.1819 6.17425 9.15645 5.13162C9.15645 7.29051 9.15645 9.34728 9.15645 11.5109C11.1938 10.4208 13.1527 9.37103 15.2328 8.25715Z" fill="white"/>
</svg>
