<svg width="23" height="24" viewBox="0 0 23 24" fill="none" xmlns="http://www.w3.org/2000/svg">
<path d="M11.595 23.5316C9.81427 23.4836 8.03139 23.4575 6.25065 23.3834C5.07416 23.3332 3.95105 23.0347 2.94538 22.3831C1.36107 21.3545 0.434399 19.866 0.199529 17.9788C0.0543363 16.8063 0.00522698 15.6143 0.000956606 14.4309C-0.00544895 11.94 0.0201733 9.44911 0.0820937 6.9582C0.116257 5.59616 0.447211 4.30167 1.23509 3.15973C2.2792 1.64078 3.75248 0.819197 5.50974 0.592553C6.79085 0.426929 8.09545 0.394239 9.39151 0.39206C11.8299 0.387702 14.2704 0.413853 16.7088 0.494486C18.0433 0.538071 19.3052 0.925981 20.4027 1.7541C21.8802 2.86771 22.6596 4.3932 22.841 6.22597C22.9499 7.3265 22.9862 8.43575 22.9926 9.54282C23.0055 11.7766 23.0076 14.0125 22.9478 16.2463C22.9243 17.1289 22.824 18.0333 22.5891 18.8788C21.9549 21.1605 20.439 22.5727 18.197 23.1654C17.0995 23.4553 15.9722 23.4596 14.849 23.4836C13.7644 23.5076 12.6797 23.488 11.595 23.488C11.595 23.5032 11.595 23.5163 11.595 23.5316ZM2.02511 11.9705C2.06355 13.5461 2.09984 15.1457 2.14682 16.7431C2.16817 17.4797 2.30482 18.1945 2.59307 18.8745C2.99662 19.829 3.67134 20.4915 4.61296 20.8859C5.56525 21.2847 6.56879 21.3501 7.5766 21.3588C9.97655 21.3784 12.3765 21.3872 14.7764 21.3741C15.5686 21.3697 16.365 21.3283 17.1486 21.2302C19.224 20.9666 20.503 19.6546 20.7742 17.5342C20.8532 16.9088 20.8959 16.2746 20.898 15.6448C20.9087 13.0972 20.9044 10.5496 20.8895 7.99989C20.8852 7.42893 20.8468 6.8536 20.7614 6.28917C20.4923 4.50216 19.5529 3.29703 17.8063 2.79797C16.918 2.54518 16.0084 2.51685 15.101 2.50595C12.9722 2.4798 10.8434 2.46455 8.71465 2.48634C7.71111 2.49724 6.69477 2.52557 5.70617 2.67811C3.68842 2.99193 2.5525 4.21014 2.23863 6.26084C2.19166 6.57247 2.15536 6.88847 2.14682 7.20446C2.09771 8.78443 2.06355 10.3644 2.02511 11.9705Z" fill="white"/>
<path d="M17.4049 12.0032C17.3472 15.3157 14.6441 17.9483 11.3602 17.8894C8.14886 17.8306 5.52471 15.0912 5.5845 11.855C5.64428 8.58611 8.34316 5.95791 11.6036 5.99277C14.8042 6.02764 17.4604 8.78006 17.4049 12.0032ZM15.3209 11.9618C15.3316 9.7956 13.5914 8.06962 11.3709 8.11538C9.44705 8.15461 7.6962 9.64523 7.66631 11.9051C7.63641 14.0321 9.34243 15.7646 11.4733 15.793C13.5893 15.8169 15.3081 14.1062 15.3209 11.9618Z" fill="white"/>
<path d="M17.6357 7.16097C16.867 7.16533 16.2799 6.57257 16.2692 5.77931C16.2585 5.02528 16.8777 4.3933 17.6357 4.38894C18.3745 4.38458 19.0193 5.03182 19.0172 5.77495C19.0129 6.52462 18.383 7.15661 17.6357 7.16097Z" fill="white"/>
</svg>
