<svg width="25" height="25" viewBox="0 0 25 25" fill="none" xmlns="http://www.w3.org/2000/svg">
<path d="M25 10.6649C24.9976 12.7885 24.2503 14.6223 22.9761 16.2458C22.1637 17.2823 21.1611 18.111 20.177 18.9518C17.986 20.8242 15.7068 22.5734 13.1746 23.9263C12.8265 24.1123 12.4505 24.2525 12.0745 24.3588C11.6869 24.4675 11.4989 24.3056 11.5082 23.8804C11.5152 23.5518 11.5917 23.2257 11.6312 22.8971C11.666 22.6072 11.7148 22.3148 11.7124 22.0249C11.7078 21.3702 11.4339 21.0029 10.8212 20.858C10.3825 20.7541 9.93226 20.7082 9.4936 20.6164C7.13318 20.1259 4.98396 19.1571 3.16665 17.4852C1.45145 15.9052 0.297937 13.9796 0.0495937 11.566C-0.214996 9.00747 0.590379 6.79441 2.19649 4.88335C4.06022 2.66787 6.45313 1.39464 9.17794 0.783387C12.4621 0.0465054 15.6697 0.33401 18.7496 1.77395C20.7967 2.73069 22.4933 4.13922 23.7118 6.12276C24.5636 7.50472 25.0046 9.01714 25 10.6649ZM14.8573 10.9717C14.5881 10.9451 14.5138 10.7277 14.4024 10.5779C13.8083 9.77335 13.2234 8.96399 12.6362 8.15462C12.5921 8.09181 12.5503 8.02658 12.5016 7.96618C12.2439 7.6521 11.9724 7.55787 11.6591 7.67142C11.3573 7.78014 11.2297 7.97584 11.2274 8.40589C11.2227 9.98596 11.2297 11.566 11.232 13.1461C11.232 13.2234 11.232 13.3031 11.2459 13.378C11.3086 13.6994 11.5685 13.9289 11.8772 13.9385C12.1859 13.9482 12.4784 13.7428 12.555 13.4312C12.5898 13.2838 12.5851 13.1219 12.5874 12.9673C12.5921 12.3029 12.5874 11.6409 12.5921 10.9765C12.5921 10.834 12.6176 10.6914 12.6432 10.4281C12.9634 10.8654 13.2141 11.2012 13.4578 11.5395C13.9522 12.2256 14.4373 12.919 14.9409 13.6003C15.18 13.924 15.4678 14.0014 15.7811 13.883C16.113 13.7598 16.2314 13.4964 16.2221 13.1509C16.2221 13.1316 16.2221 13.1123 16.2221 13.0929C16.2221 11.5709 16.2244 10.0488 16.2244 8.52911C16.2244 8.39381 16.2221 8.25126 16.1873 8.12322C16.0944 7.79222 15.7834 7.59411 15.4469 7.63277C15.1196 7.67142 14.9061 7.88645 14.8666 8.23918C14.8504 8.37448 14.8597 8.51219 14.8597 8.64749C14.8573 9.41095 14.8573 10.172 14.8573 10.9717ZM18.4734 9.04613C18.7078 9.04613 18.9098 9.04855 19.1094 9.04613C19.5039 9.04371 19.8985 9.05821 20.2907 9.0268C20.6389 8.99781 20.871 8.70789 20.8826 8.35998C20.8919 8.01691 20.669 7.73424 20.3209 7.66418C20.2118 7.64243 20.0958 7.64485 19.9844 7.64485C19.309 7.64243 18.6336 7.6376 17.9582 7.64243C17.2433 7.64726 17.0553 7.83088 17.0507 8.57984C17.0437 10.0826 17.0483 11.5854 17.0576 13.0881C17.0623 13.709 17.2781 13.941 17.8676 13.9506C18.5802 13.9651 19.2927 13.9555 20.0052 13.9555C20.0981 13.9555 20.1932 13.9555 20.2861 13.9385C20.6574 13.8709 20.8733 13.6269 20.8826 13.2741C20.8919 12.919 20.6366 12.6001 20.2652 12.5663C19.9124 12.5324 19.5527 12.5542 19.1976 12.5493C18.9608 12.5469 18.7241 12.5373 18.4827 12.5324C18.4827 12.1604 18.4827 11.8608 18.4827 11.5008C18.7658 11.5008 19.0049 11.5008 19.2463 11.5008C19.5643 11.4984 19.8846 11.5129 20.2025 11.4911C20.6296 11.4621 20.8895 11.1819 20.8803 10.7905C20.871 10.4208 20.6296 10.1575 20.2373 10.1116C20.0702 10.0923 19.9008 10.0971 19.7314 10.0971C19.3229 10.0947 18.9167 10.0971 18.4757 10.0971C18.4734 9.7202 18.4734 9.42061 18.4734 9.04613ZM5.96805 12.5324C5.96805 12.2183 5.96805 12.0057 5.96805 11.7931C5.96573 10.6624 5.97269 9.52933 5.95877 8.39864C5.9518 7.92269 5.68025 7.64726 5.27176 7.64485C4.85399 7.64001 4.60797 7.89611 4.60332 8.39622C4.59404 9.97629 4.59172 11.5564 4.601 13.1388C4.60332 13.7066 4.84703 13.9434 5.40406 13.9506C6.13516 13.9603 6.86626 13.953 7.59737 13.9506C7.70877 13.9506 7.8225 13.9434 7.93159 13.9144C8.2542 13.8298 8.43756 13.5665 8.42828 13.2307C8.41899 12.8972 8.21706 12.6242 7.90141 12.5663C7.69949 12.53 7.4906 12.5397 7.28404 12.5373C6.87323 12.53 6.46474 12.5324 5.96805 12.5324ZM10.3175 10.8026C10.3199 10.8026 10.3199 10.8026 10.3175 10.8026C10.3175 10.0826 10.3199 9.36263 10.3175 8.64266C10.3175 8.48803 10.3175 8.32858 10.2827 8.17878C10.2038 7.82605 9.92297 7.61585 9.58411 7.63518C9.22204 7.65451 9.0062 7.8647 8.95746 8.25127C8.94353 8.36723 8.94585 8.4832 8.94585 8.60159C8.94585 10.0415 8.94817 11.4839 8.95049 12.9238C8.95049 13.0784 8.94817 13.2379 8.97602 13.3901C9.03637 13.7235 9.28239 13.924 9.61196 13.9361C9.93458 13.9482 10.2015 13.7598 10.2758 13.4288C10.3152 13.2621 10.3152 13.0809 10.3152 12.9069C10.3199 12.2039 10.3175 11.5032 10.3175 10.8026Z" fill="white"/>
</svg>
