<svg width="150" height="44" viewBox="0 0 150 44" fill="none" xmlns="http://www.w3.org/2000/svg">
<path fill-rule="evenodd" clip-rule="evenodd" d="M97.8072 22.7979C97.8743 25.1106 97.5949 27.3954 97.2653 29.6747C96.9134 32.1271 96.3548 34.5404 95.4777 36.8643C94.8409 38.5514 93.9582 40.0932 92.7069 41.406C91.6958 42.473 90.4221 42.9702 88.9808 42.9757C86.5619 42.9869 84.143 42.9422 81.7241 42.9143C81.4783 42.9143 81.2325 42.8696 80.9923 42.8528C80.5063 42.8137 80.3275 42.6908 80.3331 42.2104C80.3387 41.2496 80.3499 40.2664 81.1934 39.5737C81.7185 39.1379 81.7912 38.5514 81.8023 37.9369C81.8191 36.9313 81.8135 35.9202 81.8191 34.9091C81.8414 31.1997 81.875 27.4848 81.8917 23.7755C81.9141 18.826 81.9197 13.8765 81.942 8.92697C81.942 8.48006 82.0258 8.03874 82.0202 7.59184C82.0146 7.01086 82.0146 6.42429 81.9029 5.85448C81.8359 5.50254 81.6459 5.11709 81.389 4.87687C80.875 4.38527 80.6683 3.82105 80.6795 3.13952C80.6851 2.80434 80.7018 2.46916 80.7018 2.13398C80.7018 1.77087 80.9085 1.60886 81.2381 1.56976C81.4392 1.54741 81.6403 1.53065 81.8414 1.53624C83.9252 1.55858 86.0089 1.58093 88.0926 1.60328C90.9919 1.63679 93.0421 3.09483 94.4833 5.49696C95.595 7.35162 96.3157 9.35712 96.7514 11.4855C97.081 13.0832 97.3268 14.6865 97.4888 16.3065C97.5838 17.2395 97.634 18.178 97.6787 19.1165C97.729 20.3399 97.7625 21.5689 97.8072 22.7979ZM86.7295 5.37406C86.7016 5.91593 86.6513 6.45222 86.6457 6.98292C86.6234 10.7258 86.6178 14.4686 86.5954 18.2171C86.5731 21.3063 86.5284 24.4011 86.5116 27.4904C86.4893 31.0768 86.4781 34.6633 86.4669 38.2497C86.4669 38.4061 86.4725 38.5625 86.4781 38.7189C86.4893 39.0709 86.6848 39.2664 87.0256 39.2664C87.6959 39.272 88.3663 39.2943 89.0311 39.2385C89.5506 39.1938 89.9808 38.9256 90.3606 38.5346C90.8299 38.0486 91.0869 37.462 91.3326 36.8699C91.8634 35.6018 92.0812 34.2499 92.2767 32.9036C92.4778 31.4902 92.6007 30.0657 92.679 28.6412C92.7795 26.7921 92.8186 24.9318 92.841 23.0772C92.8577 21.4851 92.8298 19.8986 92.7963 18.3064C92.7739 17.1668 92.746 16.0272 92.6566 14.8932C92.489 12.8207 92.1594 10.7705 91.584 8.77055C91.3997 8.13371 91.126 7.50245 90.7964 6.92706C89.9081 5.41316 88.5618 4.89363 86.7295 5.37406Z" fill="white"/>
<path fill-rule="evenodd" clip-rule="evenodd" d="M52.8536 24.6189C52.8089 23.7921 52.7139 22.9654 52.7363 22.1442C52.781 20.7197 52.8871 19.2951 52.9876 17.8706C53.0435 17.0941 53.1832 16.3176 53.2055 15.5411C53.2446 14.1669 53.5686 12.8429 53.8424 11.5078C54.2613 9.47435 54.7865 7.45768 55.7696 5.6086C56.2612 4.68685 56.7752 3.73159 57.4958 2.99419C59.0377 1.41325 60.6186 0.625577 63.2051 1.38532C64.3559 1.72609 65.272 2.4579 66.015 3.37406C67.1211 4.74271 67.9144 6.28454 68.4786 7.95486C68.9311 9.31234 69.3724 10.6642 69.5959 12.0832C69.769 13.206 69.9143 14.3345 70.0986 15.4573C70.4394 17.541 70.3779 19.6471 70.4841 21.742C70.5232 22.4905 70.4338 23.2447 70.4003 23.9933C70.2997 26.4736 70.0148 28.926 69.6014 31.3728C69.2216 33.6074 68.6518 35.7916 67.825 37.8809C67.1155 39.6797 66.1826 41.4115 64.529 42.607C63.3503 43.4561 62.0766 43.7075 60.6633 43.4393C59.2723 43.1768 58.2165 42.3891 57.3059 41.3612C56.3618 40.2942 55.6803 39.0596 55.211 37.7245C54.7027 36.272 54.172 34.814 53.8424 33.3113C53.4234 31.4008 53.0603 29.4623 52.9932 27.4903C52.9653 26.5295 52.848 25.5742 52.7698 24.6189C52.7921 24.6245 52.8201 24.6245 52.8536 24.6189ZM65.3279 21.7978C65.3446 21.7978 65.3558 21.7978 65.3726 21.7978C65.3279 20.2113 65.2608 18.6248 65.2441 17.0327C65.2217 15.016 65.0653 13.0161 64.786 11.0218C64.5626 9.452 64.2776 7.88783 63.6799 6.41303C63.4509 5.84322 63.0989 5.29576 62.6967 4.83209C62.1213 4.16732 61.2331 4.18408 60.6409 4.82092C60.3393 5.14493 60.0767 5.51922 59.8756 5.91026C59.641 6.36275 59.4678 6.85435 59.317 7.34595C58.7528 9.16151 58.4846 11.0385 58.2221 12.9155C57.8478 15.6193 57.7919 18.3399 57.7137 21.0548C57.6578 22.9989 57.7696 24.9485 57.7807 26.8982C57.7919 28.8645 57.9204 30.8254 58.1662 32.7806C58.412 34.6911 58.7528 36.5681 59.4287 38.3781C59.5907 38.8082 59.8421 39.2216 60.127 39.5847C60.7918 40.4227 62.1381 40.3501 62.8029 39.5289C63.5738 38.5792 63.9313 37.4396 64.2441 36.3111C64.6575 34.8028 64.8363 33.2442 64.9368 31.6857C65.0709 29.6411 65.2217 27.602 65.3111 25.5574C65.3782 24.3061 65.3279 23.0492 65.3279 21.7978Z" fill="white"/>
<path fill-rule="evenodd" clip-rule="evenodd" d="M25.3633 22.7532C25.3745 20.6248 25.5532 18.5132 25.7376 16.396C25.9052 14.4743 26.1845 12.5749 26.6314 10.7091C26.9777 9.25661 27.4358 7.82092 27.9777 6.42992C28.5363 4.98864 29.3184 3.64792 30.4301 2.54741C31.687 1.30165 33.1953 0.798881 34.9606 1.03351C36.8153 1.27931 38.0946 2.37982 39.1224 3.82109C40.1559 5.26796 40.8766 6.87124 41.3793 8.58066C41.9491 10.5135 42.3737 12.4688 42.6363 14.4687C42.843 16.044 43.0273 17.6194 43.0329 19.2059C43.0385 20.0941 43.1614 20.9879 43.0943 21.865C42.9603 23.6247 43.0943 25.3956 42.7983 27.1497C42.6083 28.2502 42.5189 29.3674 42.3569 30.468C41.9771 33.0377 41.3626 35.5571 40.3738 37.9592C39.7872 39.3782 39.0219 40.7357 37.8935 41.8306C36.2064 43.4674 34.4579 43.7523 32.3462 42.9758C31.2848 42.5847 30.4524 41.8027 29.7486 40.9088C28.4023 39.1882 27.5922 37.2218 26.9889 35.1381C26.4414 33.2444 26.1174 31.3059 25.8214 29.3674C25.6538 28.2893 25.57 27.1944 25.4974 26.105C25.4247 24.9877 25.408 23.8705 25.3633 22.7532ZM38.0108 18.6249C37.9828 18.6249 37.9493 18.6249 37.9214 18.6249C37.9214 17.9322 37.927 17.2451 37.9214 16.5524C37.9102 15.7256 37.9437 14.8876 37.8599 14.0664C37.7203 12.6475 37.5471 11.2286 37.3125 9.82083C37.1058 8.5639 36.8432 7.31256 36.3181 6.13943C36.1114 5.67576 35.8768 5.20092 35.5584 4.80988C34.8601 3.93282 33.7987 3.94399 33.0892 4.7987C32.8657 5.07243 32.6702 5.37968 32.525 5.70369C32.3015 6.21205 32.0781 6.73716 31.9552 7.27904C31.6367 8.64769 31.3295 10.0219 31.1005 11.4073C30.8547 12.8821 30.6312 14.3681 30.5418 15.8541C30.4078 18.0216 30.391 20.1947 30.3463 22.3622C30.3295 23.3007 30.3742 24.2448 30.3798 25.1833C30.391 26.1162 30.3686 27.0547 30.4078 27.9876C30.4413 28.8535 30.5307 29.7194 30.6089 30.5853C30.7094 31.7193 30.7373 32.8701 30.9552 33.9818C31.2122 35.3169 31.6032 36.6241 31.9943 37.9313C32.173 38.5291 32.4747 39.0709 32.8993 39.5625C33.4467 40.1882 34.6199 40.1938 35.2064 39.6072C35.5193 39.2944 35.8097 38.9313 35.9997 38.5402C36.3237 37.8587 36.6142 37.1436 36.8097 36.4174C37.4633 33.9706 37.6756 31.4456 37.8488 28.9317C37.994 26.7866 37.9717 24.6358 37.9996 22.4851C38.0275 21.1946 38.0108 19.9098 38.0108 18.6249Z" fill="white"/>
<path fill-rule="evenodd" clip-rule="evenodd" d="M140.66 42.8305C138.453 42.9031 136.258 42.8193 134.035 42.7188C134.057 42.1378 134.359 41.7859 134.515 41.3837C134.588 41.1993 134.683 41.015 134.789 40.8474C135.269 40.0765 135.331 39.2273 135.325 38.3391C135.314 35.8308 135.353 33.3226 135.359 30.8143C135.359 29.0267 135.32 27.2334 135.325 25.4458C135.331 22.4404 135.342 19.4405 135.364 16.435C135.387 13.7983 135.437 11.1671 135.448 8.53036C135.454 7.30695 135.415 6.07795 135.359 4.85454C135.32 4.00542 135.063 3.24568 134.348 2.68145C133.951 2.36303 134.04 1.99433 134.521 1.83792C134.688 1.78205 134.873 1.74854 135.051 1.74854C137.493 1.80998 139.951 1.70384 142.364 1.98875C145.436 2.35186 147.654 4.0557 148.716 7.04998C149.045 7.97172 149.252 8.94375 149.218 9.93253C149.174 11.2509 149.174 12.5749 149.028 13.8821C148.838 15.558 148.291 17.1501 147.42 18.6081C146.833 19.5969 146.017 20.3958 145.079 21.0605C144.85 21.2225 144.565 21.3175 144.302 21.4404C143.861 21.6471 143.844 21.7979 144.224 22.0605C144.314 22.1219 144.409 22.1946 144.503 22.2448C146.191 23.1275 147.045 24.6358 147.615 26.3564C148.028 27.591 148.146 28.8647 148.151 30.1663C148.157 31.7975 148.269 33.4287 148.358 35.0543C148.425 36.233 148.526 37.4118 148.632 38.5905C148.71 39.4731 149.034 40.2831 149.453 41.0541C149.57 41.2719 149.71 41.473 149.827 41.6909C150.162 42.2831 150.017 42.6685 149.33 42.7076C148.358 42.7579 147.369 42.7635 146.408 42.6294C145.459 42.4953 144.967 41.7021 144.61 40.8865C144.263 40.082 144.079 39.2329 144.045 38.3503C144.006 37.328 143.906 36.3057 143.861 35.2778C143.839 34.7303 143.906 34.1773 143.911 33.6298C143.923 32.6243 143.934 31.6243 143.911 30.6243C143.883 29.144 143.671 27.6915 143.207 26.2838C142.967 25.5575 142.626 24.876 142.001 24.3844C141.336 23.8649 140.565 23.9375 139.822 24.0883C139.425 24.1665 139.353 24.5967 139.347 24.9654C139.331 25.5687 139.342 26.1776 139.342 26.7809C139.342 28.2837 139.353 29.7864 139.342 31.2891C139.319 33.8365 139.297 36.3839 139.247 38.9312C139.236 39.4955 139.358 39.9871 139.638 40.4563C139.912 40.92 140.191 41.3781 140.437 41.8529C140.576 42.1266 140.828 42.3724 140.66 42.8305ZM139.755 5.24559C139.71 5.45787 139.638 5.69808 139.627 5.93271C139.582 6.93825 139.537 7.94379 139.537 8.94933C139.526 12.0889 139.532 15.2284 139.532 18.3679C139.532 18.5467 139.52 18.731 139.543 18.9042C139.599 19.3343 139.783 19.5075 140.236 19.569C142.14 19.8315 143.068 19.0774 143.917 17.7087C144.509 16.759 144.755 15.6418 144.911 14.5301C145.101 13.2005 145.191 11.8766 145.068 10.5303C144.967 9.39624 144.716 8.32925 144.219 7.31812C143.448 5.73719 141.721 4.75958 139.755 5.24559Z" fill="white"/>
<path fill-rule="evenodd" clip-rule="evenodd" d="M114.924 4.59185C114.901 5.022 114.862 5.37394 114.862 5.73146C114.857 8.08331 114.868 10.4408 114.857 12.7982C114.846 14.5355 114.812 16.2729 114.79 18.0102C114.784 18.6359 114.896 18.7309 115.516 18.77C116.309 18.8203 116.946 18.5577 117.303 17.8427C117.477 17.4907 117.505 17.0717 117.594 16.6751C117.683 16.2841 117.728 15.8763 117.851 15.4964C118.052 14.8931 118.493 14.6473 119.097 14.7199C119.387 14.7534 119.538 14.9098 119.566 15.1947C119.577 15.3511 119.572 15.5076 119.572 15.664C119.572 18.9152 119.572 22.1665 119.566 25.4177C119.566 25.7306 119.499 26.0378 119.482 26.3507C119.465 26.6411 119.275 26.7249 119.035 26.7529C118.572 26.8143 118.086 26.5853 117.879 26.116C117.683 25.6691 117.555 25.1943 117.432 24.7194C117.326 24.3116 117.281 23.8871 117.181 23.4737C116.946 22.5408 115.968 22.0157 115.075 22.3564C114.94 22.4067 114.812 22.5966 114.767 22.7475C114.711 22.9318 114.734 23.1441 114.734 23.3452C114.734 24.9373 114.739 26.5294 114.728 28.1215C114.706 31.2946 114.672 34.4676 114.639 37.6407C114.639 37.7971 114.633 37.9535 114.644 38.1099C114.667 38.3669 114.812 38.5121 115.08 38.5289C116.337 38.6127 117.588 38.5903 118.801 38.2272C119.7 37.9535 120.409 37.3837 120.666 36.4508C120.912 35.5514 121.069 34.624 121.225 33.7023C121.382 32.8029 121.46 31.8867 121.627 30.9873C121.7 30.6019 121.901 30.2388 122.074 29.8812C122.314 29.3896 122.75 29.2611 123.259 29.3226C123.672 29.3729 123.8 29.4846 123.856 29.9092C123.884 30.127 123.873 30.3561 123.867 30.5795C123.84 34.2051 123.812 37.825 123.778 41.4505C123.778 41.6684 123.728 41.8919 123.694 42.1768C123.454 42.1991 123.236 42.2326 123.024 42.2326C118.493 42.2382 113.963 42.2382 109.432 42.2326C109.119 42.2326 108.807 42.1824 108.494 42.1712C108.198 42.1544 108.008 41.9924 108.008 41.7187C108.019 41.1433 108.036 40.5567 108.142 39.9925C108.198 39.7132 108.393 39.3836 108.628 39.2216C109.349 38.7188 109.566 38.0149 109.6 37.1993C109.645 36.043 109.728 34.8922 109.728 33.7358C109.745 29.4958 109.728 25.2613 109.74 21.0213C109.745 17.8203 109.773 14.6138 109.801 11.4128C109.818 9.53576 109.84 7.65875 109.874 5.78733C109.89 5.02758 109.684 4.4075 109.052 3.92149C108.164 3.23995 108.215 2.25117 108.293 1.27915C108.304 1.16742 108.466 1.03893 108.589 0.977484C108.701 0.921621 108.851 0.927207 108.985 0.927207C111.633 0.927207 114.276 0.927207 116.924 0.927207C117.879 0.927207 118.834 0.921621 119.789 0.93838C120.504 0.955139 121.164 0.787549 121.795 0.474714C122.03 0.3574 122.281 0.262432 122.627 0.117188C122.689 0.452368 122.784 0.720513 122.784 0.994243C122.795 2.78746 122.8 4.58068 122.789 6.37948C122.773 8.12242 122.733 9.85977 122.7 11.6027C122.694 11.8988 122.812 12.2675 122.415 12.4183C121.935 12.6027 121.253 12.4071 121.035 12.0105C120.873 11.72 120.739 11.4016 120.666 11.0776C120.376 9.70335 120.125 8.32353 119.84 6.9437C119.756 6.55266 119.605 6.17837 119.488 5.79291C119.259 5.022 118.683 4.6533 117.94 4.60861C116.979 4.54716 115.996 4.59185 114.924 4.59185Z" fill="white"/>
<path fill-rule="evenodd" clip-rule="evenodd" d="M15.1292 30.9483C15.1292 32.317 15.1459 33.6857 15.1236 35.0543C15.0957 37.0542 15.0398 39.0597 14.9895 41.0596C14.9728 41.6518 14.861 41.7747 14.2689 41.7691C12.6824 41.7579 11.0902 41.7188 9.50372 41.7076C6.99546 41.6965 4.48719 41.7076 1.97892 41.7021C1.48732 41.7021 0.995721 41.6685 0.504122 41.635C-0.0265803 41.6015 -0.0768577 41.5568 0.0739736 41.0205C0.325359 40.1435 0.571158 39.2497 0.934271 38.4173C1.35883 37.4397 1.61022 36.4677 1.59905 35.3839C1.57111 32.7248 1.64932 30.0657 1.66608 27.401C1.68843 24.0604 1.69401 20.7198 1.71636 17.3791C1.7387 14.0552 1.80015 10.7314 1.78898 7.40749C1.7834 6.13939 1.70519 4.85453 1.50408 3.60319C1.37001 2.782 0.962203 1.99991 0.671713 1.20106C0.638195 1.09492 0.582331 0.999956 0.53764 0.893815C0.269496 0.212281 0.392395 0 1.13538 0C3.30847 0.00558634 5.47597 0.0279317 7.64906 0.0614498C8.24121 0.0726225 8.36411 0.268145 8.163 0.826779C7.86134 1.66473 7.55968 2.50268 7.22449 3.32946C6.78317 4.42997 6.64351 5.56959 6.6491 6.74272C6.65469 7.8153 6.6491 8.88787 6.6491 9.95487C6.6491 11.9268 6.66027 13.9044 6.6491 15.8764C6.62117 19.636 6.55972 23.39 6.53737 27.1496C6.51503 30.44 6.52062 33.7359 6.52062 37.0263C6.52062 37.6687 6.5262 37.7022 7.18539 37.7302C7.96189 37.7637 8.76074 37.814 9.52607 37.7022C10.7942 37.5179 11.5707 36.6744 12.0176 35.5124C12.3919 34.546 12.4924 33.5181 12.6209 32.5014C12.8332 30.7975 13.0231 29.0937 13.3024 27.401C13.3862 26.8927 13.6935 26.4122 13.9449 25.943C14.0287 25.7922 14.2465 25.6804 14.4253 25.6246C14.9169 25.4849 15.1683 25.6693 15.1739 26.172C15.185 27.2949 15.1739 28.4121 15.1739 29.535C15.1739 30.0043 15.1739 30.4735 15.1739 30.9428C15.1571 30.9483 15.1459 30.9483 15.1292 30.9483Z" fill="white"/>
</svg>
